{"glyphs":{"0":{"ha":741,"x_min":47,"x_max":774,"o":"m 691 380 q 551 80 650 175 q 311 -14 453 -14 q 114 89 180 -14 q 85 380 47 191 l 131 606 q 270 906 172 811 q 512 1002 369 1002 q 708 898 643 1002 q 736 606 774 795 l 691 380 m 579 631 q 581 815 605 760 q 486 869 556 869 q 371 810 421 869 q 298 631 321 750 l 243 357 q 241 172 216 227 q 337 117 267 117 q 451 177 401 117 q 524 357 500 236 l 579 631 z "},"1":{"ha":743,"x_min":206,"x_max":610,"o":"m 412 0 l 250 0 l 412 810 l 206 810 l 229 922 l 610 987 l 412 0 z "},"2":{"ha":743,"x_min":22,"x_max":745,"o":"m 637 0 l 22 0 l 41 113 l 395 464 q 517 605 481 549 q 562 713 553 661 q 545 826 572 782 q 460 869 518 869 q 337 820 385 869 q 277 686 290 771 l 121 686 l 120 690 q 235 914 138 827 q 481 1002 332 1002 q 677 922 610 1002 q 724 718 745 843 q 655 555 710 629 q 487 368 600 480 l 250 136 l 251 132 l 658 132 l 637 0 z "},"3":{"ha":743,"x_min":26,"x_max":741,"o":"m 277 476 l 286 530 l 292 568 l 401 568 q 508 608 469 568 q 557 720 546 648 q 542 831 569 793 q 448 869 514 869 q 346 831 391 869 q 292 730 301 792 l 136 730 l 134 734 q 243 927 150 852 q 467 1002 337 1002 q 669 928 597 1002 q 720 720 741 854 q 664 596 709 654 q 547 505 618 537 q 646 414 618 475 q 662 277 673 353 q 541 61 639 136 q 304 -14 442 -14 q 103 59 180 -14 q 50 261 26 132 l 52 264 l 209 264 q 230 157 198 196 q 328 117 262 117 q 440 159 393 117 q 499 276 487 201 q 485 401 513 363 q 380 439 456 439 l 271 439 l 277 476 z "},"4":{"ha":743,"x_min":28,"x_max":733,"o":"m 606 352 l 719 352 l 692 219 l 579 219 l 536 0 l 374 0 l 418 219 l 28 219 l 43 320 l 567 987 l 733 987 l 606 352 m 212 355 l 214 352 l 444 352 l 523 744 l 519 745 l 506 725 l 212 355 z "},"5":{"ha":743,"x_min":56,"x_max":752,"o":"m 123 441 l 263 987 l 752 987 l 729 845 l 375 845 l 309 597 q 375 633 338 618 q 454 648 412 647 q 644 560 585 650 q 677 315 703 471 q 562 76 653 165 q 323 -14 471 -14 q 131 58 206 -14 q 80 260 56 130 l 81 264 l 235 269 q 253 156 222 195 q 345 117 284 117 q 455 172 410 117 q 515 314 501 227 q 502 461 530 406 q 405 515 474 515 q 313 493 347 515 q 260 430 279 471 l 123 441 z "},"6":{"ha":743,"x_min":58,"x_max":724,"o":"m 547 1002 q 640 990 595 1002 q 717 961 685 979 l 667 833 q 604 859 635 850 q 527 868 572 868 q 372 793 440 868 q 287 594 304 718 l 289 591 q 378 641 326 623 q 488 659 430 659 q 665 566 606 659 q 702 331 724 472 q 580 80 677 174 q 348 -14 484 -14 q 135 92 212 -14 q 88 387 58 199 l 119 576 q 270 889 151 776 q 547 1002 390 1002 m 427 531 q 331 510 373 531 q 260 452 288 488 l 248 378 q 262 183 227 248 q 369 117 297 117 q 477 180 431 117 q 539 331 524 242 q 524 477 553 423 q 427 531 494 531 z "},"7":{"ha":743,"x_min":136,"x_max":795,"o":"m 774 855 q 504 499 582 656 q 364 104 427 341 l 337 0 l 175 0 l 202 104 q 363 511 261 328 q 618 855 465 693 l 136 855 l 157 987 l 795 987 l 774 855 z "},"8":{"ha":743,"x_min":33,"x_max":768,"o":"m 742 727 q 677 589 726 646 q 556 504 628 532 q 656 409 623 471 q 673 269 689 348 q 548 54 644 122 q 312 -14 452 -14 q 107 60 182 -14 q 60 269 33 134 q 134 419 78 357 q 273 510 190 480 q 188 598 215 541 q 176 727 161 654 q 293 935 203 867 q 513 1002 382 1002 q 700 929 632 1002 q 742 727 768 857 m 514 277 q 498 398 529 355 q 401 441 467 441 q 290 395 340 441 q 224 277 239 349 q 239 158 208 198 q 338 117 270 117 q 449 161 398 117 q 514 277 499 205 m 579 721 q 567 830 593 791 q 487 869 542 869 q 392 828 434 869 q 337 721 350 787 q 347 611 322 649 q 429 573 372 573 q 523 614 480 573 q 579 721 566 655 z "},"9":{"ha":743,"x_min":85,"x_max":747,"o":"m 300 117 q 437 183 376 117 q 518 374 498 250 l 522 393 q 438 330 485 351 q 340 309 391 309 q 149 400 213 309 q 111 649 85 490 q 236 905 136 808 q 465 1002 337 1002 q 675 900 603 1002 q 718 611 747 798 l 681 380 q 540 85 649 185 q 279 -14 431 -14 q 183 -4 233 -14 q 95 26 133 7 l 136 151 q 211 125 172 134 q 300 117 250 117 m 376 437 q 472 462 429 437 q 543 525 515 486 l 559 631 q 549 811 578 753 q 446 869 520 869 q 339 806 390 869 q 273 649 288 742 q 283 493 256 549 q 376 437 311 437 z "}," ":{"ha":330,"x_min":0,"x_max":0,"o":""},"!":{"ha":360,"x_min":43,"x_max":402,"o":"m 271 333 l 109 333 l 239 987 l 402 987 l 271 333 m 203 0 l 43 0 l 75 159 l 235 159 l 203 0 z "},"\"":{"ha":433,"x_min":117,"x_max":501,"o":"m 264 873 l 191 704 l 117 704 l 142 865 l 174 1058 l 294 1058 l 264 873 m 471 873 l 397 704 l 324 704 l 350 871 l 380 1058 l 501 1058 l 471 873 z "},"#":{"ha":794,"x_min":39,"x_max":828,"o":"m 429 278 l 294 278 l 190 0 l 79 0 l 183 278 l 39 278 l 60 385 l 223 385 l 302 597 l 151 597 l 172 705 l 342 705 l 448 987 l 559 987 l 453 705 l 588 705 l 694 987 l 805 987 l 699 705 l 828 705 l 806 597 l 659 597 l 579 385 l 718 385 l 696 278 l 539 278 l 435 0 l 325 0 l 429 278 m 334 385 l 469 385 l 548 597 l 413 597 l 334 385 z "},"$":{"ha":743,"x_min":43,"x_max":753,"o":"m 508 258 q 490 354 517 317 q 389 422 463 391 q 207 540 262 471 q 170 728 151 609 q 263 915 189 844 q 450 998 337 985 l 473 1147 l 579 1147 l 555 996 q 705 896 656 978 q 733 682 753 814 l 572 682 q 560 818 585 770 q 475 865 534 865 q 379 828 417 865 q 332 729 342 790 q 349 633 322 669 q 455 564 376 598 q 635 445 581 513 q 670 259 689 377 q 573 69 650 137 q 379 -11 497 1 l 358 -143 l 252 -143 l 273 -11 q 104 79 166 3 q 66 300 43 155 l 229 300 q 247 161 212 200 q 345 121 281 121 q 453 158 410 121 q 508 258 497 195 z "},"%":{"ha":954,"x_min":140,"x_max":905,"o":"m 168 798 q 249 946 186 890 q 404 1002 311 1002 q 533 942 490 1002 q 560 798 577 883 l 550 745 q 469 598 531 653 q 314 543 406 543 q 184 602 228 543 q 157 745 140 661 l 168 798 m 269 745 q 276 670 260 699 q 334 642 292 642 q 399 672 370 642 q 437 745 429 703 l 448 798 q 441 873 457 844 q 385 903 425 903 q 317 871 347 903 q 279 798 288 840 l 269 745 m 495 242 q 576 390 513 334 q 732 446 640 446 q 861 386 817 446 q 888 242 905 327 l 878 189 q 796 41 859 96 q 642 -14 734 -14 q 512 45 556 -14 q 485 189 467 104 l 495 242 m 597 189 q 604 114 587 143 q 661 85 621 85 q 729 115 701 85 q 766 189 757 145 l 776 242 q 769 317 785 288 q 712 347 753 347 q 645 315 674 347 q 607 242 615 284 l 597 189 m 252 74 l 178 123 l 782 895 l 854 846 l 252 74 z "},"&":{"ha":836,"x_min":15,"x_max":803,"o":"m 35 267 q 99 408 48 351 q 249 528 151 465 q 198 646 212 593 q 192 752 183 698 q 286 937 211 873 q 475 1002 361 1002 q 629 936 573 1002 q 670 781 684 871 q 618 661 659 711 q 509 564 578 611 l 441 517 l 590 276 q 642 367 621 317 q 672 471 663 416 l 803 471 q 752 298 787 375 q 661 162 717 222 l 762 0 l 574 0 l 536 62 q 417 5 478 24 q 292 -14 356 -14 q 87 65 159 -14 q 35 267 15 144 m 318 117 q 394 130 355 117 q 471 165 433 142 l 310 426 l 291 413 q 223 340 243 376 q 198 272 203 305 q 218 160 186 202 q 318 117 250 117 m 345 754 q 349 688 339 721 q 382 614 358 655 l 456 662 q 512 714 496 687 q 534 775 528 741 q 518 841 539 813 q 454 869 496 869 q 382 836 412 869 q 345 754 351 802 z "},"'":{"ha":225,"x_min":117,"x_max":292,"o":"m 265 889 l 190 697 l 117 697 l 145 878 l 174 1058 l 292 1058 l 265 889 z "},"(":{"ha":450,"x_min":56,"x_max":547,"o":"m 100 401 q 272 861 144 680 q 528 1101 400 1042 l 532 1100 l 547 1010 q 368 787 452 940 q 248 403 284 635 l 245 389 q 241 0 207 147 q 350 -222 276 -146 l 307 -309 l 302 -309 q 126 -63 196 -250 q 98 391 56 123 l 100 401 z "},")":{"ha":452,"x_min":-69,"x_max":428,"o":"m 384 390 q 210 -66 340 116 q -49 -309 79 -249 l -53 -309 l -69 -222 q 109 2 24 -153 q 231 389 194 156 l 233 402 q 235 791 271 642 q 128 1013 198 940 l 173 1101 l 177 1100 q 355 853 283 1043 q 386 401 428 663 l 384 390 z "},"*":{"ha":573,"x_min":106,"x_max":636,"o":"m 279 659 l 106 720 l 165 834 l 332 755 l 370 987 l 485 987 l 428 750 l 624 828 l 636 712 l 435 652 l 520 472 l 412 401 l 343 595 l 198 406 l 117 475 l 279 659 z "},"+":{"ha":726,"x_min":67,"x_max":726,"o":"m 492 543 l 726 543 l 696 393 l 461 393 l 403 99 l 245 99 l 304 393 l 67 393 l 97 543 l 334 543 l 389 818 l 547 818 l 492 543 z "},",":{"ha":292,"x_min":-64,"x_max":203,"o":"m 175 21 l 30 -191 l -64 -191 l 23 27 l 50 159 l 203 159 l 175 21 z "},"-":{"ha":434,"x_min":62,"x_max":422,"o":"m 395 353 l 62 353 l 88 486 l 422 486 l 395 353 z "},".":{"ha":374,"x_min":41,"x_max":233,"o":"m 201 0 l 41 0 l 73 158 l 233 158 l 201 0 z "},"/":{"ha":519,"x_min":-72,"x_max":629,"o":"m 55 -85 l -72 -85 l 503 987 l 629 987 l 55 -85 z "},":":{"ha":362,"x_min":43,"x_max":350,"o":"m 203 0 l 43 0 l 75 158 l 235 158 l 203 0 m 318 576 l 158 576 l 190 734 l 350 734 l 318 576 z "},";":{"ha":359,"x_min":-32,"x_max":347,"o":"m 315 576 l 155 576 l 186 734 l 347 734 l 315 576 m 208 21 l 62 -191 l -32 -191 l 56 27 l 82 159 l 235 159 l 208 21 z "},"<":{"ha":663,"x_min":47,"x_max":652,"o":"m 228 379 l 215 377 l 215 373 l 226 371 l 557 223 l 524 58 l 47 311 l 55 352 l 64 400 l 73 441 l 652 694 l 618 530 l 228 379 z "},"=":{"ha":743,"x_min":87,"x_max":716,"o":"m 689 536 l 144 536 l 172 673 l 716 673 l 689 536 m 631 248 l 87 248 l 114 385 l 659 385 l 631 248 z "},">":{"ha":680,"x_min":37,"x_max":660,"o":"m 132 532 l 164 694 l 660 441 l 652 400 l 642 352 l 634 311 l 37 58 l 69 220 l 479 374 l 492 376 l 492 380 l 481 382 l 132 532 z "},"?":{"ha":640,"x_min":122,"x_max":707,"o":"m 213 279 q 262 417 233 376 q 375 523 292 459 q 471 622 434 576 q 520 726 509 669 q 510 830 534 795 q 425 864 486 864 q 335 833 378 864 q 280 742 292 802 l 123 742 l 122 746 q 236 934 144 867 q 452 1002 328 1002 q 643 928 578 1002 q 683 728 707 854 q 606 567 664 635 q 460 433 547 498 q 403 369 418 399 q 376 279 387 338 l 213 279 m 321 0 l 157 0 l 189 158 l 353 158 l 321 0 z "},"@":{"ha":1154,"x_min":-1,"x_max":1171,"o":"m 1104 344 q 976 92 1069 197 q 735 -14 882 -14 q 661 15 691 -14 q 626 96 631 43 q 537 14 585 41 q 431 -13 489 -13 q 322 70 353 -13 q 328 282 290 152 q 471 561 377 456 q 670 666 566 666 q 779 647 736 666 q 864 594 823 629 l 861 591 l 865 591 l 755 199 q 746 104 736 130 q 783 79 756 79 q 912 155 850 79 q 1002 344 975 232 q 992 732 1062 593 q 718 871 922 871 q 389 718 539 871 q 181 324 238 566 q 195 -66 121 77 q 463 -208 269 -208 q 575 -194 514 -208 q 681 -159 637 -180 l 688 -247 q 571 -291 640 -275 q 440 -307 503 -307 q 105 -135 212 -307 q 66 324 -1 37 q 318 789 136 612 q 740 966 500 966 q 1068 795 964 966 q 1104 344 1171 625 m 461 282 q 446 145 437 192 q 496 98 454 98 q 563 115 529 98 q 630 172 597 131 q 632 185 631 178 q 636 199 634 192 l 734 550 q 706 558 721 555 q 676 562 692 562 q 553 491 607 562 q 461 282 500 420 z "},"A":{"ha":852,"x_min":-40,"x_max":782,"o":"m 591 231 l 243 231 l 123 0 l -40 0 l 494 987 l 647 987 l 782 0 l 618 0 l 591 231 m 314 368 l 576 368 l 530 777 l 526 777 l 314 368 z "},"B":{"ha":838,"x_min":44,"x_max":850,"o":"m 44 0 l 241 987 l 551 987 q 772 919 695 987 q 824 718 850 850 q 764 595 810 647 q 648 519 718 544 q 758 434 727 499 q 771 283 788 369 q 644 68 741 136 q 394 0 548 0 l 44 0 m 296 449 l 233 132 l 420 132 q 544 171 492 132 q 610 283 595 211 q 601 408 626 367 q 501 449 575 449 l 296 449 m 320 572 l 486 572 q 598 609 549 572 q 661 711 647 646 q 641 822 675 789 q 525 855 607 855 l 377 855 l 320 572 z "},"C":{"ha":827,"x_min":56,"x_max":870,"o":"m 781 319 l 782 315 q 646 72 741 159 q 396 -14 552 -14 q 150 107 243 -14 q 92 404 56 229 l 129 591 q 276 894 168 787 q 545 1002 385 1002 q 784 906 697 1002 q 851 657 870 811 l 850 654 l 692 654 q 662 812 701 755 q 528 869 622 869 q 380 791 444 869 q 292 593 315 713 l 254 404 q 271 196 228 275 q 411 117 315 117 q 544 166 494 117 q 625 319 593 216 l 781 319 z "},"D":{"ha":856,"x_min":44,"x_max":888,"o":"m 44 0 l 241 987 l 517 987 q 786 864 684 987 q 852 562 888 741 l 822 412 q 665 106 782 212 q 370 0 548 0 l 44 0 m 377 855 l 233 132 l 392 132 q 565 208 495 132 q 660 412 634 284 l 690 563 q 659 774 716 694 q 486 855 602 855 l 377 855 z "},"E":{"ha":756,"x_min":44,"x_max":861,"o":"m 692 444 l 295 444 l 233 132 l 694 132 l 668 0 l 44 0 l 241 987 l 861 987 l 834 855 l 377 855 l 321 576 l 719 576 l 692 444 z "},"F":{"ha":757,"x_min":44,"x_max":865,"o":"m 688 421 l 290 421 l 206 0 l 44 0 l 241 987 l 865 987 l 839 855 l 377 855 l 317 553 l 714 553 l 688 421 z "},"G":{"ha":878,"x_min":55,"x_max":878,"o":"m 758 134 q 616 31 709 77 q 392 -14 524 -14 q 145 100 236 -14 q 90 391 55 215 l 132 597 q 291 895 170 787 q 576 1002 413 1002 q 803 916 728 1002 q 865 692 878 830 l 863 688 l 709 688 q 677 821 712 773 q 552 869 642 869 q 391 792 467 869 q 293 598 316 714 l 252 391 q 273 190 227 263 q 418 117 319 117 q 531 136 482 117 q 604 178 581 154 l 644 376 l 469 376 l 494 499 l 831 499 l 758 134 z "},"H":{"ha":926,"x_min":44,"x_max":963,"o":"m 766 0 l 604 0 l 688 421 l 290 421 l 206 0 l 44 0 l 241 987 l 404 987 l 317 553 l 715 553 l 802 987 l 963 987 l 766 0 z "},"I":{"ha":381,"x_min":52,"x_max":411,"o":"m 214 0 l 52 0 l 249 987 l 411 987 l 214 0 z "},"J":{"ha":732,"x_min":9,"x_max":776,"o":"m 614 987 l 776 987 l 635 286 q 509 62 606 138 q 281 -14 413 -14 q 80 61 151 -14 q 40 277 9 136 l 42 280 l 199 280 q 210 154 181 191 q 307 117 239 117 q 410 163 361 117 q 473 286 458 210 l 614 987 z "},"K":{"ha":792,"x_min":33,"x_max":921,"o":"m 364 426 l 281 426 l 196 0 l 33 0 l 231 987 l 393 987 l 310 572 l 397 572 l 715 987 l 920 987 l 921 984 l 507 491 l 739 0 l 553 0 l 364 426 z "},"L":{"ha":708,"x_min":44,"x_max":651,"o":"m 233 132 l 651 132 l 625 0 l 44 0 l 241 987 l 404 987 l 233 132 z "},"M":{"ha":1140,"x_min":44,"x_max":1177,"o":"m 452 987 l 556 229 l 560 229 l 968 987 l 1177 987 l 980 0 l 818 0 l 885 336 l 983 747 l 979 749 l 566 0 l 457 0 l 344 747 l 340 747 l 273 336 l 206 0 l 44 0 l 241 987 l 452 987 z "},"N":{"ha":926,"x_min":44,"x_max":963,"o":"m 766 0 l 604 0 l 351 707 l 347 707 l 206 0 l 44 0 l 241 987 l 404 987 l 656 281 l 660 281 l 801 987 l 963 987 l 766 0 z "},"O":{"ha":890,"x_min":56,"x_max":916,"o":"m 845 400 q 687 96 806 205 q 398 -14 569 -14 q 149 110 242 -14 q 92 409 56 233 l 127 587 q 280 891 165 781 q 562 1002 395 1002 q 818 877 721 1002 q 880 578 916 753 l 845 400 m 720 579 q 692 787 745 708 q 534 866 640 866 q 379 789 445 866 q 288 588 313 711 l 253 409 q 275 200 227 279 q 425 121 324 121 q 589 198 519 121 q 684 400 659 275 l 720 579 z "},"P":{"ha":846,"x_min":44,"x_max":897,"o":"m 281 374 l 206 0 l 44 0 l 241 987 l 606 987 q 823 901 748 987 q 871 681 897 815 q 740 454 841 534 q 483 374 639 374 l 281 374 m 307 507 l 509 507 q 639 557 585 507 q 708 680 693 607 q 693 807 724 760 q 579 855 663 855 l 377 855 l 307 507 z "},"Q":{"ha":901,"x_min":57,"x_max":917,"o":"m 846 400 q 783 219 826 298 q 677 85 739 139 l 794 -60 l 669 -155 l 542 8 q 472 -8 508 -3 q 399 -14 436 -14 q 150 110 243 -14 q 93 409 57 233 l 128 587 q 281 891 167 781 q 563 1002 396 1002 q 820 877 722 1002 q 882 578 917 753 l 846 400 m 721 579 q 693 787 746 708 q 536 866 641 866 q 380 789 446 866 q 290 588 314 711 l 254 409 q 277 200 228 279 q 427 121 326 121 q 590 198 520 121 q 685 400 660 275 l 721 579 z "},"R":{"ha":863,"x_min":44,"x_max":877,"o":"m 288 410 l 207 0 l 44 0 l 241 987 l 585 987 q 803 911 729 987 q 850 700 877 836 q 786 564 833 618 q 659 477 739 510 q 752 390 728 450 q 760 245 777 330 l 744 163 q 737 77 734 117 q 759 16 739 37 l 755 0 l 589 0 q 570 71 568 22 q 583 165 572 119 l 598 244 q 585 367 614 325 q 488 410 556 410 l 288 410 m 315 542 l 488 542 q 621 581 570 542 q 687 696 671 620 q 672 815 703 775 q 558 855 641 855 l 378 855 l 315 542 z "},"S":{"ha":797,"x_min":41,"x_max":831,"o":"m 584 234 q 563 345 598 305 q 421 424 527 385 q 207 549 273 475 q 167 752 141 623 q 286 937 191 873 q 517 1002 381 1002 q 748 921 666 1002 q 800 699 831 840 l 798 695 l 642 695 q 616 822 658 774 q 491 869 574 869 q 386 836 433 869 q 329 753 338 802 q 348 645 314 680 q 501 564 382 610 q 709 439 647 512 q 745 235 771 366 q 625 47 720 109 q 388 -14 529 -14 q 141 60 241 -14 q 75 288 41 134 l 77 292 l 233 292 q 269 156 213 194 q 414 117 325 117 q 524 151 473 117 q 584 234 574 184 z "},"T":{"ha":752,"x_min":135,"x_max":870,"o":"m 844 855 l 570 855 l 399 0 l 237 0 l 408 855 l 135 855 l 161 987 l 870 987 l 844 855 z "},"U":{"ha":888,"x_min":60,"x_max":945,"o":"m 945 987 l 812 326 q 663 68 777 151 q 381 -14 548 -14 q 146 75 232 -14 q 93 326 60 164 l 225 987 l 387 987 l 255 326 q 274 166 233 215 q 408 117 316 117 q 562 170 494 117 q 650 326 630 223 l 783 987 l 945 987 z "},"V":{"ha":837,"x_min":126,"x_max":932,"o":"m 394 258 l 399 193 l 404 193 l 430 257 l 760 987 l 932 987 l 448 0 l 294 0 l 126 987 l 298 987 l 394 258 z "},"W":{"ha":1147,"x_min":138,"x_max":1224,"o":"m 810 283 l 814 283 l 1065 987 l 1224 987 l 850 0 l 703 0 l 637 695 l 633 696 l 343 0 l 195 0 l 138 987 l 298 987 l 323 285 l 328 284 l 616 987 l 745 987 l 810 283 z "},"X":{"ha":830,"x_min":-13,"x_max":904,"o":"m 467 623 l 711 987 l 904 987 l 545 498 l 756 0 l 562 0 l 430 371 l 180 0 l -13 0 l 353 498 l 151 987 l 342 987 l 467 623 z "},"Y":{"ha":819,"x_min":154,"x_max":943,"o":"m 453 524 l 457 523 l 763 987 l 943 987 l 498 345 l 429 0 l 268 0 l 339 357 l 154 987 l 335 987 l 453 524 z "},"Z":{"ha":734,"x_min":18,"x_max":772,"o":"m 219 132 l 656 132 l 629 0 l 18 0 l 20 103 l 551 855 l 165 855 l 192 987 l 772 987 l 753 888 l 219 132 z "},"[":{"ha":366,"x_min":1,"x_max":482,"o":"m 462 1009 l 361 1009 l 184 -92 l 286 -92 l 265 -220 l 1 -220 l 218 1138 l 482 1138 l 462 1009 z "},"\\":{"ha":550,"x_min":155,"x_max":481,"o":"m 155 987 l 312 987 l 481 -85 l 323 -85 l 155 987 z "},"]":{"ha":366,"x_min":-71,"x_max":411,"o":"m 146 1138 l 411 1138 l 194 -220 l -71 -220 l -50 -92 l 52 -92 l 229 1009 l 126 1009 l 146 1138 z "},"^":{"ha":560,"x_min":77,"x_max":566,"o":"m 214 494 l 77 494 l 363 987 l 477 987 l 566 494 l 430 494 l 385 774 l 384 803 l 380 804 l 368 774 l 214 494 z "},"_":{"ha":593,"x_min":-78,"x_max":530,"o":"m 504 -130 l -78 -130 l -52 0 l 530 0 l 504 -130 z "},"`":{"ha":429,"x_min":161,"x_max":431,"o":"m 431 822 l 301 822 l 161 1002 l 344 1002 l 431 822 z "},"a":{"ha":711,"x_min":26,"x_max":695,"o":"m 433 0 q 430 45 430 23 q 431 90 429 68 q 335 15 389 45 q 222 -14 280 -14 q 76 46 125 -14 q 47 207 26 107 q 157 376 69 320 q 389 432 244 432 l 496 432 l 509 496 q 497 588 521 557 q 417 619 474 619 q 332 592 369 619 q 286 522 294 564 l 131 522 l 130 526 q 235 683 144 618 q 452 747 325 747 q 630 681 565 747 q 671 495 695 614 l 606 169 q 594 80 596 120 q 597 0 591 40 l 433 0 m 284 118 q 376 142 329 118 q 450 201 422 167 l 475 329 l 366 329 q 263 293 307 329 q 210 210 219 257 q 219 141 200 165 q 284 118 237 118 z "},"b":{"ha":741,"x_min":24,"x_max":732,"o":"m 695 329 q 581 72 661 157 q 372 -14 501 -14 q 271 15 317 -14 q 197 96 226 44 l 165 0 l 24 0 l 236 1058 l 398 1058 l 321 671 q 402 728 358 708 q 498 747 447 747 q 675 631 618 747 q 698 343 732 515 l 695 329 m 536 343 q 537 539 560 465 q 435 612 513 612 q 355 586 392 612 q 289 513 318 559 l 226 198 q 271 140 239 161 q 353 120 302 120 q 469 175 425 120 q 533 329 513 229 l 536 343 z "},"c":{"ha":686,"x_min":37,"x_max":693,"o":"m 339 117 q 434 153 391 117 q 486 242 477 189 l 632 242 l 633 238 q 527 58 619 130 q 318 -14 435 -14 q 104 91 172 -14 q 63 355 37 197 l 66 378 q 190 646 93 544 q 439 747 286 747 q 626 670 559 747 q 671 474 693 592 l 670 471 l 522 471 q 505 574 532 534 q 418 615 477 615 q 292 547 338 615 q 229 378 245 478 l 225 355 q 231 182 208 248 q 339 117 254 117 z "},"d":{"ha":741,"x_min":36,"x_max":808,"o":"m 70 370 q 189 652 107 557 q 400 747 271 747 q 495 725 452 747 q 567 662 538 703 l 646 1058 l 808 1058 l 597 0 l 457 0 l 461 73 q 373 8 421 30 q 273 -14 326 -14 q 95 93 155 -14 q 67 356 36 199 l 70 370 m 230 356 q 233 184 208 248 q 336 120 258 120 q 413 144 377 120 q 477 212 448 168 l 542 536 q 496 592 527 572 q 420 612 465 612 q 302 547 349 612 q 233 370 255 481 l 230 356 z "},"e":{"ha":693,"x_min":43,"x_max":690,"o":"m 330 -14 q 116 89 189 -14 q 68 350 43 192 l 73 377 q 200 646 99 543 q 432 747 302 748 q 628 657 567 747 q 666 416 690 566 l 650 319 l 227 319 q 250 172 217 227 q 361 117 283 117 q 467 134 418 117 q 560 180 515 151 l 594 73 q 482 11 550 36 q 330 -14 414 -14 m 411 615 q 316 567 359 615 q 253 444 273 518 l 254 440 l 509 440 l 512 457 q 499 572 523 530 q 411 615 475 615 z "},"f":{"ha":464,"x_min":79,"x_max":625,"o":"m 79 0 l 201 612 l 98 612 l 122 734 l 225 734 l 243 819 q 342 1010 268 948 q 530 1072 416 1072 q 575 1068 552 1072 q 625 1058 598 1064 l 583 930 q 556 935 572 933 q 524 937 541 937 q 447 906 478 937 q 405 819 416 876 l 387 734 l 523 734 l 498 612 l 363 612 l 241 0 l 79 0 z "},"g":{"ha":740,"x_min":23,"x_max":747,"o":"m 71 370 q 191 652 109 557 q 404 747 274 747 q 505 722 460 747 q 579 649 551 696 l 608 734 l 747 734 l 604 16 q 475 -217 573 -138 q 225 -296 378 -296 q 121 -281 178 -296 q 23 -241 64 -266 l 83 -111 q 160 -144 116 -132 q 252 -156 204 -156 q 375 -110 326 -156 q 441 16 425 -64 l 450 56 q 368 4 412 22 q 276 -14 325 -14 q 98 93 158 -14 q 68 356 37 200 l 71 370 m 231 356 q 235 184 209 248 q 340 120 262 120 q 417 143 382 120 q 480 210 452 167 l 545 537 q 500 593 530 573 q 424 612 469 612 q 304 547 353 612 q 233 370 256 481 l 231 356 z "},"h":{"ha":741,"x_min":22,"x_max":722,"o":"m 314 649 q 410 722 357 696 q 521 747 463 747 q 673 672 623 747 q 692 447 722 597 l 603 0 l 441 0 l 530 448 q 526 577 549 541 q 439 612 504 612 q 361 592 399 612 q 292 536 322 572 l 184 0 l 22 0 l 234 1058 l 396 1058 l 314 649 z "},"i":{"ha":347,"x_min":35,"x_max":408,"o":"m 197 0 l 35 0 l 181 734 l 343 734 l 197 0 m 379 913 l 217 913 l 246 1058 l 408 1058 l 379 913 z "},"j":{"ha":350,"x_min":-158,"x_max":412,"o":"m 351 734 l 195 -43 q 99 -234 169 -172 q -80 -296 28 -296 q -120 -294 -101 -296 q -158 -285 -139 -291 l -123 -153 q -97 -159 -113 -157 q -70 -161 -82 -161 q -7 -132 -35 -161 q 33 -43 21 -103 l 189 734 l 351 734 m 384 916 l 221 916 l 250 1058 l 412 1058 l 384 916 z "},"k":{"ha":688,"x_min":25,"x_max":745,"o":"m 317 321 l 250 321 l 186 0 l 25 0 l 237 1058 l 398 1058 l 277 453 l 340 453 l 557 734 l 743 734 l 745 730 l 461 401 l 635 0 l 448 0 l 317 321 z "},"l":{"ha":347,"x_min":35,"x_max":408,"o":"m 197 0 l 35 0 l 246 1058 l 408 1058 l 197 0 z "},"m":{"ha":1127,"x_min":25,"x_max":1105,"o":"m 311 647 q 408 722 353 696 q 529 747 463 747 q 631 716 589 747 q 686 622 673 684 q 787 714 729 682 q 915 747 845 747 q 1058 670 1011 747 q 1076 442 1105 593 l 987 0 l 825 0 l 913 443 q 913 578 933 543 q 833 612 892 612 q 752 583 791 612 q 687 505 713 553 q 684 487 685 493 q 682 475 683 481 l 587 0 l 425 0 l 514 443 q 512 576 533 539 q 433 612 492 612 q 356 592 391 612 q 295 537 321 572 l 187 0 l 25 0 l 172 734 l 319 734 l 311 647 z "},"n":{"ha":741,"x_min":23,"x_max":723,"o":"m 307 636 q 407 719 351 690 q 526 747 463 747 q 674 676 625 747 q 694 461 723 606 l 602 0 l 440 0 l 532 460 q 527 580 549 548 q 439 612 504 612 q 360 591 399 612 q 291 531 321 569 l 185 0 l 23 0 l 170 734 l 318 734 l 307 636 z "},"o":{"ha":741,"x_min":39,"x_max":722,"o":"m 68 374 q 194 646 95 544 q 441 747 293 747 q 652 642 583 747 q 696 374 722 536 l 694 359 q 568 87 667 188 q 321 -14 469 -14 q 109 91 179 -14 q 66 359 39 197 l 68 374 m 228 359 q 236 182 210 248 q 342 117 262 117 q 466 185 416 117 q 532 359 515 254 l 534 374 q 525 549 551 484 q 420 615 498 615 q 296 546 346 615 q 230 374 246 477 l 228 359 z "},"p":{"ha":741,"x_min":-32,"x_max":730,"o":"m 694 329 q 579 72 659 158 q 372 -14 499 -14 q 273 7 317 -14 q 200 67 229 28 l 130 -282 l -32 -282 l 171 734 l 316 734 l 311 663 q 397 725 350 703 q 497 747 444 747 q 673 631 616 747 q 696 343 730 514 l 694 329 m 535 343 q 533 537 559 463 q 429 612 507 612 q 354 589 389 612 q 291 523 319 565 l 224 186 q 268 135 237 153 q 347 117 299 117 q 466 174 418 117 q 532 329 513 231 l 535 343 z "},"q":{"ha":741,"x_min":36,"x_max":739,"o":"m 70 370 q 189 652 107 557 q 400 747 271 747 q 498 723 454 747 q 571 656 543 699 l 599 734 l 739 734 l 536 -282 l 374 -282 l 441 54 q 361 3 404 20 q 273 -14 319 -14 q 95 93 155 -14 q 67 356 36 199 l 70 370 m 230 356 q 233 182 208 248 q 336 117 258 117 q 409 139 375 117 q 470 200 442 161 l 539 549 q 494 598 524 581 q 420 615 464 615 q 302 548 350 615 q 233 370 255 481 l 230 356 z "},"r":{"ha":469,"x_min":24,"x_max":542,"o":"m 492 583 l 417 586 q 345 566 377 586 q 288 509 312 545 l 186 0 l 24 0 l 171 734 l 319 734 l 310 637 q 391 719 346 690 q 488 747 436 747 q 517 745 501 747 q 542 739 533 743 l 492 583 z "},"s":{"ha":681,"x_min":28,"x_max":667,"o":"m 448 199 q 429 263 454 238 q 326 307 404 288 q 153 386 208 334 q 112 525 98 437 q 210 684 127 621 q 414 747 293 747 q 601 681 534 747 q 648 517 667 614 l 646 513 l 490 513 q 473 592 498 560 q 394 624 448 624 q 311 597 344 624 q 271 532 277 570 q 288 470 265 492 q 389 430 311 448 q 569 350 515 401 q 608 208 623 298 q 507 46 592 106 q 294 -14 421 -14 q 97 60 165 -14 q 47 227 28 134 l 49 231 l 200 231 q 226 138 192 168 q 315 109 260 109 q 405 134 370 109 q 448 199 441 159 z "},"t":{"ha":469,"x_min":84,"x_max":496,"o":"m 410 912 l 374 734 l 496 734 l 471 612 l 350 612 l 269 206 q 273 140 259 157 q 317 122 287 122 q 352 124 333 122 q 386 131 371 127 l 378 10 q 318 -8 353 -1 q 248 -14 284 -14 q 125 40 167 -14 q 107 206 84 94 l 188 612 l 85 612 l 110 734 l 212 734 l 248 912 l 410 912 z "},"u":{"ha":741,"x_min":48,"x_max":748,"o":"m 458 0 l 467 93 q 370 13 424 40 q 252 -14 316 -14 q 98 62 149 -14 q 80 295 48 139 l 168 734 l 329 734 l 241 294 q 240 155 220 191 q 317 120 259 120 q 409 142 367 120 q 480 205 450 164 l 586 734 l 748 734 l 602 0 l 458 0 z "},"v":{"ha":665,"x_min":93,"x_max":716,"o":"m 317 248 l 319 198 l 323 197 l 341 248 l 549 734 l 716 734 l 358 0 l 218 0 l 93 734 l 260 734 l 317 248 z "},"w":{"ha":971,"x_min":113,"x_max":1032,"o":"m 671 227 l 675 227 l 877 734 l 1032 734 l 700 0 l 568 0 l 526 489 l 522 490 l 285 0 l 153 0 l 113 734 l 269 734 l 273 235 l 277 235 l 514 734 l 631 734 l 671 227 z "},"x":{"ha":665,"x_min":-24,"x_max":705,"o":"m 359 487 l 363 486 l 519 734 l 705 734 l 435 371 l 593 0 l 410 0 l 328 253 l 324 254 l 161 0 l -24 0 l 254 371 l 99 734 l 283 734 l 359 487 z "},"y":{"ha":665,"x_min":-48,"x_max":739,"o":"m 313 294 l 314 234 l 318 233 l 562 734 l 739 734 l 290 -111 q 186 -242 247 -187 q 35 -296 125 -296 q -6 -292 16 -296 q -48 -283 -28 -288 l -5 -155 q 18 -157 3 -156 q 41 -159 33 -159 q 112 -126 78 -159 q 165 -58 146 -93 l 203 8 l 101 734 l 278 734 l 313 294 z "},"z":{"ha":665,"x_min":-1,"x_max":687,"o":"m 224 135 l 226 132 l 582 132 l 555 0 l -1 0 l 21 108 l 458 597 l 456 601 l 125 601 l 152 734 l 687 734 l 667 629 l 224 135 z "},"{":{"ha":441,"x_min":48,"x_max":528,"o":"m 299 -244 q 141 -125 181 -207 q 121 72 102 -44 l 142 210 q 132 321 154 283 q 48 359 109 359 l 52 384 l 67 479 q 162 519 125 479 q 210 630 199 559 l 232 768 q 315 966 251 888 q 509 1080 380 1044 l 513 1078 l 528 988 q 432 909 465 966 q 385 768 398 852 l 363 630 q 315 502 351 556 q 218 418 279 448 q 287 331 267 385 q 296 210 307 277 l 274 72 q 274 -71 259 -16 q 347 -149 290 -126 l 299 -244 z "},"|":{"ha":336,"x_min":36,"x_max":334,"o":"m 147 -183 l 36 -183 l 223 987 l 334 987 l 147 -183 z "},"}":{"ha":441,"x_min":-50,"x_max":431,"o":"m -50 -152 q 47 -74 13 -130 q 94 67 81 -18 l 116 205 q 165 337 127 281 q 268 421 203 392 q 193 504 214 451 q 184 627 172 557 l 205 763 q 204 906 220 850 q 132 983 189 961 l 180 1078 q 336 960 297 1041 q 357 763 376 879 l 336 627 q 346 516 323 553 q 431 479 369 479 l 417 388 l 416 388 l 412 359 q 316 317 353 359 q 268 205 279 276 l 246 67 q 163 -131 227 -53 q -30 -244 99 -209 l -34 -243 l -50 -152 z "},"~":{"ha":863,"x_min":78,"x_max":821,"o":"m 821 509 q 738 332 804 402 q 585 262 671 262 q 489 285 533 262 q 401 355 446 307 q 348 401 372 386 q 295 416 323 416 q 228 380 260 416 q 188 297 195 345 l 78 312 q 160 485 94 418 q 312 553 225 553 q 410 529 364 553 q 497 461 455 506 q 549 414 525 429 q 602 400 573 400 q 670 437 636 400 q 711 524 703 475 l 821 509 z "}," ":{"ha":330,"x_min":0,"x_max":0,"o":""},"¡":{"ha":355,"x_min":-16,"x_max":342,"o":"m 146 -254 l -16 -254 l 115 400 l 277 400 l 146 -254 m 311 574 l 151 574 l 182 734 l 342 734 l 311 574 z "},"¢":{"ha":733,"x_min":55,"x_max":703,"o":"m 353 117 q 448 153 405 117 q 499 242 490 189 l 646 242 l 648 238 q 559 74 635 142 q 380 -10 483 5 l 350 -166 l 217 -166 l 250 -3 q 100 124 145 26 q 77 355 55 222 l 80 378 q 185 626 103 528 q 399 743 268 725 l 429 894 l 562 894 l 530 737 q 660 642 616 713 q 688 471 703 570 l 536 471 q 518 574 546 534 q 432 615 490 615 q 305 547 352 615 q 242 378 258 478 l 239 355 q 244 182 221 248 q 353 117 268 117 z "},"£":{"ha":770,"x_min":37,"x_max":807,"o":"m 340 407 l 328 330 q 292 219 315 270 q 234 132 268 169 l 690 132 l 663 0 l 37 0 l 64 132 l 70 132 q 125 200 100 140 q 164 324 151 260 l 178 407 l 79 407 l 105 539 l 199 539 l 226 701 q 343 926 255 850 q 557 1002 431 1002 q 744 926 681 1002 q 781 733 807 851 l 779 730 l 621 730 q 610 838 636 806 q 531 869 584 869 q 444 824 484 869 q 389 701 404 779 l 362 539 l 602 539 l 576 407 l 340 407 z "},"¤":{"ha":910,"x_min":20,"x_max":954,"o":"m 643 67 q 524 7 587 27 q 398 -14 462 -14 q 287 9 339 -14 q 195 73 235 31 l 94 -18 l 20 80 l 127 176 q 100 288 106 228 q 109 412 95 347 q 152 548 123 485 q 224 663 182 612 l 155 760 l 269 857 l 335 764 q 447 818 388 800 q 568 837 507 837 q 675 816 625 837 q 766 757 726 795 l 879 858 l 954 760 l 837 654 q 865 540 859 602 q 859 412 871 479 q 817 282 844 343 q 752 172 790 222 l 818 80 l 704 -18 l 643 67 m 231 412 q 260 195 204 279 q 423 112 316 112 q 615 200 521 112 q 735 412 710 289 q 705 628 761 545 q 543 711 650 711 q 350 623 445 711 q 231 412 255 534 z "},"¥":{"ha":796,"x_min":65,"x_max":912,"o":"m 450 570 l 454 570 l 731 987 l 912 987 l 566 503 l 736 503 l 709 371 l 490 371 l 475 293 l 694 293 l 667 161 l 448 161 l 416 0 l 254 0 l 286 161 l 65 161 l 92 293 l 313 293 l 328 371 l 107 371 l 134 503 l 311 503 l 158 987 l 339 987 l 450 570 z "},"¦":{"ha":332,"x_min":-7,"x_max":380,"o":"m -7 -183 l 101 356 l 254 356 l 146 -183 l -7 -183 m 277 473 l 125 473 l 227 987 l 380 987 l 277 473 z "},"§":{"ha":811,"x_min":-34,"x_max":838,"o":"m 745 309 q 695 195 731 242 q 602 121 659 149 q 648 41 637 87 q 647 -70 660 -5 q 524 -260 621 -197 q 276 -323 427 -323 q 53 -254 140 -323 q -2 -38 -34 -184 l 0 -34 l 156 -33 q 182 -156 138 -122 q 302 -191 225 -191 q 423 -157 372 -191 q 485 -71 474 -123 q 462 13 496 -16 q 317 80 428 41 q 113 186 173 123 q 77 368 54 250 q 126 479 90 432 q 220 555 163 526 q 173 635 185 589 q 175 747 161 682 q 298 936 199 869 q 547 1002 397 1002 q 764 925 689 1002 q 808 713 838 848 l 807 710 l 650 710 q 631 826 665 783 q 521 869 598 869 q 397 834 447 869 q 338 749 348 800 q 356 660 326 686 q 505 597 387 633 q 709 489 650 552 q 745 309 768 427 m 417 456 q 368 472 390 465 q 328 488 347 479 q 271 444 293 473 q 241 378 248 415 q 259 286 229 315 q 404 219 290 258 q 453 202 433 210 q 491 189 473 195 q 550 232 526 203 q 583 298 574 260 q 560 386 593 355 q 417 456 526 416 z "},"¨":{"ha":679,"x_min":195,"x_max":681,"o":"m 659 849 l 500 849 l 523 987 l 681 987 l 659 849 m 353 849 l 195 849 l 218 987 l 375 987 l 353 849 z "},"©":{"ha":1015,"x_min":54,"x_max":1017,"o":"m 719 404 l 720 400 q 643 243 706 294 q 478 191 580 191 q 330 264 380 191 q 299 454 280 337 l 312 534 q 401 726 331 656 q 575 797 472 797 q 721 742 671 797 q 751 587 770 688 l 750 584 l 652 584 q 639 677 662 650 q 560 705 616 705 q 465 658 505 705 q 414 535 426 611 l 401 454 q 411 328 387 373 q 493 283 435 283 q 579 311 547 283 q 622 404 612 340 l 719 404 m 168 494 q 225 190 138 309 q 469 71 313 71 q 745 194 615 71 q 903 494 874 317 q 845 798 932 680 q 604 916 758 916 q 326 793 456 916 q 168 494 196 671 m 88 494 q 276 859 123 716 q 617 1001 428 1001 q 906 853 795 1001 q 983 494 1017 705 q 795 129 947 272 q 455 -14 643 -14 q 164 134 275 -14 q 88 494 54 282 z "},"ª":{"ha":583,"x_min":128,"x_max":607,"o":"m 421 479 q 419 509 419 493 q 421 543 419 526 q 355 490 393 511 q 268 469 316 469 q 163 512 198 469 q 142 624 128 554 q 218 742 158 703 q 384 781 279 781 l 467 781 l 473 815 q 470 881 482 860 q 422 901 457 901 q 358 883 385 901 q 326 834 332 865 l 219 843 l 218 847 q 290 960 229 918 q 441 1002 351 1002 q 564 952 522 1002 q 589 814 607 903 l 547 602 q 537 537 539 566 q 538 479 536 509 l 421 479 m 317 567 q 382 586 345 567 q 436 629 419 606 l 450 701 l 369 701 q 296 679 327 701 q 259 627 264 656 q 267 581 252 595 q 317 567 281 567 z "},"«":{"ha":638,"x_min":64,"x_max":643,"o":"m 203 373 l 303 102 l 193 102 l 64 367 l 65 371 l 67 380 l 302 644 l 412 644 l 203 373 m 435 373 l 534 102 l 425 102 l 296 367 l 296 371 l 298 380 l 533 644 l 643 644 l 435 373 z "},"¬":{"ha":723,"x_min":112,"x_max":664,"o":"m 641 430 l 606 254 l 473 254 l 508 430 l 112 430 l 135 546 l 664 546 l 653 494 l 654 494 l 641 430 z "},"­":{"ha":434,"x_min":62,"x_max":422,"o":"m 395 353 l 62 353 l 88 486 l 422 486 l 395 353 z "},"®":{"ha":1015,"x_min":54,"x_max":1017,"o":"m 89 494 q 276 859 124 716 q 617 1001 429 1001 q 907 853 796 1001 q 984 494 1017 705 q 795 129 948 272 q 455 -14 643 -14 q 165 134 275 -14 q 89 494 54 282 m 169 494 q 226 190 138 309 q 469 71 313 71 q 745 194 615 71 q 903 494 874 317 q 845 798 932 680 q 604 916 758 916 q 326 793 456 916 q 169 494 197 671 m 439 443 l 403 214 l 302 214 l 395 791 l 574 791 q 716 745 667 791 q 753 614 766 699 q 722 542 746 572 q 656 492 697 512 q 704 435 691 472 q 709 349 716 399 l 703 311 q 697 261 698 283 q 700 225 696 239 l 699 214 l 596 214 q 596 257 593 229 q 604 312 599 286 l 609 349 q 600 421 617 399 q 536 443 583 443 l 439 443 m 454 534 l 541 534 q 614 554 583 534 q 652 612 646 575 q 640 682 661 663 q 559 701 620 701 l 480 701 l 454 534 z "},"¯":{"ha":637,"x_min":184,"x_max":665,"o":"m 648 880 l 184 880 l 201 987 l 665 987 l 648 880 z "},"ˉ":{"ha":637,"x_min":184,"x_max":665,"o":"m 648 880 l 184 880 l 201 987 l 665 987 l 648 880 z "},"°":{"ha":497,"x_min":174,"x_max":536,"o":"m 189 819 q 263 950 203 899 q 393 1002 322 1002 q 496 947 456 1002 q 522 819 536 892 q 448 690 505 740 q 321 640 390 640 q 215 693 256 640 q 189 819 174 746 m 280 819 q 290 758 272 781 q 340 735 307 735 q 396 759 369 735 q 431 819 422 783 q 421 882 438 859 q 374 906 405 906 q 315 881 344 906 q 280 819 287 855 z "},"±":{"ha":701,"x_min":39,"x_max":693,"o":"m 479 614 l 693 614 l 671 479 l 458 479 l 416 212 l 273 212 l 315 479 l 94 479 l 115 614 l 336 614 l 378 875 l 522 875 l 479 614 m 566 0 l 39 0 l 66 133 l 592 133 l 566 0 z "},"²":{"ha":555,"x_min":112,"x_max":586,"o":"m 497 452 l 112 452 l 132 551 l 357 724 q 421 785 405 761 q 444 836 438 808 q 438 886 450 868 q 395 904 427 904 q 336 883 361 904 q 306 831 312 863 l 186 831 l 185 835 q 259 956 196 909 q 416 1003 323 1003 q 543 958 500 1003 q 571 836 586 913 q 523 740 559 777 q 391 629 487 703 l 299 555 l 300 551 l 517 551 l 497 452 z "},"³":{"ha":555,"x_min":112,"x_max":596,"o":"m 287 772 l 365 772 q 424 791 401 772 q 454 841 447 809 q 443 886 458 869 q 390 903 427 903 q 338 888 360 903 q 311 850 315 873 l 191 850 l 189 854 q 261 964 199 926 q 408 1002 323 1002 q 546 961 496 1002 q 582 847 596 920 q 545 777 574 807 q 474 729 517 746 q 532 680 514 712 q 541 604 550 648 q 461 484 525 524 q 300 444 397 444 q 165 486 218 444 q 131 602 112 527 l 132 606 l 254 606 q 264 559 247 575 q 319 543 281 543 q 382 561 355 543 q 416 608 410 578 q 407 666 424 648 q 347 684 389 684 l 269 684 l 279 736 l 281 745 l 287 772 z "},"´":{"ha":450,"x_min":163,"x_max":495,"o":"m 311 1002 l 495 1002 l 289 822 l 163 822 l 311 1002 z "},"µ":{"ha":775,"x_min":-20,"x_max":762,"o":"m 345 734 l 256 294 q 260 152 237 185 q 341 119 282 119 q 429 140 391 119 q 494 203 467 162 l 600 734 l 762 734 l 616 0 l 467 0 l 473 49 q 399 2 439 18 q 315 -14 360 -14 q 251 -5 279 -14 q 203 23 223 4 l 142 -282 l -20 -282 l 183 734 l 345 734 z "},"¶":{"ha":667,"x_min":90,"x_max":703,"o":"m 344 0 l 414 353 l 364 353 q 158 442 227 353 q 117 670 90 532 q 244 903 146 819 q 491 987 342 987 l 703 987 l 506 0 l 344 0 z "},"·":{"ha":376,"x_min":127,"x_max":318,"o":"m 286 403 l 127 403 l 159 566 l 318 566 l 286 403 z "},"¸":{"ha":342,"x_min":-30,"x_max":216,"o":"m 153 2 l 138 -35 q 196 -70 175 -42 q 206 -152 216 -98 q 132 -264 191 -226 q -26 -300 72 -302 l -30 -298 l -17 -210 q 43 -195 18 -210 q 76 -150 69 -180 q 64 -107 82 -118 q -5 -92 45 -96 l 35 2 l 153 2 z "},"¹":{"ha":368,"x_min":178,"x_max":416,"o":"m 306 451 l 178 451 l 265 884 l 186 884 l 207 986 l 416 1002 l 306 451 z "},"º":{"ha":597,"x_min":139,"x_max":635,"o":"m 174 774 q 267 941 196 881 q 439 1002 338 1002 q 584 937 534 1002 q 615 774 635 873 l 600 696 q 507 529 578 589 q 334 469 437 469 q 190 533 240 469 q 159 696 139 597 l 174 774 m 275 696 q 282 602 262 635 q 354 568 302 568 q 436 604 400 568 q 484 696 472 640 l 499 774 q 491 868 511 834 q 420 901 471 901 q 337 865 372 901 q 290 774 301 829 l 275 696 z "},"»":{"ha":638,"x_min":22,"x_max":609,"o":"m 241 644 l 369 380 l 368 376 l 368 376 l 366 367 l 132 102 l 22 102 l 230 373 l 131 644 l 241 644 m 481 644 l 609 380 l 608 376 l 608 376 l 606 367 l 372 102 l 262 102 l 470 373 l 371 644 l 481 644 z "},"¼":{"ha":984,"x_min":157,"x_max":920,"o":"m 340 450 l 213 450 l 300 884 l 221 884 l 241 985 l 450 1001 l 340 450 m 231 79 l 157 128 l 761 900 l 833 851 l 231 79 m 851 197 l 920 197 l 901 98 l 831 98 l 812 0 l 685 0 l 705 98 l 446 98 l 454 177 l 793 543 l 920 543 l 851 197 m 592 200 l 593 197 l 724 197 l 760 380 l 757 382 l 749 372 l 592 200 z "},"½":{"ha":1049,"x_min":161,"x_max":981,"o":"m 234 79 l 161 128 l 764 900 l 837 851 l 234 79 m 335 450 l 208 450 l 294 884 l 216 884 l 236 985 l 445 1001 l 335 450 m 892 0 l 507 0 l 526 98 l 752 272 q 816 332 800 309 q 838 384 833 356 q 833 434 844 416 q 789 452 822 452 q 731 431 755 452 q 701 378 707 410 l 581 378 l 580 382 q 654 504 591 457 q 811 551 718 551 q 938 506 895 551 q 966 383 981 461 q 918 288 954 324 q 786 177 882 251 l 694 102 l 695 98 l 911 98 l 892 0 z "},"¾":{"ha":1113,"x_min":114,"x_max":1037,"o":"m 355 79 l 281 128 l 885 900 l 958 851 l 355 79 m 968 197 l 1037 197 l 1017 98 l 948 98 l 928 0 l 802 0 l 821 98 l 562 98 l 571 177 l 910 543 l 1037 543 l 968 197 m 709 200 l 710 197 l 841 197 l 877 380 l 873 382 l 866 372 l 709 200 m 289 773 l 367 773 q 426 791 403 773 q 456 842 449 810 q 445 887 460 869 q 392 904 429 904 q 340 889 362 904 q 313 851 317 873 l 193 851 l 191 855 q 263 965 201 926 q 410 1003 325 1003 q 548 962 498 1003 q 584 848 598 921 q 547 777 576 808 q 476 730 519 747 q 534 681 516 713 q 543 605 552 649 q 463 485 527 524 q 302 445 399 445 q 167 486 220 445 q 133 603 114 528 l 134 607 l 256 607 q 266 559 249 576 q 321 543 283 543 q 384 561 357 543 q 418 609 412 579 q 409 667 426 649 q 349 684 391 684 l 271 684 l 281 736 l 283 746 l 289 773 z "},"¿":{"ha":659,"x_min":-18,"x_max":568,"o":"m 476 454 q 426 315 455 356 q 315 211 397 273 q 217 110 254 156 q 170 8 180 64 q 180 -96 155 -62 q 266 -130 205 -130 q 354 -99 311 -130 q 411 -7 397 -67 l 567 -7 l 568 -12 q 453 -200 545 -132 q 238 -267 361 -267 q 47 -193 112 -267 q 7 5 -18 -119 q 83 166 25 97 q 229 300 142 235 q 287 364 271 333 q 315 454 302 395 l 476 454 m 369 734 l 533 734 l 502 576 l 338 576 l 369 734 z "},"À":{"ha":852,"x_min":-40,"x_max":782,"o":"m 591 231 l 243 231 l 123 0 l -40 0 l 494 987 l 647 987 l 782 0 l 618 0 l 591 231 m 314 368 l 576 368 l 530 777 l 526 777 l 314 368 m 675 1058 l 545 1058 l 406 1238 l 588 1238 l 675 1058 z "},"Á":{"ha":852,"x_min":-40,"x_max":854,"o":"m 591 231 l 243 231 l 123 0 l -40 0 l 494 987 l 647 987 l 782 0 l 618 0 l 591 231 m 314 368 l 576 368 l 530 777 l 526 777 l 314 368 m 671 1238 l 854 1238 l 648 1057 l 522 1057 l 671 1238 z "},"Â":{"ha":852,"x_min":-40,"x_max":824,"o":"m 591 231 l 243 231 l 123 0 l -40 0 l 494 987 l 647 987 l 782 0 l 618 0 l 591 231 m 314 368 l 576 368 l 530 777 l 526 777 l 314 368 m 824 1099 l 821 1083 l 692 1083 l 623 1177 l 516 1083 l 388 1083 l 392 1101 l 594 1264 l 687 1264 l 824 1099 z "},"Ã":{"ha":852,"x_min":-40,"x_max":862,"o":"m 591 231 l 243 231 l 123 0 l -40 0 l 494 987 l 647 987 l 782 0 l 618 0 l 591 231 m 314 368 l 576 368 l 530 777 l 526 777 l 314 368 m 862 1256 q 806 1145 851 1190 q 703 1101 761 1101 q 612 1131 661 1101 q 532 1161 564 1161 q 488 1139 509 1161 q 463 1086 467 1117 l 380 1110 q 435 1222 391 1176 q 538 1268 480 1268 q 624 1238 572 1268 q 710 1208 677 1208 q 754 1230 733 1208 q 780 1282 775 1251 l 862 1256 z "},"Ä":{"ha":852,"x_min":-40,"x_max":858,"o":"m 591 231 l 243 231 l 123 0 l -40 0 l 494 987 l 647 987 l 782 0 l 618 0 l 591 231 m 314 368 l 576 368 l 530 777 l 526 777 l 314 368 m 836 1086 l 677 1086 l 700 1224 l 858 1224 l 836 1086 m 530 1086 l 372 1086 l 395 1224 l 552 1224 l 530 1086 z "},"Å":{"ha":852,"x_min":-40,"x_max":782,"o":"m 591 231 l 243 231 l 123 0 l -40 0 l 494 987 l 647 987 l 782 0 l 618 0 l 591 231 m 314 368 l 576 368 l 530 777 l 526 777 l 314 368 m 486 1178 q 545 1276 498 1239 q 650 1312 591 1312 q 736 1273 703 1312 q 758 1178 769 1234 q 700 1081 745 1116 q 597 1046 655 1046 q 509 1084 543 1046 q 486 1178 475 1121 m 558 1178 q 567 1128 552 1147 q 610 1109 582 1109 q 657 1129 635 1109 q 686 1178 680 1149 q 679 1230 693 1211 q 637 1249 665 1249 q 588 1228 612 1249 q 558 1178 564 1208 z "},"Æ":{"ha":1226,"x_min":-64,"x_max":1295,"o":"m 1136 0 l 563 0 l 600 231 l 291 231 l 130 0 l -64 0 l 659 987 l 1295 987 l 1268 854 l 862 854 l 817 577 l 1161 577 l 1135 444 l 796 444 l 746 133 l 1162 133 l 1136 0 m 623 376 l 690 795 l 686 796 l 393 376 l 623 376 z "},"Ç":{"ha":827,"x_min":56,"x_max":870,"o":"m 781 319 l 782 315 q 646 72 741 159 q 396 -14 552 -14 q 150 107 243 -14 q 92 404 56 229 l 129 591 q 276 894 168 787 q 545 1002 385 1002 q 784 906 697 1002 q 851 657 870 811 l 850 654 l 692 654 q 662 812 701 755 q 528 869 622 869 q 380 791 444 869 q 292 593 315 713 l 254 404 q 271 196 228 275 q 411 117 315 117 q 544 166 494 117 q 625 319 593 216 l 781 319 m 431 -1 l 416 -37 q 474 -73 453 -45 q 484 -155 494 -100 q 410 -267 469 -229 q 252 -303 350 -304 l 248 -301 l 261 -213 q 321 -198 296 -213 q 354 -153 347 -182 q 342 -110 360 -121 q 273 -95 323 -98 l 313 -1 l 431 -1 z "},"È":{"ha":756,"x_min":44,"x_max":861,"o":"m 692 444 l 295 444 l 233 132 l 694 132 l 668 0 l 44 0 l 241 987 l 861 987 l 834 855 l 377 855 l 321 576 l 719 576 l 692 444 m 623 1058 l 493 1058 l 353 1238 l 536 1238 l 623 1058 z "},"É":{"ha":756,"x_min":44,"x_max":861,"o":"m 692 444 l 295 444 l 233 132 l 694 132 l 668 0 l 44 0 l 241 987 l 861 987 l 834 855 l 377 855 l 321 576 l 719 576 l 692 444 m 618 1238 l 802 1238 l 596 1057 l 470 1057 l 618 1238 z "},"Ê":{"ha":756,"x_min":44,"x_max":861,"o":"m 692 444 l 295 444 l 233 132 l 694 132 l 668 0 l 44 0 l 241 987 l 861 987 l 834 855 l 377 855 l 321 576 l 719 576 l 692 444 m 772 1099 l 768 1083 l 640 1083 l 570 1177 l 464 1083 l 336 1083 l 340 1101 l 542 1264 l 635 1264 l 772 1099 z "},"Ë":{"ha":756,"x_min":44,"x_max":861,"o":"m 692 444 l 295 444 l 233 132 l 694 132 l 668 0 l 44 0 l 241 987 l 861 987 l 834 855 l 377 855 l 321 576 l 719 576 l 692 444 m 783 1086 l 625 1086 l 648 1224 l 806 1224 l 783 1086 m 477 1086 l 320 1086 l 342 1224 l 500 1224 l 477 1086 z "},"Ì":{"ha":381,"x_min":52,"x_max":421,"o":"m 214 0 l 52 0 l 249 987 l 411 987 l 214 0 m 421 1058 l 292 1058 l 152 1238 l 334 1238 l 421 1058 z "},"Í":{"ha":381,"x_min":52,"x_max":600,"o":"m 214 0 l 52 0 l 249 987 l 411 987 l 214 0 m 416 1238 l 600 1238 l 393 1057 l 267 1057 l 416 1238 z "},"Î":{"ha":381,"x_min":52,"x_max":570,"o":"m 214 0 l 52 0 l 249 987 l 411 987 l 214 0 m 570 1099 l 567 1083 l 438 1083 l 369 1177 l 262 1083 l 134 1083 l 138 1101 l 340 1264 l 433 1264 l 570 1099 z "},"Ï":{"ha":381,"x_min":52,"x_max":604,"o":"m 214 0 l 52 0 l 249 987 l 411 987 l 214 0 m 582 1086 l 424 1086 l 446 1224 l 604 1224 l 582 1086 m 276 1086 l 119 1086 l 141 1224 l 298 1224 l 276 1086 z "},"Ð":{"ha":876,"x_min":56,"x_max":908,"o":"m 64 0 l 153 446 l 56 446 l 79 561 l 176 561 l 262 987 l 538 987 q 806 864 704 987 q 873 562 908 741 l 842 412 q 685 106 802 212 q 391 0 568 0 l 64 0 m 472 446 l 315 446 l 253 132 l 412 132 q 585 208 515 132 q 680 412 654 284 l 711 563 q 680 774 736 694 q 507 855 623 855 l 397 855 l 338 561 l 495 561 l 472 446 z "},"Ñ":{"ha":926,"x_min":44,"x_max":963,"o":"m 766 0 l 604 0 l 351 707 l 347 707 l 206 0 l 44 0 l 241 987 l 404 987 l 656 281 l 660 281 l 801 987 l 963 987 l 766 0 m 878 1256 q 822 1145 867 1190 q 719 1101 777 1101 q 629 1131 677 1101 q 548 1161 581 1161 q 504 1139 525 1161 q 479 1086 484 1117 l 397 1110 q 452 1222 407 1176 q 555 1268 496 1268 q 641 1238 588 1268 q 726 1208 693 1208 q 770 1230 749 1208 q 796 1282 791 1251 l 878 1256 z "},"Ò":{"ha":890,"x_min":56,"x_max":916,"o":"m 845 400 q 687 96 806 205 q 398 -14 569 -14 q 149 110 242 -14 q 92 409 56 233 l 127 587 q 280 891 165 781 q 562 1002 395 1002 q 818 877 721 1002 q 880 578 916 753 l 845 400 m 720 579 q 692 787 745 708 q 534 866 640 866 q 379 789 445 866 q 288 588 313 711 l 253 409 q 275 200 227 279 q 425 121 324 121 q 589 198 519 121 q 684 400 659 275 l 720 579 m 679 1072 l 549 1072 l 410 1253 l 592 1253 l 679 1072 z "},"Ó":{"ha":890,"x_min":56,"x_max":916,"o":"m 845 400 q 687 96 806 205 q 398 -14 569 -14 q 149 110 242 -14 q 92 409 56 233 l 127 587 q 280 891 165 781 q 562 1002 395 1002 q 818 877 721 1002 q 880 578 916 753 l 845 400 m 720 579 q 692 787 745 708 q 534 866 640 866 q 379 789 445 866 q 288 588 313 711 l 253 409 q 275 200 227 279 q 425 121 324 121 q 589 198 519 121 q 684 400 659 275 l 720 579 m 675 1252 l 859 1252 l 652 1072 l 526 1072 l 675 1252 z "},"Ô":{"ha":890,"x_min":56,"x_max":916,"o":"m 845 400 q 687 96 806 205 q 398 -14 569 -14 q 149 110 242 -14 q 92 409 56 233 l 127 587 q 280 891 165 781 q 562 1002 395 1002 q 818 877 721 1002 q 880 578 916 753 l 845 400 m 720 579 q 692 787 745 708 q 534 866 640 866 q 379 789 445 866 q 288 588 313 711 l 253 409 q 275 200 227 279 q 425 121 324 121 q 589 198 519 121 q 684 400 659 275 l 720 579 m 828 1114 l 825 1097 l 696 1097 l 627 1192 l 520 1097 l 392 1097 l 396 1115 l 598 1278 l 691 1278 l 828 1114 z "},"Õ":{"ha":890,"x_min":56,"x_max":916,"o":"m 845 400 q 687 96 806 205 q 398 -14 569 -14 q 149 110 242 -14 q 92 409 56 233 l 127 587 q 280 891 165 781 q 562 1002 395 1002 q 818 877 721 1002 q 880 578 916 753 l 845 400 m 720 579 q 692 787 745 708 q 534 866 640 866 q 379 789 445 866 q 288 588 313 711 l 253 409 q 275 200 227 279 q 425 121 324 121 q 589 198 519 121 q 684 400 659 275 l 720 579 m 866 1270 q 810 1159 855 1204 q 707 1115 765 1115 q 616 1145 665 1115 q 536 1175 568 1175 q 492 1153 513 1175 q 467 1101 471 1131 l 385 1124 q 439 1236 395 1190 q 543 1282 484 1282 q 628 1252 576 1282 q 714 1222 681 1222 q 758 1244 737 1222 q 784 1297 779 1265 l 866 1270 z "},"Ö":{"ha":890,"x_min":56,"x_max":916,"o":"m 845 400 q 687 96 806 205 q 398 -14 569 -14 q 149 110 242 -14 q 92 409 56 233 l 127 587 q 280 891 165 781 q 562 1002 395 1002 q 818 877 721 1002 q 880 578 916 753 l 845 400 m 720 579 q 692 787 745 708 q 534 866 640 866 q 379 789 445 866 q 288 588 313 711 l 253 409 q 275 200 227 279 q 425 121 324 121 q 589 198 519 121 q 684 400 659 275 l 720 579 m 840 1100 l 682 1100 l 704 1238 l 862 1238 l 840 1100 m 534 1100 l 376 1100 l 399 1238 l 556 1238 l 534 1100 z "},"×":{"ha":697,"x_min":43,"x_max":720,"o":"m 43 247 l 285 465 l 129 684 l 248 785 l 401 569 l 642 785 l 720 684 l 476 465 l 631 247 l 513 145 l 359 359 l 121 145 l 43 247 z "},"Ø":{"ha":894,"x_min":37,"x_max":948,"o":"m 847 405 q 681 99 808 212 q 381 -14 553 -14 q 289 -1 332 -14 q 210 38 245 12 l 134 -64 l 37 -64 l 153 92 q 89 230 106 149 q 92 405 73 311 l 127 583 q 290 888 165 774 q 583 1002 415 1002 q 690 984 640 1002 q 780 934 740 966 l 851 1029 l 948 1029 l 833 876 q 886 742 873 818 q 883 583 899 667 l 847 405 m 253 405 q 243 308 242 353 q 254 234 243 264 l 258 233 l 689 812 q 632 852 666 838 q 556 866 599 866 q 389 785 465 866 q 289 584 313 705 l 253 405 m 722 584 q 731 661 730 625 q 726 724 732 697 l 722 726 l 298 157 q 346 130 319 139 q 408 121 374 121 q 582 202 503 121 q 686 405 661 283 l 722 584 z "},"Ù":{"ha":888,"x_min":60,"x_max":945,"o":"m 945 987 l 812 326 q 663 68 777 151 q 381 -14 548 -14 q 146 75 232 -14 q 93 326 60 164 l 225 987 l 387 987 l 255 326 q 274 166 233 215 q 408 117 316 117 q 562 170 494 117 q 650 326 630 223 l 783 987 l 945 987 m 675 1058 l 545 1058 l 406 1238 l 588 1238 l 675 1058 z "},"Ú":{"ha":888,"x_min":60,"x_max":945,"o":"m 945 987 l 812 326 q 663 68 777 151 q 381 -14 548 -14 q 146 75 232 -14 q 93 326 60 164 l 225 987 l 387 987 l 255 326 q 274 166 233 215 q 408 117 316 117 q 562 170 494 117 q 650 326 630 223 l 783 987 l 945 987 m 671 1238 l 854 1238 l 648 1057 l 522 1057 l 671 1238 z "},"Û":{"ha":888,"x_min":60,"x_max":945,"o":"m 945 987 l 812 326 q 663 68 777 151 q 381 -14 548 -14 q 146 75 232 -14 q 93 326 60 164 l 225 987 l 387 987 l 255 326 q 274 166 233 215 q 408 117 316 117 q 562 170 494 117 q 650 326 630 223 l 783 987 l 945 987 m 824 1099 l 821 1083 l 692 1083 l 623 1177 l 516 1083 l 388 1083 l 392 1101 l 594 1264 l 687 1264 l 824 1099 z "},"Ü":{"ha":888,"x_min":60,"x_max":945,"o":"m 945 987 l 812 326 q 663 68 777 151 q 381 -14 548 -14 q 146 75 232 -14 q 93 326 60 164 l 225 987 l 387 987 l 255 326 q 274 166 233 215 q 408 117 316 117 q 562 170 494 117 q 650 326 630 223 l 783 987 l 945 987 m 836 1086 l 677 1086 l 700 1224 l 858 1224 l 836 1086 m 530 1086 l 372 1086 l 395 1224 l 552 1224 l 530 1086 z "},"Ý":{"ha":819,"x_min":154,"x_max":943,"o":"m 453 524 l 457 523 l 763 987 l 943 987 l 498 345 l 429 0 l 268 0 l 339 357 l 154 987 l 335 987 l 453 524 m 637 1238 l 821 1238 l 614 1057 l 488 1057 l 637 1238 z "},"Þ":{"ha":781,"x_min":37,"x_max":800,"o":"m 396 987 l 358 798 l 507 798 q 726 714 651 798 q 775 500 800 630 q 646 281 746 359 q 389 203 546 203 l 239 203 l 199 0 l 37 0 l 234 987 l 396 987 m 332 667 l 266 336 l 415 336 q 545 384 492 336 q 612 499 599 432 q 596 620 627 574 q 481 665 564 665 l 333 665 l 332 667 z "},"ß":{"ha":802,"x_min":31,"x_max":760,"o":"m 192 0 l 31 0 l 179 741 q 304 983 211 903 q 530 1063 397 1063 q 693 1000 633 1063 q 732 821 754 937 q 664 670 715 736 q 606 562 614 603 q 677 416 595 510 q 741 230 760 323 q 636 43 715 100 q 428 -14 558 -14 q 327 -2 379 -14 q 255 28 275 9 l 314 161 q 371 131 336 144 q 446 117 406 117 q 533 146 498 117 q 577 222 568 175 q 506 371 589 279 q 443 559 423 463 q 509 692 455 623 q 574 810 564 761 q 562 899 585 868 q 500 930 540 930 q 403 880 449 930 q 340 740 357 829 l 192 0 z "},"à":{"ha":711,"x_min":26,"x_max":695,"o":"m 433 0 q 430 45 430 23 q 431 90 429 68 q 335 15 389 45 q 222 -14 280 -14 q 76 46 125 -14 q 47 207 26 107 q 157 376 69 320 q 389 432 244 432 l 496 432 l 509 496 q 497 588 521 557 q 417 619 474 619 q 332 592 369 619 q 286 522 294 564 l 131 522 l 130 526 q 235 683 144 618 q 452 747 325 747 q 630 681 565 747 q 671 495 695 614 l 606 169 q 594 80 596 120 q 597 0 591 40 l 433 0 m 284 118 q 376 142 329 118 q 450 201 422 167 l 475 329 l 366 329 q 263 293 307 329 q 210 210 219 257 q 219 141 200 165 q 284 118 237 118 m 538 840 l 408 840 l 269 1020 l 451 1020 l 538 840 z "},"á":{"ha":711,"x_min":26,"x_max":718,"o":"m 433 0 q 430 45 430 23 q 431 90 429 68 q 335 15 389 45 q 222 -14 280 -14 q 76 46 125 -14 q 47 207 26 107 q 157 376 69 320 q 389 432 244 432 l 496 432 l 509 496 q 497 588 521 557 q 417 619 474 619 q 332 592 369 619 q 286 522 294 564 l 131 522 l 130 526 q 235 683 144 618 q 452 747 325 747 q 630 681 565 747 q 671 495 695 614 l 606 169 q 594 80 596 120 q 597 0 591 40 l 433 0 m 284 118 q 376 142 329 118 q 450 201 422 167 l 475 329 l 366 329 q 263 293 307 329 q 210 210 219 257 q 219 141 200 165 q 284 118 237 118 m 534 1019 l 718 1019 l 511 839 l 385 839 l 534 1019 z "},"â":{"ha":711,"x_min":26,"x_max":695,"o":"m 433 0 q 430 45 430 23 q 431 90 429 68 q 335 15 389 45 q 222 -14 280 -14 q 76 46 125 -14 q 47 207 26 107 q 157 376 69 320 q 389 432 244 432 l 496 432 l 509 496 q 497 588 521 557 q 417 619 474 619 q 332 592 369 619 q 286 522 294 564 l 131 522 l 130 526 q 235 683 144 618 q 452 747 325 747 q 630 681 565 747 q 671 495 695 614 l 606 169 q 594 80 596 120 q 597 0 591 40 l 433 0 m 284 118 q 376 142 329 118 q 450 201 422 167 l 475 329 l 366 329 q 263 293 307 329 q 210 210 219 257 q 219 141 200 165 q 284 118 237 118 m 687 881 l 684 865 l 555 865 l 486 959 l 379 865 l 251 865 l 255 882 l 457 1046 l 550 1046 l 687 881 z "},"ã":{"ha":711,"x_min":26,"x_max":725,"o":"m 433 0 q 430 45 430 23 q 431 90 429 68 q 335 15 389 45 q 222 -14 280 -14 q 76 46 125 -14 q 47 207 26 107 q 157 376 69 320 q 389 432 244 432 l 496 432 l 509 496 q 497 588 521 557 q 417 619 474 619 q 332 592 369 619 q 286 522 294 564 l 131 522 l 130 526 q 235 683 144 618 q 452 747 325 747 q 630 681 565 747 q 671 495 695 614 l 606 169 q 594 80 596 120 q 597 0 591 40 l 433 0 m 284 118 q 376 142 329 118 q 450 201 422 167 l 475 329 l 366 329 q 263 293 307 329 q 210 210 219 257 q 219 141 200 165 q 284 118 237 118 m 725 1038 q 669 927 714 971 q 566 882 624 882 q 475 912 524 882 q 395 943 427 943 q 351 921 372 943 q 326 868 330 899 l 243 892 q 298 1004 254 958 q 401 1050 343 1050 q 487 1020 435 1050 q 573 989 540 989 q 617 1011 596 989 q 643 1064 638 1033 l 725 1038 z "},"ä":{"ha":711,"x_min":26,"x_max":721,"o":"m 433 0 q 430 45 430 23 q 431 90 429 68 q 335 15 389 45 q 222 -14 280 -14 q 76 46 125 -14 q 47 207 26 107 q 157 376 69 320 q 389 432 244 432 l 496 432 l 509 496 q 497 588 521 557 q 417 619 474 619 q 332 592 369 619 q 286 522 294 564 l 131 522 l 130 526 q 235 683 144 618 q 452 747 325 747 q 630 681 565 747 q 671 495 695 614 l 606 169 q 594 80 596 120 q 597 0 591 40 l 433 0 m 284 118 q 376 142 329 118 q 450 201 422 167 l 475 329 l 366 329 q 263 293 307 329 q 210 210 219 257 q 219 141 200 165 q 284 118 237 118 m 699 867 l 541 867 l 563 1006 l 721 1006 l 699 867 m 393 867 l 235 867 l 258 1006 l 415 1006 l 393 867 z "},"å":{"ha":711,"x_min":26,"x_max":695,"o":"m 433 0 q 430 45 430 23 q 431 90 429 68 q 335 15 389 45 q 222 -14 280 -14 q 76 46 125 -14 q 47 207 26 107 q 157 376 69 320 q 389 432 244 432 l 496 432 l 509 496 q 497 588 521 557 q 417 619 474 619 q 332 592 369 619 q 286 522 294 564 l 131 522 l 130 526 q 235 683 144 618 q 452 747 325 747 q 630 681 565 747 q 671 495 695 614 l 606 169 q 594 80 596 120 q 597 0 591 40 l 433 0 m 284 118 q 376 142 329 118 q 450 201 422 167 l 475 329 l 366 329 q 263 293 307 329 q 210 210 219 257 q 219 141 200 165 q 284 118 237 118 m 349 960 q 408 1057 361 1021 q 513 1094 454 1094 q 599 1055 566 1094 q 621 960 632 1016 q 563 863 608 898 q 460 828 518 828 q 372 865 406 828 q 349 960 338 903 m 421 960 q 430 910 415 928 q 473 891 445 891 q 520 911 498 891 q 549 960 543 930 q 542 1011 556 992 q 500 1030 528 1030 q 451 1010 475 1030 q 421 960 427 989 z "},"æ":{"ha":1097,"x_min":-1,"x_max":1112,"o":"m 733 -14 q 596 17 655 -14 q 505 104 538 47 q 382 20 458 54 q 213 -14 307 -14 q 52 47 106 -14 q 18 212 -1 109 q 127 380 41 326 q 363 435 214 435 l 490 435 l 499 484 q 491 582 512 549 q 418 615 470 615 q 326 584 366 615 q 277 510 286 553 l 125 522 l 123 526 q 229 688 141 628 q 446 747 316 747 q 555 726 507 747 q 633 664 604 705 q 739 726 681 705 q 861 747 797 747 q 1050 657 989 747 q 1081 415 1112 566 l 1062 319 l 633 319 q 650 170 618 222 q 769 117 682 117 q 872 134 827 117 q 972 180 918 151 l 998 68 q 887 12 957 37 q 733 -14 818 -14 m 270 111 q 358 136 307 111 q 441 193 409 161 l 467 322 l 342 322 q 235 289 281 322 q 181 209 190 255 q 193 137 172 162 q 270 111 214 111 m 835 615 q 730 566 777 615 q 662 439 684 517 l 664 435 l 925 435 l 929 456 q 922 573 944 532 q 835 615 901 615 z "},"ç":{"ha":686,"x_min":37,"x_max":693,"o":"m 339 117 q 434 153 391 117 q 486 242 477 189 l 632 242 l 633 238 q 527 58 619 130 q 318 -14 435 -14 q 104 91 172 -14 q 63 355 37 197 l 66 378 q 190 646 93 544 q 439 747 286 747 q 626 670 559 747 q 671 474 693 592 l 670 471 l 522 471 q 505 574 532 534 q 418 615 477 615 q 292 547 338 615 q 229 378 245 478 l 225 355 q 231 182 208 248 q 339 117 254 117 m 361 -1 l 346 -37 q 404 -73 383 -45 q 414 -155 425 -100 q 340 -267 399 -229 q 182 -303 280 -304 l 178 -301 l 191 -213 q 252 -198 226 -213 q 284 -153 277 -182 q 272 -110 290 -121 q 203 -95 254 -98 l 243 -1 l 361 -1 z "},"è":{"ha":693,"x_min":43,"x_max":690,"o":"m 330 -14 q 116 89 189 -14 q 68 350 43 192 l 73 377 q 200 646 99 543 q 432 747 302 748 q 628 657 567 747 q 666 416 690 566 l 650 319 l 227 319 q 250 172 217 227 q 361 117 283 117 q 467 134 418 117 q 560 180 515 151 l 594 73 q 482 11 550 36 q 330 -14 414 -14 m 411 615 q 316 567 359 615 q 253 444 273 518 l 254 440 l 509 440 l 512 457 q 499 572 523 530 q 411 615 475 615 m 513 840 l 383 840 l 243 1021 l 426 1021 l 513 840 z "},"é":{"ha":693,"x_min":43,"x_max":692,"o":"m 330 -14 q 116 89 189 -14 q 68 350 43 192 l 73 377 q 200 646 99 543 q 432 747 302 748 q 628 657 567 747 q 666 416 690 566 l 650 319 l 227 319 q 250 172 217 227 q 361 117 283 117 q 467 134 418 117 q 560 180 515 151 l 594 73 q 482 11 550 36 q 330 -14 414 -14 m 411 615 q 316 567 359 615 q 253 444 273 518 l 254 440 l 509 440 l 512 457 q 499 572 523 530 q 411 615 475 615 m 509 1020 l 692 1020 l 486 840 l 360 840 l 509 1020 z "},"ê":{"ha":693,"x_min":43,"x_max":690,"o":"m 330 -14 q 116 89 189 -14 q 68 350 43 192 l 73 377 q 200 646 99 543 q 432 747 302 748 q 628 657 567 747 q 666 416 690 566 l 650 319 l 227 319 q 250 172 217 227 q 361 117 283 117 q 467 134 418 117 q 560 180 515 151 l 594 73 q 482 11 550 36 q 330 -14 414 -14 m 411 615 q 316 567 359 615 q 253 444 273 518 l 254 440 l 509 440 l 512 457 q 499 572 523 530 q 411 615 475 615 m 662 882 l 659 865 l 530 865 l 460 960 l 354 865 l 226 865 l 230 883 l 432 1046 l 525 1046 l 662 882 z "},"ë":{"ha":693,"x_min":43,"x_max":696,"o":"m 330 -14 q 116 89 189 -14 q 68 350 43 192 l 73 377 q 200 646 99 543 q 432 747 302 748 q 628 657 567 747 q 666 416 690 566 l 650 319 l 227 319 q 250 172 217 227 q 361 117 283 117 q 467 134 418 117 q 560 180 515 151 l 594 73 q 482 11 550 36 q 330 -14 414 -14 m 411 615 q 316 567 359 615 q 253 444 273 518 l 254 440 l 509 440 l 512 457 q 499 572 523 530 q 411 615 475 615 m 673 868 l 515 868 l 538 1006 l 696 1006 l 673 868 m 368 868 l 210 868 l 233 1006 l 390 1006 l 368 868 z "},"ì":{"ha":353,"x_min":34,"x_max":358,"o":"m 197 0 l 34 0 l 180 734 l 343 734 l 197 0 m 358 825 l 229 825 l 89 1006 l 271 1006 l 358 825 z "},"í":{"ha":353,"x_min":34,"x_max":536,"o":"m 197 0 l 34 0 l 180 734 l 343 734 l 197 0 m 353 1005 l 536 1005 l 330 825 l 204 825 l 353 1005 z "},"î":{"ha":353,"x_min":34,"x_max":507,"o":"m 197 0 l 34 0 l 180 734 l 343 734 l 197 0 m 507 867 l 504 850 l 375 850 l 306 945 l 199 850 l 71 850 l 75 868 l 277 1031 l 370 1031 l 507 867 z "},"ï":{"ha":353,"x_min":34,"x_max":541,"o":"m 197 0 l 34 0 l 180 734 l 343 734 l 197 0 m 519 853 l 361 853 l 383 991 l 541 991 l 519 853 m 213 853 l 56 853 l 78 991 l 235 991 l 213 853 z "},"ð":{"ha":771,"x_min":16,"x_max":812,"o":"m 675 870 q 742 680 727 789 q 732 440 758 571 l 720 381 q 568 91 682 195 q 307 -14 453 -14 q 93 83 171 -14 q 44 317 16 180 q 180 570 76 481 q 427 660 283 660 q 514 641 473 660 q 582 589 555 621 l 585 591 q 571 703 585 653 q 530 791 556 753 l 351 694 l 314 768 l 468 851 q 428 875 449 864 q 382 896 406 886 l 458 1029 q 547 991 506 1015 q 623 935 589 968 l 776 1018 l 812 944 l 675 870 m 570 441 l 573 459 q 518 512 558 491 q 415 532 477 532 q 284 470 345 532 q 207 317 224 408 q 223 174 189 231 q 336 117 257 117 q 471 193 407 117 q 557 381 535 269 l 570 441 z "},"ñ":{"ha":741,"x_min":23,"x_max":741,"o":"m 307 636 q 407 719 351 690 q 526 747 463 747 q 674 676 625 747 q 694 461 723 606 l 602 0 l 440 0 l 532 460 q 527 580 549 548 q 439 612 504 612 q 360 591 399 612 q 291 531 321 569 l 185 0 l 23 0 l 170 734 l 318 734 l 307 636 m 741 1038 q 685 927 730 971 q 582 882 640 882 q 492 912 540 882 q 411 943 444 943 q 367 921 388 943 q 342 868 347 899 l 260 892 q 315 1004 270 958 q 418 1050 359 1050 q 504 1020 451 1050 q 589 989 556 989 q 633 1011 612 989 q 659 1064 654 1033 l 741 1038 z "},"ò":{"ha":741,"x_min":39,"x_max":722,"o":"m 68 374 q 194 646 95 544 q 441 747 293 747 q 652 642 583 747 q 696 374 722 536 l 694 359 q 568 87 667 188 q 321 -14 469 -14 q 109 91 179 -14 q 66 359 39 197 l 68 374 m 228 359 q 236 182 210 248 q 342 117 262 117 q 466 185 416 117 q 532 359 515 254 l 534 374 q 525 549 551 484 q 420 615 498 615 q 296 546 346 615 q 230 374 246 477 l 228 359 m 530 840 l 400 840 l 260 1020 l 443 1020 l 530 840 z "},"ó":{"ha":741,"x_min":39,"x_max":722,"o":"m 68 374 q 194 646 95 544 q 441 747 293 747 q 652 642 583 747 q 696 374 722 536 l 694 359 q 568 87 667 188 q 321 -14 469 -14 q 109 91 179 -14 q 66 359 39 197 l 68 374 m 228 359 q 236 182 210 248 q 342 117 262 117 q 466 185 416 117 q 532 359 515 254 l 534 374 q 525 549 551 484 q 420 615 498 615 q 296 546 346 615 q 230 374 246 477 l 228 359 m 526 1019 l 709 1019 l 503 839 l 377 839 l 526 1019 z "},"ô":{"ha":741,"x_min":39,"x_max":722,"o":"m 68 374 q 194 646 95 544 q 441 747 293 747 q 652 642 583 747 q 696 374 722 536 l 694 359 q 568 87 667 188 q 321 -14 469 -14 q 109 91 179 -14 q 66 359 39 197 l 68 374 m 228 359 q 236 182 210 248 q 342 117 262 117 q 466 185 416 117 q 532 359 515 254 l 534 374 q 525 549 551 484 q 420 615 498 615 q 296 546 346 615 q 230 374 246 477 l 228 359 m 679 881 l 675 865 l 547 865 l 477 959 l 371 865 l 243 865 l 247 882 l 449 1046 l 542 1046 l 679 881 z "},"õ":{"ha":741,"x_min":39,"x_max":722,"o":"m 68 374 q 194 646 95 544 q 441 747 293 747 q 652 642 583 747 q 696 374 722 536 l 694 359 q 568 87 667 188 q 321 -14 469 -14 q 109 91 179 -14 q 66 359 39 197 l 68 374 m 228 359 q 236 182 210 248 q 342 117 262 117 q 466 185 416 117 q 532 359 515 254 l 534 374 q 525 549 551 484 q 420 615 498 615 q 296 546 346 615 q 230 374 246 477 l 228 359 m 717 1038 q 661 927 706 971 q 557 882 616 882 q 467 912 515 882 q 387 943 419 943 q 343 921 363 943 q 317 868 322 899 l 235 892 q 290 1004 245 958 q 393 1050 335 1050 q 479 1020 427 1050 q 565 989 532 989 q 609 1011 588 989 q 635 1064 630 1033 l 717 1038 z "},"ö":{"ha":741,"x_min":39,"x_max":722,"o":"m 68 374 q 194 646 95 544 q 441 747 293 747 q 652 642 583 747 q 696 374 722 536 l 694 359 q 568 87 667 188 q 321 -14 469 -14 q 109 91 179 -14 q 66 359 39 197 l 68 374 m 228 359 q 236 182 210 248 q 342 117 262 117 q 466 185 416 117 q 532 359 515 254 l 534 374 q 525 549 551 484 q 420 615 498 615 q 296 546 346 615 q 230 374 246 477 l 228 359 m 690 867 l 532 867 l 555 1006 l 713 1006 l 690 867 m 385 867 l 227 867 l 250 1006 l 407 1006 l 385 867 z "},"÷":{"ha":745,"x_min":66,"x_max":734,"o":"m 705 395 l 66 395 l 96 538 l 734 538 l 705 395 m 522 668 l 361 668 l 391 818 l 551 818 l 522 668 m 411 115 l 251 115 l 281 265 l 441 265 l 411 115 z "},"ø":{"ha":741,"x_min":42,"x_max":738,"o":"m 68 374 q 194 646 95 544 q 441 747 293 747 q 511 739 478 747 q 573 715 544 730 l 643 822 l 738 822 l 635 665 q 694 538 678 614 q 696 374 710 463 l 694 359 q 568 87 667 188 q 321 -14 469 -14 q 259 -8 288 -14 q 204 9 229 -1 l 136 -94 l 42 -94 l 139 54 q 69 183 88 104 q 66 359 50 263 l 68 374 m 228 359 q 220 268 219 309 q 231 201 220 227 l 235 200 l 492 593 q 460 609 478 604 q 420 615 442 615 q 296 546 346 615 q 230 374 246 477 l 228 359 m 534 374 q 541 449 541 414 q 536 507 541 484 l 532 509 l 283 130 q 309 120 294 123 q 342 117 324 117 q 466 185 416 117 q 532 359 515 254 l 534 374 z "},"ù":{"ha":741,"x_min":48,"x_max":748,"o":"m 458 0 l 467 93 q 370 13 424 40 q 252 -14 316 -14 q 98 62 149 -14 q 80 295 48 139 l 168 734 l 329 734 l 241 294 q 240 155 220 191 q 317 120 259 120 q 409 142 367 120 q 480 205 450 164 l 586 734 l 748 734 l 602 0 l 458 0 m 551 825 l 422 825 l 282 1006 l 465 1006 l 551 825 z "},"ú":{"ha":741,"x_min":48,"x_max":748,"o":"m 458 0 l 467 93 q 370 13 424 40 q 252 -14 316 -14 q 98 62 149 -14 q 80 295 48 139 l 168 734 l 329 734 l 241 294 q 240 155 220 191 q 317 120 259 120 q 409 142 367 120 q 480 205 450 164 l 586 734 l 748 734 l 602 0 l 458 0 m 547 1005 l 731 1005 l 525 825 l 399 825 l 547 1005 z "},"û":{"ha":741,"x_min":48,"x_max":748,"o":"m 458 0 l 467 93 q 370 13 424 40 q 252 -14 316 -14 q 98 62 149 -14 q 80 295 48 139 l 168 734 l 329 734 l 241 294 q 240 155 220 191 q 317 120 259 120 q 409 142 367 120 q 480 205 450 164 l 586 734 l 748 734 l 602 0 l 458 0 m 701 867 l 697 850 l 568 850 l 499 945 l 393 850 l 264 850 l 269 868 l 471 1031 l 564 1031 l 701 867 z "},"ü":{"ha":741,"x_min":48,"x_max":748,"o":"m 458 0 l 467 93 q 370 13 424 40 q 252 -14 316 -14 q 98 62 149 -14 q 80 295 48 139 l 168 734 l 329 734 l 241 294 q 240 155 220 191 q 317 120 259 120 q 409 142 367 120 q 480 205 450 164 l 586 734 l 748 734 l 602 0 l 458 0 m 712 853 l 554 853 l 576 991 l 734 991 l 712 853 m 406 853 l 249 853 l 271 991 l 429 991 l 406 853 z "},"ý":{"ha":665,"x_min":-48,"x_max":739,"o":"m 313 294 l 314 234 l 318 233 l 562 734 l 739 734 l 290 -111 q 186 -242 247 -187 q 35 -296 125 -296 q -6 -292 16 -296 q -48 -283 -28 -288 l -5 -155 q 18 -157 3 -156 q 41 -159 33 -159 q 112 -126 78 -159 q 165 -58 146 -93 l 203 8 l 101 734 l 278 734 l 313 294 m 510 1005 l 694 1005 l 488 825 l 361 825 l 510 1005 z "},"þ":{"ha":751,"x_min":-27,"x_max":735,"o":"m 699 329 q 584 72 664 158 q 377 -14 504 -14 q 278 7 322 -14 q 205 67 233 28 l 191 0 l 135 -282 l -27 -282 l 29 0 l 40 56 l 176 734 l 241 1058 l 403 1058 l 326 673 q 408 728 363 709 q 502 747 452 747 q 678 631 621 747 q 701 343 735 514 l 699 329 m 540 343 q 537 537 564 463 q 434 612 511 612 q 359 588 394 612 q 296 523 323 564 l 229 186 q 273 135 242 153 q 352 117 304 117 q 470 174 423 117 q 537 329 517 231 l 540 343 z "},"ÿ":{"ha":665,"x_min":-48,"x_max":739,"o":"m 313 294 l 314 234 l 318 233 l 562 734 l 739 734 l 290 -111 q 186 -242 247 -187 q 35 -296 125 -296 q -6 -292 16 -296 q -48 -283 -28 -288 l -5 -155 q 18 -157 3 -156 q 41 -159 33 -159 q 112 -126 78 -159 q 165 -58 146 -93 l 203 8 l 101 734 l 278 734 l 313 294 m 675 853 l 517 853 l 539 991 l 697 991 l 675 853 m 369 853 l 212 853 l 234 991 l 391 991 l 369 853 z "},"Ā":{"ha":852,"x_min":-40,"x_max":859,"o":"m 591 231 l 243 231 l 123 0 l -40 0 l 494 987 l 647 987 l 782 0 l 618 0 l 591 231 m 314 368 l 576 368 l 530 777 l 526 777 l 314 368 m 842 1101 l 378 1101 l 395 1208 l 859 1208 l 842 1101 z "},"ā":{"ha":711,"x_min":26,"x_max":722,"o":"m 433 0 q 430 45 430 23 q 431 90 429 68 q 335 15 389 45 q 222 -14 280 -14 q 76 46 125 -14 q 47 207 26 107 q 157 376 69 320 q 389 432 244 432 l 496 432 l 509 496 q 497 588 521 557 q 417 619 474 619 q 332 592 369 619 q 286 522 294 564 l 131 522 l 130 526 q 235 683 144 618 q 452 747 325 747 q 630 681 565 747 q 671 495 695 614 l 606 169 q 594 80 596 120 q 597 0 591 40 l 433 0 m 284 118 q 376 142 329 118 q 450 201 422 167 l 475 329 l 366 329 q 263 293 307 329 q 210 210 219 257 q 219 141 200 165 q 284 118 237 118 m 705 883 l 241 883 l 258 990 l 722 990 l 705 883 z "},"Ă":{"ha":852,"x_min":-40,"x_max":838,"o":"m 591 231 l 243 231 l 123 0 l -40 0 l 494 987 l 647 987 l 782 0 l 618 0 l 591 231 m 314 368 l 576 368 l 530 777 l 526 777 l 314 368 m 836 1278 l 838 1274 q 764 1137 827 1187 q 606 1086 701 1086 q 466 1139 515 1086 q 434 1274 418 1192 l 435 1278 l 556 1278 q 565 1213 549 1238 q 622 1188 581 1188 q 685 1214 661 1188 q 716 1278 710 1239 l 836 1278 z "},"ă":{"ha":711,"x_min":26,"x_max":701,"o":"m 433 0 q 430 45 430 23 q 431 90 429 68 q 335 15 389 45 q 222 -14 280 -14 q 76 46 125 -14 q 47 207 26 107 q 157 376 69 320 q 389 432 244 432 l 496 432 l 509 496 q 497 588 521 557 q 417 619 474 619 q 332 592 369 619 q 286 522 294 564 l 131 522 l 130 526 q 235 683 144 618 q 452 747 325 747 q 630 681 565 747 q 671 495 695 614 l 606 169 q 594 80 596 120 q 597 0 591 40 l 433 0 m 284 118 q 376 142 329 118 q 450 201 422 167 l 475 329 l 366 329 q 263 293 307 329 q 210 210 219 257 q 219 141 200 165 q 284 118 237 118 m 699 1059 l 701 1055 q 627 918 690 969 q 469 867 564 867 q 329 920 378 867 q 297 1056 281 973 l 298 1059 l 419 1059 q 428 995 412 1019 q 485 970 444 970 q 548 995 524 970 q 579 1059 573 1021 l 699 1059 z "},"Ą":{"ha":852,"x_min":-40,"x_max":782,"o":"m 591 231 l 243 231 l 123 0 l -40 0 l 494 987 l 647 987 l 782 0 l 618 0 l 591 231 m 314 368 l 576 368 l 530 777 l 526 777 l 314 368 m 747 0 q 675 -63 701 -34 q 642 -127 649 -92 q 647 -166 637 -151 q 690 -181 656 -181 q 721 -176 705 -181 q 752 -165 736 -172 l 756 -262 q 700 -283 730 -275 q 631 -292 669 -292 q 532 -253 569 -292 q 509 -146 496 -214 q 564 -43 520 -90 q 690 41 607 3 l 747 0 z "},"ą":{"ha":711,"x_min":26,"x_max":695,"o":"m 433 0 q 430 45 430 23 q 431 90 429 68 q 335 15 389 45 q 222 -14 280 -14 q 76 46 125 -14 q 47 207 26 107 q 157 376 69 320 q 389 432 244 432 l 496 432 l 509 496 q 497 588 521 557 q 417 619 474 619 q 332 592 369 619 q 286 522 294 564 l 131 522 l 130 526 q 235 683 144 618 q 452 747 325 747 q 630 681 565 747 q 671 495 695 614 l 606 169 q 594 80 596 120 q 597 0 591 40 l 433 0 m 284 118 q 376 142 329 118 q 450 201 422 167 l 475 329 l 366 329 q 263 293 307 329 q 210 210 219 257 q 219 141 200 165 q 284 118 237 118 m 562 0 q 490 -63 516 -34 q 457 -127 464 -92 q 461 -166 452 -151 q 505 -181 471 -181 q 536 -176 520 -181 q 567 -165 551 -172 l 571 -262 q 515 -283 545 -275 q 446 -292 484 -292 q 347 -253 384 -292 q 323 -146 311 -214 q 378 -43 335 -90 q 505 41 422 3 l 562 0 z "},"Ć":{"ha":827,"x_min":56,"x_max":870,"o":"m 781 319 l 782 315 q 646 72 741 159 q 396 -14 552 -14 q 150 107 243 -14 q 92 404 56 229 l 129 591 q 276 894 168 787 q 545 1002 385 1002 q 784 906 697 1002 q 851 657 870 811 l 850 654 l 692 654 q 662 812 701 755 q 528 869 622 869 q 380 791 444 869 q 292 593 315 713 l 254 404 q 271 196 228 275 q 411 117 315 117 q 544 166 494 117 q 625 319 593 216 l 781 319 m 659 1252 l 842 1252 l 636 1072 l 510 1072 l 659 1252 z "},"ć":{"ha":686,"x_min":37,"x_max":693,"o":"m 339 117 q 434 153 391 117 q 486 242 477 189 l 632 242 l 633 238 q 527 58 619 130 q 318 -14 435 -14 q 104 91 172 -14 q 63 355 37 197 l 66 378 q 190 646 93 544 q 439 747 286 747 q 626 670 559 747 q 671 474 693 592 l 670 471 l 522 471 q 505 574 532 534 q 418 615 477 615 q 292 547 338 615 q 229 378 245 478 l 225 355 q 231 182 208 248 q 339 117 254 117 m 497 1019 l 681 1019 l 475 839 l 349 839 l 497 1019 z "},"Ĉ":{"ha":827,"x_min":56,"x_max":870,"o":"m 781 319 l 782 315 q 646 72 741 159 q 396 -14 552 -14 q 150 107 243 -14 q 92 404 56 229 l 129 591 q 276 894 168 787 q 545 1002 385 1002 q 784 906 697 1002 q 851 657 870 811 l 850 654 l 692 654 q 662 812 701 755 q 528 869 622 869 q 380 791 444 869 q 292 593 315 713 l 254 404 q 271 196 228 275 q 411 117 315 117 q 544 166 494 117 q 625 319 593 216 l 781 319 m 812 1114 l 808 1097 l 680 1097 l 610 1192 l 504 1097 l 376 1097 l 380 1115 l 582 1278 l 675 1278 l 812 1114 z "},"ĉ":{"ha":686,"x_min":37,"x_max":693,"o":"m 339 117 q 434 153 391 117 q 486 242 477 189 l 632 242 l 633 238 q 527 58 619 130 q 318 -14 435 -14 q 104 91 172 -14 q 63 355 37 197 l 66 378 q 190 646 93 544 q 439 747 286 747 q 626 670 559 747 q 671 474 693 592 l 670 471 l 522 471 q 505 574 532 534 q 418 615 477 615 q 292 547 338 615 q 229 378 245 478 l 225 355 q 231 182 208 248 q 339 117 254 117 m 650 881 l 647 865 l 518 865 l 449 959 l 342 865 l 214 865 l 218 882 l 420 1046 l 513 1046 l 650 881 z "},"Ċ":{"ha":827,"x_min":56,"x_max":870,"o":"m 781 319 l 782 315 q 646 72 741 159 q 396 -14 552 -14 q 150 107 243 -14 q 92 404 56 229 l 129 591 q 276 894 168 787 q 545 1002 385 1002 q 784 906 697 1002 q 851 657 870 811 l 850 654 l 692 654 q 662 812 701 755 q 528 869 622 869 q 380 791 444 869 q 292 593 315 713 l 254 404 q 271 196 228 275 q 411 117 315 117 q 544 166 494 117 q 625 319 593 216 l 781 319 m 677 1101 l 505 1101 l 535 1252 l 707 1252 l 677 1101 z "},"ċ":{"ha":686,"x_min":37,"x_max":693,"o":"m 339 117 q 434 153 391 117 q 486 242 477 189 l 632 242 l 633 238 q 527 58 619 130 q 318 -14 435 -14 q 104 91 172 -14 q 63 355 37 197 l 66 378 q 190 646 93 544 q 439 747 286 747 q 626 670 559 747 q 671 474 693 592 l 670 471 l 522 471 q 505 574 532 534 q 418 615 477 615 q 292 547 338 615 q 229 378 245 478 l 225 355 q 231 182 208 248 q 339 117 254 117 m 515 868 l 344 868 l 374 1019 l 545 1019 l 515 868 z "},"Č":{"ha":827,"x_min":56,"x_max":870,"o":"m 781 319 l 782 315 q 646 72 741 159 q 396 -14 552 -14 q 150 107 243 -14 q 92 404 56 229 l 129 591 q 276 894 168 787 q 545 1002 385 1002 q 784 906 697 1002 q 851 657 870 811 l 850 654 l 692 654 q 662 812 701 755 q 528 869 622 869 q 380 791 444 869 q 292 593 315 713 l 254 404 q 271 196 228 275 q 411 117 315 117 q 544 166 494 117 q 625 319 593 216 l 781 319 m 609 1190 l 708 1281 l 850 1281 l 848 1270 l 642 1100 l 540 1100 l 403 1268 l 406 1281 l 547 1281 l 609 1190 z "},"č":{"ha":686,"x_min":37,"x_max":693,"o":"m 339 117 q 434 153 391 117 q 486 242 477 189 l 632 242 l 633 238 q 527 58 619 130 q 318 -14 435 -14 q 104 91 172 -14 q 63 355 37 197 l 66 378 q 190 646 93 544 q 439 747 286 747 q 626 670 559 747 q 671 474 693 592 l 670 471 l 522 471 q 505 574 532 534 q 418 615 477 615 q 292 547 338 615 q 229 378 245 478 l 225 355 q 231 182 208 248 q 339 117 254 117 m 448 958 l 547 1048 l 689 1048 l 687 1037 l 481 867 l 378 867 l 241 1036 l 244 1048 l 385 1048 l 448 958 z "},"Ď":{"ha":856,"x_min":44,"x_max":888,"o":"m 44 0 l 241 987 l 517 987 q 786 864 684 987 q 852 562 888 741 l 822 412 q 665 106 782 212 q 370 0 548 0 l 44 0 m 377 855 l 233 132 l 392 132 q 565 208 495 132 q 660 412 634 284 l 690 563 q 659 774 716 694 q 486 855 602 855 l 377 855 m 564 1176 l 663 1267 l 806 1267 l 804 1255 l 597 1086 l 495 1086 l 358 1254 l 361 1267 l 502 1267 l 564 1176 z "},"ď":{"ha":842,"x_min":36,"x_max":1007,"o":"m 70 370 q 189 652 107 557 q 400 747 271 747 q 495 725 452 747 q 567 662 538 703 l 646 1058 l 808 1058 l 597 0 l 457 0 l 461 73 q 373 8 421 30 q 273 -14 326 -14 q 95 93 155 -14 q 67 356 36 199 l 70 370 m 230 356 q 233 184 208 248 q 336 120 258 120 q 413 144 377 120 q 477 212 448 168 l 542 536 q 496 592 527 572 q 420 612 465 612 q 302 547 349 612 q 233 370 255 481 l 230 356 m 987 955 l 871 793 l 799 793 l 872 962 l 891 1058 l 1007 1058 l 987 955 z "},"Đ":{"ha":876,"x_min":56,"x_max":908,"o":"m 64 0 l 153 446 l 56 446 l 79 561 l 176 561 l 262 987 l 538 987 q 806 864 704 987 q 873 562 908 741 l 842 412 q 685 106 802 212 q 391 0 568 0 l 64 0 m 472 446 l 315 446 l 253 132 l 412 132 q 585 208 515 132 q 680 412 654 284 l 711 563 q 680 774 736 694 q 507 855 623 855 l 397 855 l 338 561 l 495 561 l 472 446 z "},"đ":{"ha":761,"x_min":36,"x_max":894,"o":"m 871 831 l 763 831 l 597 0 l 457 0 l 461 73 q 373 8 421 30 q 273 -14 326 -14 q 95 93 155 -14 q 67 356 36 199 l 70 370 q 189 652 107 557 q 400 747 271 747 q 495 725 452 747 q 567 662 538 703 l 601 831 l 454 831 l 477 946 l 624 946 l 646 1058 l 808 1058 l 786 946 l 894 946 l 871 831 m 230 356 q 233 184 208 248 q 336 120 258 120 q 413 144 377 120 q 477 212 448 168 l 542 536 q 496 592 527 572 q 420 612 465 612 q 302 547 349 612 q 233 370 255 481 l 230 356 z "},"Ē":{"ha":756,"x_min":44,"x_max":861,"o":"m 692 444 l 295 444 l 233 132 l 694 132 l 668 0 l 44 0 l 241 987 l 861 987 l 834 855 l 377 855 l 321 576 l 719 576 l 692 444 m 789 1101 l 326 1101 l 343 1208 l 806 1208 l 789 1101 z "},"ē":{"ha":693,"x_min":43,"x_max":696,"o":"m 330 -14 q 116 89 189 -14 q 68 350 43 192 l 73 377 q 200 646 99 543 q 432 747 302 748 q 628 657 567 747 q 666 416 690 566 l 650 319 l 227 319 q 250 172 217 227 q 361 117 283 117 q 467 134 418 117 q 560 180 515 151 l 594 73 q 482 11 550 36 q 330 -14 414 -14 m 411 615 q 316 567 359 615 q 253 444 273 518 l 254 440 l 509 440 l 512 457 q 499 572 523 530 q 411 615 475 615 m 680 884 l 216 884 l 233 991 l 696 991 l 680 884 z "},"Ĕ":{"ha":756,"x_min":44,"x_max":861,"o":"m 692 444 l 295 444 l 233 132 l 694 132 l 668 0 l 44 0 l 241 987 l 861 987 l 834 855 l 377 855 l 321 576 l 719 576 l 692 444 m 784 1278 l 785 1274 q 711 1137 774 1187 q 553 1086 648 1086 q 414 1139 463 1086 q 382 1274 366 1192 l 383 1278 l 504 1278 q 513 1213 497 1238 q 570 1188 528 1188 q 633 1214 608 1188 q 664 1278 658 1239 l 784 1278 z "},"ĕ":{"ha":693,"x_min":43,"x_max":690,"o":"m 330 -14 q 116 89 189 -14 q 68 350 43 192 l 73 377 q 200 646 99 543 q 432 747 302 748 q 628 657 567 747 q 666 416 690 566 l 650 319 l 227 319 q 250 172 217 227 q 361 117 283 117 q 467 134 418 117 q 560 180 515 151 l 594 73 q 482 11 550 36 q 330 -14 414 -14 m 411 615 q 316 567 359 615 q 253 444 273 518 l 254 440 l 509 440 l 512 457 q 499 572 523 530 q 411 615 475 615 m 674 1060 l 675 1056 q 602 919 665 970 q 444 868 538 868 q 304 921 353 868 q 272 1057 256 974 l 273 1060 l 394 1060 q 403 995 387 1020 q 460 970 418 970 q 523 996 498 970 q 554 1060 548 1021 l 674 1060 z "},"Ė":{"ha":756,"x_min":44,"x_max":861,"o":"m 692 444 l 295 444 l 233 132 l 694 132 l 668 0 l 44 0 l 241 987 l 861 987 l 834 855 l 377 855 l 321 576 l 719 576 l 692 444 m 637 1086 l 465 1086 l 495 1238 l 667 1238 l 637 1086 z "},"ė":{"ha":693,"x_min":43,"x_max":690,"o":"m 330 -14 q 116 89 189 -14 q 68 350 43 192 l 73 377 q 200 646 99 543 q 432 747 302 748 q 628 657 567 747 q 666 416 690 566 l 650 319 l 227 319 q 250 172 217 227 q 361 117 283 117 q 467 134 418 117 q 560 180 515 151 l 594 73 q 482 11 550 36 q 330 -14 414 -14 m 411 615 q 316 567 359 615 q 253 444 273 518 l 254 440 l 509 440 l 512 457 q 499 572 523 530 q 411 615 475 615 m 527 869 l 355 869 l 385 1020 l 557 1020 l 527 869 z "},"Ę":{"ha":756,"x_min":44,"x_max":861,"o":"m 692 444 l 295 444 l 233 132 l 694 132 l 668 0 l 44 0 l 241 987 l 861 987 l 834 855 l 377 855 l 321 576 l 719 576 l 692 444 m 502 0 q 430 -63 456 -34 q 397 -127 404 -92 q 402 -166 392 -151 q 445 -181 412 -181 q 476 -176 460 -181 q 507 -165 492 -172 l 511 -262 q 455 -283 486 -275 q 386 -292 425 -292 q 288 -253 324 -292 q 264 -146 251 -214 q 319 -43 275 -90 q 446 41 362 3 l 502 0 z "},"ę":{"ha":693,"x_min":43,"x_max":690,"o":"m 330 -14 q 116 89 189 -14 q 68 350 43 192 l 73 377 q 200 646 99 543 q 432 747 302 748 q 628 657 567 747 q 666 416 690 566 l 650 319 l 227 319 q 250 172 217 227 q 361 117 283 117 q 467 134 418 117 q 560 180 515 151 l 594 73 q 482 11 550 36 q 330 -14 414 -14 m 411 615 q 316 567 359 615 q 253 444 273 518 l 254 440 l 509 440 l 512 457 q 499 572 523 530 q 411 615 475 615 m 519 35 q 447 -28 473 1 q 414 -92 421 -57 q 419 -131 409 -116 q 462 -146 429 -146 q 493 -141 477 -146 q 524 -130 509 -136 l 528 -227 q 472 -248 503 -239 q 403 -256 441 -256 q 304 -217 341 -256 q 281 -111 268 -178 q 336 -8 292 -54 q 463 76 379 38 l 519 35 z "},"Ě":{"ha":756,"x_min":44,"x_max":861,"o":"m 692 444 l 295 444 l 233 132 l 694 132 l 668 0 l 44 0 l 241 987 l 861 987 l 834 855 l 377 855 l 321 576 l 719 576 l 692 444 m 569 1176 l 668 1267 l 810 1267 l 808 1255 l 602 1086 l 500 1086 l 363 1254 l 366 1267 l 507 1267 l 569 1176 z "},"ě":{"ha":693,"x_min":43,"x_max":701,"o":"m 330 -14 q 116 89 189 -14 q 68 350 43 192 l 73 377 q 200 646 99 543 q 432 747 302 748 q 628 657 567 747 q 666 416 690 566 l 650 319 l 227 319 q 250 172 217 227 q 361 117 283 117 q 467 134 418 117 q 560 180 515 151 l 594 73 q 482 11 550 36 q 330 -14 414 -14 m 411 615 q 316 567 359 615 q 253 444 273 518 l 254 440 l 509 440 l 512 457 q 499 572 523 530 q 411 615 475 615 m 459 958 l 558 1049 l 701 1049 l 699 1038 l 492 868 l 390 868 l 253 1036 l 256 1049 l 397 1049 l 459 958 z "},"Ĝ":{"ha":878,"x_min":55,"x_max":878,"o":"m 758 134 q 616 31 709 77 q 392 -14 524 -14 q 145 100 236 -14 q 90 391 55 215 l 132 597 q 291 895 170 787 q 576 1002 413 1002 q 803 916 728 1002 q 865 692 878 830 l 863 688 l 709 688 q 677 821 712 773 q 552 869 642 869 q 391 792 467 869 q 293 598 316 714 l 252 391 q 273 190 227 263 q 418 117 319 117 q 531 136 482 117 q 604 178 581 154 l 644 376 l 469 376 l 494 499 l 831 499 l 758 134 m 807 1114 l 804 1097 l 675 1097 l 606 1192 l 499 1097 l 371 1097 l 375 1115 l 577 1278 l 670 1278 l 807 1114 z "},"ĝ":{"ha":740,"x_min":23,"x_max":747,"o":"m 71 370 q 191 652 109 557 q 404 747 274 747 q 505 722 460 747 q 579 649 551 696 l 608 734 l 747 734 l 604 16 q 475 -217 573 -138 q 225 -296 378 -296 q 121 -281 178 -296 q 23 -241 64 -266 l 83 -111 q 160 -144 116 -132 q 252 -156 204 -156 q 375 -110 326 -156 q 441 16 425 -64 l 450 56 q 368 4 412 22 q 276 -14 325 -14 q 98 93 158 -14 q 68 356 37 200 l 71 370 m 231 356 q 235 184 209 248 q 340 120 262 120 q 417 143 382 120 q 480 210 452 167 l 545 537 q 500 593 530 573 q 424 612 469 612 q 304 547 353 612 q 233 370 256 481 l 231 356 m 692 881 l 688 865 l 559 865 l 490 959 l 384 865 l 256 865 l 260 882 l 462 1046 l 555 1046 l 692 881 z "},"Ğ":{"ha":878,"x_min":55,"x_max":878,"o":"m 758 134 q 616 31 709 77 q 392 -14 524 -14 q 145 100 236 -14 q 90 391 55 215 l 132 597 q 291 895 170 787 q 576 1002 413 1002 q 803 916 728 1002 q 865 692 878 830 l 863 688 l 709 688 q 677 821 712 773 q 552 869 642 869 q 391 792 467 869 q 293 598 316 714 l 252 391 q 273 190 227 263 q 418 117 319 117 q 531 136 482 117 q 604 178 581 154 l 644 376 l 469 376 l 494 499 l 831 499 l 758 134 m 819 1292 l 821 1288 q 747 1151 810 1202 q 589 1100 684 1100 q 449 1153 498 1100 q 417 1289 401 1206 l 418 1292 l 539 1292 q 548 1227 532 1252 q 605 1202 564 1202 q 668 1228 644 1202 q 699 1292 693 1253 l 819 1292 z "},"ğ":{"ha":740,"x_min":23,"x_max":747,"o":"m 71 370 q 191 652 109 557 q 404 747 274 747 q 505 722 460 747 q 579 649 551 696 l 608 734 l 747 734 l 604 16 q 475 -217 573 -138 q 225 -296 378 -296 q 121 -281 178 -296 q 23 -241 64 -266 l 83 -111 q 160 -144 116 -132 q 252 -156 204 -156 q 375 -110 326 -156 q 441 16 425 -64 l 450 56 q 368 4 412 22 q 276 -14 325 -14 q 98 93 158 -14 q 68 356 37 200 l 71 370 m 231 356 q 235 184 209 248 q 340 120 262 120 q 417 143 382 120 q 480 210 452 167 l 545 537 q 500 593 530 573 q 424 612 469 612 q 304 547 353 612 q 233 370 256 481 l 231 356 m 704 1059 l 705 1055 q 631 918 694 969 q 473 867 568 867 q 334 920 382 867 q 302 1056 286 973 l 303 1059 l 424 1059 q 433 995 417 1019 q 490 970 448 970 q 553 995 528 970 q 584 1059 578 1021 l 704 1059 z "},"Ġ":{"ha":878,"x_min":55,"x_max":878,"o":"m 758 134 q 616 31 709 77 q 392 -14 524 -14 q 145 100 236 -14 q 90 391 55 215 l 132 597 q 291 895 170 787 q 576 1002 413 1002 q 803 916 728 1002 q 865 692 878 830 l 863 688 l 709 688 q 677 821 712 773 q 552 869 642 869 q 391 792 467 869 q 293 598 316 714 l 252 391 q 273 190 227 263 q 418 117 319 117 q 531 136 482 117 q 604 178 581 154 l 644 376 l 469 376 l 494 499 l 831 499 l 758 134 m 672 1101 l 500 1101 l 530 1252 l 702 1252 l 672 1101 z "},"ġ":{"ha":740,"x_min":23,"x_max":747,"o":"m 71 370 q 191 652 109 557 q 404 747 274 747 q 505 722 460 747 q 579 649 551 696 l 608 734 l 747 734 l 604 16 q 475 -217 573 -138 q 225 -296 378 -296 q 121 -281 178 -296 q 23 -241 64 -266 l 83 -111 q 160 -144 116 -132 q 252 -156 204 -156 q 375 -110 326 -156 q 441 16 425 -64 l 450 56 q 368 4 412 22 q 276 -14 325 -14 q 98 93 158 -14 q 68 356 37 200 l 71 370 m 231 356 q 235 184 209 248 q 340 120 262 120 q 417 143 382 120 q 480 210 452 167 l 545 537 q 500 593 530 573 q 424 612 469 612 q 304 547 353 612 q 233 370 256 481 l 231 356 m 557 868 l 385 868 l 415 1019 l 587 1019 l 557 868 z "},"Ģ":{"ha":878,"x_min":55,"x_max":878,"o":"m 758 134 q 616 31 709 77 q 392 -14 524 -14 q 145 100 236 -14 q 90 391 55 215 l 132 597 q 291 895 170 787 q 576 1002 413 1002 q 803 916 728 1002 q 865 692 878 830 l 863 688 l 709 688 q 677 821 712 773 q 552 869 642 869 q 391 792 467 869 q 293 598 316 714 l 252 391 q 273 190 227 263 q 418 117 319 117 q 531 136 482 117 q 604 178 581 154 l 644 376 l 469 376 l 494 499 l 831 499 l 758 134 m 387 -178 l 271 -339 l 199 -339 l 273 -171 l 292 -75 l 408 -75 l 387 -178 z "},"ģ":{"ha":740,"x_min":23,"x_max":747,"o":"m 71 370 q 191 652 109 557 q 404 747 274 747 q 505 722 460 747 q 579 649 551 696 l 608 734 l 747 734 l 604 16 q 475 -217 573 -138 q 225 -296 378 -296 q 121 -281 178 -296 q 23 -241 64 -266 l 83 -111 q 160 -144 116 -132 q 252 -156 204 -156 q 375 -110 326 -156 q 441 16 425 -64 l 450 56 q 368 4 412 22 q 276 -14 325 -14 q 98 93 158 -14 q 68 356 37 200 l 71 370 m 231 356 q 235 184 209 248 q 340 120 262 120 q 417 143 382 120 q 480 210 452 167 l 545 537 q 500 593 530 573 q 424 612 469 612 q 304 547 353 612 q 233 370 256 481 l 231 356 m 414 962 l 527 1135 l 610 1135 l 558 956 l 537 851 l 392 851 l 414 962 z "},"Ĥ":{"ha":926,"x_min":44,"x_max":963,"o":"m 766 0 l 604 0 l 688 421 l 290 421 l 206 0 l 44 0 l 241 987 l 404 987 l 317 553 l 715 553 l 802 987 l 963 987 l 766 0 m 838 1099 l 835 1083 l 706 1083 l 637 1177 l 530 1083 l 402 1083 l 406 1101 l 608 1264 l 701 1264 l 838 1099 z "},"ĥ":{"ha":741,"x_min":22,"x_max":722,"o":"m 314 649 q 410 722 357 696 q 521 747 463 747 q 673 672 623 747 q 692 447 722 597 l 603 0 l 441 0 l 530 448 q 526 577 549 541 q 439 612 504 612 q 361 592 399 612 q 292 536 322 572 l 184 0 l 22 0 l 234 1058 l 396 1058 l 314 649 m 708 1099 l 705 1083 l 576 1083 l 507 1177 l 400 1083 l 272 1083 l 276 1101 l 478 1264 l 571 1264 l 708 1099 z "},"Ħ":{"ha":919,"x_min":45,"x_max":1013,"o":"m 928 806 l 1013 806 l 990 696 l 906 696 l 767 0 l 606 0 l 690 421 l 292 421 l 208 0 l 45 0 l 184 696 l 100 696 l 123 806 l 206 806 l 243 987 l 405 987 l 368 806 l 766 806 l 803 987 l 964 987 l 928 806 m 318 553 l 716 553 l 745 696 l 347 696 l 318 553 z "},"ħ":{"ha":761,"x_min":43,"x_max":743,"o":"m 524 829 l 370 829 l 334 649 q 430 722 378 696 q 541 747 483 747 q 693 672 644 747 q 713 447 743 597 l 623 0 l 461 0 l 551 448 q 547 577 569 541 q 459 612 524 612 q 381 592 420 612 q 312 536 342 572 l 205 0 l 43 0 l 208 829 l 107 829 l 130 945 l 231 945 l 254 1058 l 416 1058 l 393 945 l 547 945 l 524 829 z "},"Ĩ":{"ha":381,"x_min":52,"x_max":608,"o":"m 214 0 l 52 0 l 249 987 l 411 987 l 214 0 m 608 1256 q 552 1145 597 1190 q 449 1101 507 1101 q 359 1131 407 1101 q 278 1161 311 1161 q 234 1139 255 1161 q 209 1086 214 1117 l 127 1110 q 182 1222 137 1176 q 285 1268 227 1268 q 371 1238 318 1268 q 456 1208 423 1208 q 500 1230 479 1208 q 526 1282 522 1251 l 608 1256 z "},"ĩ":{"ha":353,"x_min":34,"x_max":545,"o":"m 197 0 l 34 0 l 180 734 l 343 734 l 197 0 m 545 1023 q 489 912 534 957 q 386 868 444 868 q 296 898 344 868 q 215 928 248 928 q 171 906 192 928 q 146 854 151 884 l 64 878 q 119 989 74 943 q 222 1036 163 1036 q 308 1005 255 1036 q 393 975 360 975 q 437 997 416 975 q 463 1050 458 1019 l 545 1023 z "},"Ī":{"ha":381,"x_min":52,"x_max":605,"o":"m 214 0 l 52 0 l 249 987 l 411 987 l 214 0 m 588 1101 l 125 1101 l 142 1208 l 605 1208 l 588 1101 z "},"ī":{"ha":353,"x_min":34,"x_max":542,"o":"m 197 0 l 34 0 l 180 734 l 343 734 l 197 0 m 525 870 l 62 870 l 79 977 l 542 977 l 525 870 z "},"Ĭ":{"ha":381,"x_min":52,"x_max":584,"o":"m 214 0 l 52 0 l 249 987 l 411 987 l 214 0 m 583 1278 l 584 1274 q 510 1137 573 1187 q 352 1086 447 1086 q 213 1139 261 1086 q 180 1274 164 1192 l 182 1278 l 302 1278 q 311 1213 296 1238 q 368 1188 327 1188 q 432 1214 407 1188 q 463 1278 456 1239 l 583 1278 z "},"ĭ":{"ha":353,"x_min":34,"x_max":521,"o":"m 197 0 l 34 0 l 180 734 l 343 734 l 197 0 m 519 1045 l 521 1041 q 447 904 510 955 q 289 853 384 853 q 150 906 198 853 q 117 1042 101 959 l 119 1045 l 239 1045 q 248 980 233 1005 q 305 956 264 956 q 369 981 344 956 q 399 1045 393 1006 l 519 1045 z "},"Į":{"ha":381,"x_min":-71,"x_max":411,"o":"m 214 0 l 52 0 l 249 987 l 411 987 l 214 0 m 180 0 q 108 -63 134 -34 q 75 -127 82 -92 q 80 -166 70 -151 q 123 -181 90 -181 q 154 -176 138 -181 q 185 -165 170 -172 l 189 -262 q 133 -283 163 -275 q 64 -292 102 -292 q -35 -253 2 -292 q -58 -146 -71 -214 q -3 -43 -47 -90 q 123 41 40 3 l 180 0 z "},"į":{"ha":347,"x_min":-88,"x_max":408,"o":"m 197 0 l 35 0 l 181 734 l 343 734 l 197 0 m 379 913 l 217 913 l 246 1058 l 408 1058 l 379 913 m 163 0 q 91 -63 117 -34 q 58 -127 65 -92 q 63 -166 53 -151 q 106 -181 73 -181 q 137 -176 121 -181 q 168 -165 153 -172 l 172 -262 q 116 -283 146 -275 q 47 -292 85 -292 q -52 -253 -15 -292 q -75 -146 -88 -214 q -20 -43 -64 -90 q 106 41 23 3 l 163 0 z "},"İ":{"ha":381,"x_min":52,"x_max":464,"o":"m 214 0 l 52 0 l 249 987 l 411 987 l 214 0 m 434 1086 l 262 1086 l 292 1238 l 464 1238 l 434 1086 z "},"ı":{"ha":353,"x_min":34,"x_max":343,"o":"m 197 0 l 34 0 l 180 734 l 343 734 l 197 0 z "},"Ĳ":{"ha":1113,"x_min":52,"x_max":1157,"o":"m 214 0 l 52 0 l 249 987 l 411 987 l 214 0 m 995 987 l 1157 987 l 1017 286 q 890 62 987 138 q 662 -14 794 -14 q 461 61 532 -14 q 421 277 390 136 l 423 280 l 581 280 q 591 154 562 191 q 688 117 621 117 q 791 163 743 117 q 854 286 839 210 l 995 987 z "},"ĳ":{"ha":696,"x_min":35,"x_max":759,"o":"m 197 0 l 35 0 l 181 734 l 343 734 l 197 0 m 379 913 l 217 913 l 246 1058 l 408 1058 l 379 913 m 697 734 l 542 -43 q 445 -234 515 -172 q 267 -296 375 -296 q 227 -294 245 -296 q 189 -285 208 -291 l 224 -153 q 249 -159 234 -157 q 277 -161 264 -161 q 340 -132 312 -161 q 380 -43 368 -103 l 535 734 l 697 734 m 730 916 l 568 916 l 596 1058 l 759 1058 l 730 916 z "},"Ĵ":{"ha":732,"x_min":9,"x_max":925,"o":"m 614 987 l 776 987 l 635 286 q 509 62 606 138 q 281 -14 413 -14 q 80 61 151 -14 q 40 277 9 136 l 42 280 l 199 280 q 210 154 181 191 q 307 117 239 117 q 410 163 361 117 q 473 286 458 210 l 614 987 m 925 1094 l 922 1078 l 793 1078 l 724 1172 l 617 1078 l 489 1078 l 493 1095 l 695 1259 l 788 1259 l 925 1094 z "},"ĵ":{"ha":359,"x_min":-155,"x_max":511,"o":"m 354 734 l 199 -43 q 102 -234 172 -172 q -77 -296 32 -296 q -117 -294 -97 -296 q -155 -285 -136 -291 l -119 -155 q -90 -161 -109 -159 q -60 -164 -72 -164 q -1 -131 -27 -164 q 37 -43 26 -98 l 193 734 l 354 734 m 511 859 l 507 842 l 378 842 l 309 937 l 203 842 l 75 842 l 79 860 l 281 1023 l 374 1023 l 511 859 z "},"Ķ":{"ha":840,"x_min":33,"x_max":921,"o":"m 364 426 l 281 426 l 196 0 l 33 0 l 231 987 l 393 987 l 310 572 l 397 572 l 715 987 l 920 987 l 921 984 l 507 491 l 739 0 l 553 0 l 364 426 m 368 -168 l 252 -330 l 180 -330 l 254 -161 l 273 -65 l 389 -65 l 368 -168 z "},"ķ":{"ha":688,"x_min":25,"x_max":745,"o":"m 317 321 l 250 321 l 186 0 l 25 0 l 237 1058 l 398 1058 l 277 453 l 340 453 l 557 734 l 743 734 l 745 730 l 461 401 l 635 0 l 448 0 l 317 321 m 311 -167 l 195 -328 l 123 -328 l 196 -160 l 215 -64 l 331 -64 l 311 -167 z "},"ĸ":{"ha":753,"x_min":34,"x_max":793,"o":"m 319 290 l 253 290 l 195 0 l 34 0 l 180 734 l 342 734 l 283 441 l 333 441 l 595 734 l 791 734 l 793 730 l 463 385 l 664 0 l 458 0 l 319 290 z "},"Ĺ":{"ha":708,"x_min":44,"x_max":651,"o":"m 233 132 l 651 132 l 625 0 l 44 0 l 241 987 l 404 987 l 233 132 m 403 1210 l 587 1210 l 380 1029 l 254 1029 l 403 1210 z "},"ĺ":{"ha":347,"x_min":35,"x_max":591,"o":"m 197 0 l 35 0 l 246 1058 l 408 1058 l 197 0 m 408 1280 l 591 1280 l 385 1099 l 259 1099 l 408 1280 z "},"Ļ":{"ha":708,"x_min":44,"x_max":651,"o":"m 233 132 l 651 132 l 625 0 l 44 0 l 241 987 l 404 987 l 233 132 m 354 -167 l 238 -328 l 166 -328 l 239 -160 l 258 -64 l 374 -64 l 354 -167 z "},"ļ":{"ha":347,"x_min":-53,"x_max":408,"o":"m 197 0 l 35 0 l 246 1058 l 408 1058 l 197 0 m 135 -167 l 19 -328 l -53 -328 l 20 -160 l 39 -64 l 155 -64 l 135 -167 z "},"Ľ":{"ha":708,"x_min":44,"x_max":677,"o":"m 233 132 l 651 132 l 625 0 l 44 0 l 241 987 l 404 987 l 233 132 m 656 886 l 541 724 l 469 724 l 542 892 l 561 989 l 677 989 l 656 886 z "},"ľ":{"ha":448,"x_min":35,"x_max":618,"o":"m 197 0 l 35 0 l 246 1058 l 408 1058 l 197 0 m 598 955 l 482 793 l 410 793 l 484 962 l 503 1058 l 618 1058 l 598 955 z "},"Ŀ":{"ha":708,"x_min":44,"x_max":651,"o":"m 233 132 l 651 132 l 625 0 l 44 0 l 241 987 l 404 987 l 233 132 m 586 464 l 414 464 l 444 615 l 616 615 l 586 464 z "},"ŀ":{"ha":496,"x_min":35,"x_max":555,"o":"m 197 0 l 35 0 l 246 1058 l 408 1058 l 197 0 m 525 439 l 353 439 l 383 590 l 555 590 l 525 439 z "},"Ł":{"ha":675,"x_min":35,"x_max":642,"o":"m 314 588 l 483 640 l 458 515 l 289 463 l 223 132 l 642 132 l 615 0 l 35 0 l 117 411 l 41 388 l 66 513 l 142 536 l 232 987 l 394 987 l 314 588 z "},"ł":{"ha":373,"x_min":41,"x_max":425,"o":"m 330 606 l 425 640 l 400 515 l 304 481 l 208 0 l 46 0 l 130 419 l 41 388 l 66 513 l 155 544 l 258 1058 l 420 1058 l 330 606 z "},"Ń":{"ha":926,"x_min":44,"x_max":963,"o":"m 766 0 l 604 0 l 351 707 l 347 707 l 206 0 l 44 0 l 241 987 l 404 987 l 656 281 l 660 281 l 801 987 l 963 987 l 766 0 m 687 1238 l 871 1238 l 665 1057 l 538 1057 l 687 1238 z "},"ń":{"ha":741,"x_min":23,"x_max":734,"o":"m 307 636 q 407 719 351 690 q 526 747 463 747 q 674 676 625 747 q 694 461 723 606 l 602 0 l 440 0 l 532 460 q 527 580 549 548 q 439 612 504 612 q 360 591 399 612 q 291 531 321 569 l 185 0 l 23 0 l 170 734 l 318 734 l 307 636 m 550 1019 l 734 1019 l 528 839 l 401 839 l 550 1019 z "},"Ņ":{"ha":926,"x_min":44,"x_max":963,"o":"m 766 0 l 604 0 l 351 707 l 347 707 l 206 0 l 44 0 l 241 987 l 404 987 l 656 281 l 660 281 l 801 987 l 963 987 l 766 0 m 422 -167 l 306 -328 l 234 -328 l 307 -160 l 326 -64 l 442 -64 l 422 -167 z "},"ņ":{"ha":741,"x_min":23,"x_max":723,"o":"m 307 636 q 407 719 351 690 q 526 747 463 747 q 674 676 625 747 q 694 461 723 606 l 602 0 l 440 0 l 532 460 q 527 580 549 548 q 439 612 504 612 q 360 591 399 612 q 291 531 321 569 l 185 0 l 23 0 l 170 734 l 318 734 l 307 636 m 328 -167 l 212 -328 l 140 -328 l 214 -160 l 233 -64 l 349 -64 l 328 -167 z "},"Ň":{"ha":926,"x_min":44,"x_max":963,"o":"m 766 0 l 604 0 l 351 707 l 347 707 l 206 0 l 44 0 l 241 987 l 404 987 l 656 281 l 660 281 l 801 987 l 963 987 l 766 0 m 637 1176 l 736 1267 l 879 1267 l 877 1255 l 671 1086 l 568 1086 l 431 1254 l 434 1267 l 575 1267 l 637 1176 z "},"ň":{"ha":741,"x_min":23,"x_max":742,"o":"m 307 636 q 407 719 351 690 q 526 747 463 747 q 674 676 625 747 q 694 461 723 606 l 602 0 l 440 0 l 532 460 q 527 580 549 548 q 439 612 504 612 q 360 591 399 612 q 291 531 321 569 l 185 0 l 23 0 l 170 734 l 318 734 l 307 636 m 500 958 l 600 1048 l 742 1048 l 740 1037 l 534 867 l 431 867 l 294 1036 l 297 1048 l 438 1048 l 500 958 z "},"ŉ":{"ha":741,"x_min":23,"x_max":723,"o":"m 307 636 q 407 719 351 690 q 526 747 463 747 q 674 676 625 747 q 694 461 723 606 l 602 0 l 440 0 l 532 460 q 527 580 549 548 q 439 612 504 612 q 360 591 399 612 q 291 531 321 569 l 185 0 l 23 0 l 170 734 l 318 734 l 307 636 m 271 955 l 155 793 l 83 793 l 157 962 l 176 1058 l 292 1058 l 271 955 z "},"Ŋ":{"ha":905,"x_min":36,"x_max":955,"o":"m 955 987 l 749 -43 q 652 -234 723 -172 q 472 -296 581 -296 q 431 -294 450 -296 q 393 -285 412 -291 l 428 -155 q 457 -161 439 -159 q 489 -164 476 -164 q 548 -132 522 -164 q 586 -43 574 -99 l 594 0 l 341 698 l 337 697 l 198 0 l 36 0 l 233 987 l 395 987 l 648 291 l 652 292 l 792 987 l 955 987 z "},"ŋ":{"ha":741,"x_min":23,"x_max":720,"o":"m 307 641 q 406 720 351 692 q 522 747 460 747 q 671 675 623 747 q 690 456 720 604 l 590 -43 q 493 -234 564 -172 q 314 -296 422 -296 q 274 -294 293 -296 q 236 -285 254 -291 l 273 -151 q 300 -156 283 -154 q 332 -159 318 -159 q 390 -129 364 -159 q 428 -43 416 -98 l 528 455 q 524 579 546 546 q 439 612 502 612 q 360 593 397 612 q 293 541 323 574 l 185 0 l 23 0 l 170 734 l 318 734 l 307 641 z "},"Ō":{"ha":890,"x_min":56,"x_max":916,"o":"m 845 400 q 687 96 806 205 q 398 -14 569 -14 q 149 110 242 -14 q 92 409 56 233 l 127 587 q 280 891 165 781 q 562 1002 395 1002 q 818 877 721 1002 q 880 578 916 753 l 845 400 m 720 579 q 692 787 745 708 q 534 866 640 866 q 379 789 445 866 q 288 588 313 711 l 253 409 q 275 200 227 279 q 425 121 324 121 q 589 198 519 121 q 684 400 659 275 l 720 579 m 846 1116 l 382 1116 l 399 1223 l 863 1223 l 846 1116 z "},"ō":{"ha":741,"x_min":39,"x_max":722,"o":"m 68 374 q 194 646 95 544 q 441 747 293 747 q 652 642 583 747 q 696 374 722 536 l 694 359 q 568 87 667 188 q 321 -14 469 -14 q 109 91 179 -14 q 66 359 39 197 l 68 374 m 228 359 q 236 182 210 248 q 342 117 262 117 q 466 185 416 117 q 532 359 515 254 l 534 374 q 525 549 551 484 q 420 615 498 615 q 296 546 346 615 q 230 374 246 477 l 228 359 m 696 883 l 233 883 l 250 990 l 713 990 l 696 883 z "},"Ŏ":{"ha":890,"x_min":56,"x_max":916,"o":"m 845 400 q 687 96 806 205 q 398 -14 569 -14 q 149 110 242 -14 q 92 409 56 233 l 127 587 q 280 891 165 781 q 562 1002 395 1002 q 818 877 721 1002 q 880 578 916 753 l 845 400 m 720 579 q 692 787 745 708 q 534 866 640 866 q 379 789 445 866 q 288 588 313 711 l 253 409 q 275 200 227 279 q 425 121 324 121 q 589 198 519 121 q 684 400 659 275 l 720 579 m 840 1292 l 842 1288 q 768 1151 831 1202 q 610 1100 705 1100 q 470 1153 519 1100 q 438 1289 422 1206 l 439 1292 l 560 1292 q 569 1227 553 1252 q 626 1202 585 1202 q 689 1228 665 1202 q 720 1292 714 1253 l 840 1292 z "},"ŏ":{"ha":741,"x_min":39,"x_max":722,"o":"m 68 374 q 194 646 95 544 q 441 747 293 747 q 652 642 583 747 q 696 374 722 536 l 694 359 q 568 87 667 188 q 321 -14 469 -14 q 109 91 179 -14 q 66 359 39 197 l 68 374 m 228 359 q 236 182 210 248 q 342 117 262 117 q 466 185 416 117 q 532 359 515 254 l 534 374 q 525 549 551 484 q 420 615 498 615 q 296 546 346 615 q 230 374 246 477 l 228 359 m 691 1059 l 692 1055 q 618 918 682 969 q 460 867 555 867 q 321 920 370 867 q 289 1056 273 973 l 290 1059 l 411 1059 q 420 995 404 1019 q 477 970 435 970 q 540 995 515 970 q 571 1059 565 1021 l 691 1059 z "},"Ő":{"ha":890,"x_min":56,"x_max":984,"o":"m 845 400 q 687 96 806 205 q 398 -14 569 -14 q 149 110 242 -14 q 92 409 56 233 l 127 587 q 280 891 165 781 q 562 1002 395 1002 q 818 877 721 1002 q 880 578 916 753 l 845 400 m 720 579 q 692 787 745 708 q 534 866 640 866 q 379 789 445 866 q 288 588 313 711 l 253 409 q 275 200 227 279 q 425 121 324 121 q 589 198 519 121 q 684 400 659 275 l 720 579 m 815 1280 l 983 1280 l 984 1276 l 764 1100 l 631 1100 l 630 1104 l 815 1280 m 587 1280 l 747 1280 l 749 1276 l 562 1100 l 437 1100 l 436 1103 l 587 1280 z "},"ő":{"ha":741,"x_min":39,"x_max":835,"o":"m 68 374 q 194 646 95 544 q 441 747 293 747 q 652 642 583 747 q 696 374 722 536 l 694 359 q 568 87 667 188 q 321 -14 469 -14 q 109 91 179 -14 q 66 359 39 197 l 68 374 m 228 359 q 236 182 210 248 q 342 117 262 117 q 466 185 416 117 q 532 359 515 254 l 534 374 q 525 549 551 484 q 420 615 498 615 q 296 546 346 615 q 230 374 246 477 l 228 359 m 666 1048 l 833 1048 l 835 1044 l 614 867 l 482 867 l 481 871 l 666 1048 m 437 1048 l 598 1048 l 600 1044 l 412 867 l 288 867 l 287 871 l 437 1048 z "},"Œ":{"ha":1255,"x_min":52,"x_max":1326,"o":"m 1134 0 l 559 0 q 459 -11 500 -7 q 376 -14 418 -14 q 137 100 222 -14 q 87 391 52 214 l 128 597 q 288 895 166 788 q 578 1002 409 1002 q 664 998 618 1002 q 756 987 710 994 l 1326 987 l 1300 855 l 843 855 l 787 576 l 1185 576 l 1158 444 l 761 444 l 699 132 l 1160 132 l 1134 0 m 403 118 q 467 120 433 118 q 536 128 501 123 l 682 859 q 615 866 647 863 q 551 869 583 869 q 388 799 460 869 q 290 598 315 728 l 248 391 q 261 183 220 249 q 403 118 302 118 z "},"œ":{"ha":1170,"x_min":43,"x_max":1176,"o":"m 78 374 q 214 648 113 548 q 465 747 316 747 q 590 717 536 747 q 675 633 644 687 q 791 718 727 688 q 926 747 856 747 q 1116 656 1057 747 q 1147 416 1176 564 l 1127 319 l 703 319 q 721 171 690 224 q 829 117 751 117 q 936 134 886 117 q 1031 180 986 151 l 1061 73 q 947 11 1015 36 q 793 -14 878 -14 q 667 15 722 -14 q 580 98 612 44 q 461 14 528 43 q 315 -14 394 -14 q 110 92 177 -14 q 75 359 43 198 l 78 374 m 237 359 q 238 181 214 245 q 341 117 262 117 q 467 186 413 117 q 541 359 520 255 l 544 374 q 542 550 566 486 q 439 615 518 615 q 313 546 367 615 q 239 374 260 476 l 237 359 m 899 615 q 804 566 850 615 q 734 444 758 517 l 736 440 l 991 440 l 995 457 q 987 573 1010 531 q 899 615 964 615 z "},"Ŕ":{"ha":863,"x_min":44,"x_max":877,"o":"m 288 410 l 207 0 l 44 0 l 241 987 l 585 987 q 803 911 729 987 q 850 700 877 836 q 786 564 833 618 q 659 477 739 510 q 752 390 728 450 q 760 245 777 330 l 744 163 q 737 77 734 117 q 759 16 739 37 l 755 0 l 589 0 q 570 71 568 22 q 583 165 572 119 l 598 244 q 585 367 614 325 q 488 410 556 410 l 288 410 m 315 542 l 488 542 q 621 581 570 542 q 687 696 671 620 q 672 815 703 775 q 558 855 641 855 l 378 855 l 315 542 m 625 1238 l 808 1238 l 602 1057 l 476 1057 l 625 1238 z "},"ŕ":{"ha":469,"x_min":24,"x_max":629,"o":"m 492 583 l 417 586 q 345 566 377 586 q 288 509 312 545 l 186 0 l 24 0 l 171 734 l 319 734 l 310 637 q 391 719 346 690 q 488 747 436 747 q 517 745 501 747 q 542 739 533 743 l 492 583 m 446 1019 l 629 1019 l 423 839 l 297 839 l 446 1019 z "},"Ŗ":{"ha":863,"x_min":44,"x_max":877,"o":"m 288 410 l 207 0 l 44 0 l 241 987 l 585 987 q 803 911 729 987 q 850 700 877 836 q 786 564 833 618 q 659 477 739 510 q 752 390 728 450 q 760 245 777 330 l 744 163 q 737 77 734 117 q 759 16 739 37 l 755 0 l 589 0 q 570 71 568 22 q 583 165 572 119 l 598 244 q 585 367 614 325 q 488 410 556 410 l 288 410 m 315 542 l 488 542 q 621 581 570 542 q 687 696 671 620 q 672 815 703 775 q 558 855 641 855 l 378 855 l 315 542 m 359 -167 l 243 -328 l 172 -328 l 245 -160 l 264 -64 l 380 -64 l 359 -167 z "},"ŗ":{"ha":469,"x_min":-54,"x_max":542,"o":"m 492 583 l 417 586 q 345 566 377 586 q 288 509 312 545 l 186 0 l 24 0 l 171 734 l 319 734 l 310 637 q 391 719 346 690 q 488 747 436 747 q 517 745 501 747 q 542 739 533 743 l 492 583 m 134 -167 l 18 -328 l -54 -328 l 20 -160 l 39 -64 l 155 -64 l 134 -167 z "},"Ř":{"ha":863,"x_min":44,"x_max":877,"o":"m 288 410 l 207 0 l 44 0 l 241 987 l 585 987 q 803 911 729 987 q 850 700 877 836 q 786 564 833 618 q 659 477 739 510 q 752 390 728 450 q 760 245 777 330 l 744 163 q 737 77 734 117 q 759 16 739 37 l 755 0 l 589 0 q 570 71 568 22 q 583 165 572 119 l 598 244 q 585 367 614 325 q 488 410 556 410 l 288 410 m 315 542 l 488 542 q 621 581 570 542 q 687 696 671 620 q 672 815 703 775 q 558 855 641 855 l 378 855 l 315 542 m 575 1176 l 674 1267 l 817 1267 l 814 1255 l 608 1086 l 506 1086 l 369 1254 l 372 1267 l 513 1267 l 575 1176 z "},"ř":{"ha":469,"x_min":24,"x_max":639,"o":"m 492 583 l 417 586 q 345 566 377 586 q 288 509 312 545 l 186 0 l 24 0 l 171 734 l 319 734 l 310 637 q 391 719 346 690 q 488 747 436 747 q 517 745 501 747 q 542 739 533 743 l 492 583 m 397 958 l 496 1048 l 639 1048 l 637 1037 l 431 867 l 328 867 l 191 1036 l 194 1048 l 335 1048 l 397 958 z "},"Ś":{"ha":808,"x_min":41,"x_max":831,"o":"m 584 234 q 563 345 598 305 q 421 424 527 385 q 207 549 273 475 q 167 752 141 623 q 286 937 191 873 q 517 1002 381 1002 q 748 921 666 1002 q 800 699 831 840 l 798 695 l 642 695 q 616 822 658 774 q 491 869 574 869 q 386 836 433 869 q 329 753 338 802 q 348 645 314 680 q 501 564 382 610 q 709 439 647 512 q 745 235 771 366 q 625 47 720 109 q 388 -14 529 -14 q 141 60 241 -14 q 75 288 41 134 l 77 292 l 233 292 q 269 156 213 194 q 414 117 325 117 q 524 151 473 117 q 584 234 574 184 m 625 1252 l 809 1252 l 603 1072 l 477 1072 l 625 1252 z "},"ś":{"ha":681,"x_min":28,"x_max":678,"o":"m 448 199 q 429 263 454 238 q 326 307 404 288 q 153 386 208 334 q 112 525 98 437 q 210 684 127 621 q 414 747 293 747 q 601 681 534 747 q 648 517 667 614 l 646 513 l 490 513 q 473 592 498 560 q 394 624 448 624 q 311 597 344 624 q 271 532 277 570 q 288 470 265 492 q 389 430 311 448 q 569 350 515 401 q 608 208 623 298 q 507 46 592 106 q 294 -14 421 -14 q 97 60 165 -14 q 47 227 28 134 l 49 231 l 200 231 q 226 138 192 168 q 315 109 260 109 q 405 134 370 109 q 448 199 441 159 m 494 1019 l 678 1019 l 472 839 l 346 839 l 494 1019 z "},"Ŝ":{"ha":808,"x_min":41,"x_max":831,"o":"m 584 234 q 563 345 598 305 q 421 424 527 385 q 207 549 273 475 q 167 752 141 623 q 286 937 191 873 q 517 1002 381 1002 q 748 921 666 1002 q 800 699 831 840 l 798 695 l 642 695 q 616 822 658 774 q 491 869 574 869 q 386 836 433 869 q 329 753 338 802 q 348 645 314 680 q 501 564 382 610 q 709 439 647 512 q 745 235 771 366 q 625 47 720 109 q 388 -14 529 -14 q 141 60 241 -14 q 75 288 41 134 l 77 292 l 233 292 q 269 156 213 194 q 414 117 325 117 q 524 151 473 117 q 584 234 574 184 m 779 1114 l 775 1097 l 646 1097 l 577 1192 l 471 1097 l 342 1097 l 347 1115 l 549 1278 l 642 1278 l 779 1114 z "},"ŝ":{"ha":681,"x_min":28,"x_max":667,"o":"m 448 199 q 429 263 454 238 q 326 307 404 288 q 153 386 208 334 q 112 525 98 437 q 210 684 127 621 q 414 747 293 747 q 601 681 534 747 q 648 517 667 614 l 646 513 l 490 513 q 473 592 498 560 q 394 624 448 624 q 311 597 344 624 q 271 532 277 570 q 288 470 265 492 q 389 430 311 448 q 569 350 515 401 q 608 208 623 298 q 507 46 592 106 q 294 -14 421 -14 q 97 60 165 -14 q 47 227 28 134 l 49 231 l 200 231 q 226 138 192 168 q 315 109 260 109 q 405 134 370 109 q 448 199 441 159 m 649 881 l 646 865 l 517 865 l 448 959 l 341 865 l 213 865 l 217 882 l 419 1046 l 512 1046 l 649 881 z "},"Ş":{"ha":808,"x_min":41,"x_max":831,"o":"m 584 234 q 563 345 598 305 q 421 424 527 385 q 207 549 273 475 q 167 752 141 623 q 286 937 191 873 q 517 1002 381 1002 q 748 921 666 1002 q 800 699 831 840 l 798 695 l 642 695 q 616 822 658 774 q 491 869 574 869 q 386 836 433 869 q 329 753 338 802 q 348 645 314 680 q 501 564 382 610 q 709 439 647 512 q 745 235 771 366 q 625 47 720 109 q 388 -14 529 -14 q 141 60 241 -14 q 75 288 41 134 l 77 292 l 233 292 q 269 156 213 194 q 414 117 325 117 q 524 151 473 117 q 584 234 574 184 m 406 -3 l 391 -40 q 449 -75 428 -47 q 459 -157 469 -103 q 385 -269 444 -231 q 227 -306 325 -307 l 223 -304 l 236 -216 q 296 -200 271 -216 q 329 -155 322 -185 q 317 -112 335 -123 q 248 -98 298 -101 l 288 -3 l 406 -3 z "},"ş":{"ha":681,"x_min":28,"x_max":667,"o":"m 448 199 q 429 263 454 238 q 326 307 404 288 q 153 386 208 334 q 112 525 98 437 q 210 684 127 621 q 414 747 293 747 q 601 681 534 747 q 648 517 667 614 l 646 513 l 490 513 q 473 592 498 560 q 394 624 448 624 q 311 597 344 624 q 271 532 277 570 q 288 470 265 492 q 389 430 311 448 q 569 350 515 401 q 608 208 623 298 q 507 46 592 106 q 294 -14 421 -14 q 97 60 165 -14 q 47 227 28 134 l 49 231 l 200 231 q 226 138 192 168 q 315 109 260 109 q 405 134 370 109 q 448 199 441 159 m 351 -3 l 336 -40 q 394 -75 374 -47 q 405 -157 415 -103 q 330 -269 390 -231 q 172 -306 271 -307 l 169 -304 l 182 -216 q 242 -200 216 -216 q 275 -155 268 -185 q 262 -112 281 -123 q 194 -98 244 -101 l 233 -3 l 351 -3 z "},"Š":{"ha":808,"x_min":41,"x_max":831,"o":"m 584 234 q 563 345 598 305 q 421 424 527 385 q 207 549 273 475 q 167 752 141 623 q 286 937 191 873 q 517 1002 381 1002 q 748 921 666 1002 q 800 699 831 840 l 798 695 l 642 695 q 616 822 658 774 q 491 869 574 869 q 386 836 433 869 q 329 753 338 802 q 348 645 314 680 q 501 564 382 610 q 709 439 647 512 q 745 235 771 366 q 625 47 720 109 q 388 -14 529 -14 q 141 60 241 -14 q 75 288 41 134 l 77 292 l 233 292 q 269 156 213 194 q 414 117 325 117 q 524 151 473 117 q 584 234 574 184 m 576 1190 l 675 1281 l 817 1281 l 815 1270 l 609 1100 l 507 1100 l 370 1268 l 372 1281 l 513 1281 l 576 1190 z "},"š":{"ha":681,"x_min":28,"x_max":686,"o":"m 448 199 q 429 263 454 238 q 326 307 404 288 q 153 386 208 334 q 112 525 98 437 q 210 684 127 621 q 414 747 293 747 q 601 681 534 747 q 648 517 667 614 l 646 513 l 490 513 q 473 592 498 560 q 394 624 448 624 q 311 597 344 624 q 271 532 277 570 q 288 470 265 492 q 389 430 311 448 q 569 350 515 401 q 608 208 623 298 q 507 46 592 106 q 294 -14 421 -14 q 97 60 165 -14 q 47 227 28 134 l 49 231 l 200 231 q 226 138 192 168 q 315 109 260 109 q 405 134 370 109 q 448 199 441 159 m 445 958 l 544 1048 l 686 1048 l 684 1037 l 478 867 l 376 867 l 239 1036 l 241 1048 l 382 1048 l 445 958 z "},"Ţ":{"ha":752,"x_min":135,"x_max":870,"o":"m 844 855 l 570 855 l 399 0 l 237 0 l 408 855 l 135 855 l 161 987 l 870 987 l 844 855 m 338 -167 l 222 -328 l 151 -328 l 224 -160 l 243 -64 l 359 -64 l 338 -167 z "},"ţ":{"ha":469,"x_min":60,"x_max":496,"o":"m 410 912 l 374 734 l 496 734 l 471 612 l 350 612 l 269 206 q 273 140 259 157 q 317 122 287 122 q 352 124 333 122 q 386 131 371 127 l 378 10 q 318 -8 353 -1 q 248 -14 284 -14 q 125 40 167 -14 q 107 206 84 94 l 188 612 l 85 612 l 110 734 l 212 734 l 248 912 l 410 912 m 248 -174 l 132 -335 l 60 -335 l 133 -167 l 152 -71 l 268 -71 l 248 -174 z "},"Ť":{"ha":752,"x_min":135,"x_max":870,"o":"m 844 855 l 570 855 l 399 0 l 237 0 l 408 855 l 135 855 l 161 987 l 870 987 l 844 855 m 554 1176 l 653 1267 l 795 1267 l 793 1255 l 587 1086 l 485 1086 l 348 1254 l 351 1267 l 492 1267 l 554 1176 z "},"ť":{"ha":496,"x_min":84,"x_max":683,"o":"m 410 912 l 374 734 l 496 734 l 471 612 l 350 612 l 269 206 q 273 140 259 157 q 317 122 287 122 q 352 124 333 122 q 386 131 371 127 l 378 10 q 318 -8 353 -1 q 248 -14 284 -14 q 125 40 167 -14 q 107 206 84 94 l 188 612 l 85 612 l 110 734 l 212 734 l 248 912 l 410 912 m 663 975 l 547 814 l 475 814 l 548 982 l 567 1078 l 683 1078 l 663 975 z "},"Ŧ":{"ha":752,"x_min":135,"x_max":870,"o":"m 633 533 l 506 533 l 399 0 l 237 0 l 344 533 l 217 533 l 240 648 l 367 648 l 408 855 l 135 855 l 161 987 l 870 987 l 844 855 l 570 855 l 529 648 l 656 648 l 633 533 z "},"ŧ":{"ha":469,"x_min":16,"x_max":496,"o":"m 410 912 l 374 734 l 496 734 l 471 612 l 350 612 l 328 500 l 456 500 l 433 385 l 304 385 l 269 206 q 273 140 259 157 q 317 122 287 122 q 352 124 333 122 q 386 131 371 127 l 378 10 q 318 -8 353 -1 q 248 -14 284 -14 q 125 40 167 -14 q 107 206 84 94 l 142 385 l 16 385 l 39 500 l 165 500 l 188 612 l 85 612 l 110 734 l 212 734 l 248 912 l 410 912 z "},"Ũ":{"ha":888,"x_min":60,"x_max":945,"o":"m 945 987 l 812 326 q 663 68 777 151 q 381 -14 548 -14 q 146 75 232 -14 q 93 326 60 164 l 225 987 l 387 987 l 255 326 q 274 166 233 215 q 408 117 316 117 q 562 170 494 117 q 650 326 630 223 l 783 987 l 945 987 m 862 1256 q 806 1145 851 1190 q 703 1101 761 1101 q 612 1131 661 1101 q 532 1161 564 1161 q 488 1139 509 1161 q 463 1086 467 1117 l 380 1110 q 435 1222 391 1176 q 538 1268 480 1268 q 624 1238 572 1268 q 710 1208 677 1208 q 754 1230 733 1208 q 780 1282 775 1251 l 862 1256 z "},"ũ":{"ha":741,"x_min":48,"x_max":748,"o":"m 458 0 l 467 93 q 370 13 424 40 q 252 -14 316 -14 q 98 62 149 -14 q 80 295 48 139 l 168 734 l 329 734 l 241 294 q 240 155 220 191 q 317 120 259 120 q 409 142 367 120 q 480 205 450 164 l 586 734 l 748 734 l 602 0 l 458 0 m 739 1023 q 683 912 728 957 q 579 868 637 868 q 489 898 537 868 q 408 928 441 928 q 365 906 385 928 q 339 854 344 884 l 257 878 q 312 989 267 943 q 415 1036 357 1036 q 501 1005 448 1036 q 587 975 553 975 q 631 997 610 975 q 656 1050 652 1019 l 739 1023 z "},"Ū":{"ha":888,"x_min":60,"x_max":945,"o":"m 945 987 l 812 326 q 663 68 777 151 q 381 -14 548 -14 q 146 75 232 -14 q 93 326 60 164 l 225 987 l 387 987 l 255 326 q 274 166 233 215 q 408 117 316 117 q 562 170 494 117 q 650 326 630 223 l 783 987 l 945 987 m 842 1101 l 378 1101 l 395 1208 l 859 1208 l 842 1101 z "},"ū":{"ha":741,"x_min":48,"x_max":748,"o":"m 458 0 l 467 93 q 370 13 424 40 q 252 -14 316 -14 q 98 62 149 -14 q 80 295 48 139 l 168 734 l 329 734 l 241 294 q 240 155 220 191 q 317 120 259 120 q 409 142 367 120 q 480 205 450 164 l 586 734 l 748 734 l 602 0 l 458 0 m 718 870 l 255 870 l 272 977 l 735 977 l 718 870 z "},"Ŭ":{"ha":888,"x_min":60,"x_max":945,"o":"m 945 987 l 812 326 q 663 68 777 151 q 381 -14 548 -14 q 146 75 232 -14 q 93 326 60 164 l 225 987 l 387 987 l 255 326 q 274 166 233 215 q 408 117 316 117 q 562 170 494 117 q 650 326 630 223 l 783 987 l 945 987 m 836 1278 l 838 1274 q 764 1137 827 1187 q 606 1086 701 1086 q 466 1139 515 1086 q 434 1274 418 1192 l 435 1278 l 556 1278 q 565 1213 549 1238 q 622 1188 581 1188 q 685 1214 661 1188 q 716 1278 710 1239 l 836 1278 z "},"ŭ":{"ha":741,"x_min":48,"x_max":748,"o":"m 458 0 l 467 93 q 370 13 424 40 q 252 -14 316 -14 q 98 62 149 -14 q 80 295 48 139 l 168 734 l 329 734 l 241 294 q 240 155 220 191 q 317 120 259 120 q 409 142 367 120 q 480 205 450 164 l 586 734 l 748 734 l 602 0 l 458 0 m 713 1045 l 714 1041 q 640 904 703 955 q 482 853 577 853 q 343 906 391 853 q 311 1042 294 959 l 312 1045 l 433 1045 q 441 980 426 1005 q 498 956 457 956 q 562 981 537 956 q 593 1045 587 1006 l 713 1045 z "},"Ů":{"ha":888,"x_min":60,"x_max":945,"o":"m 945 987 l 812 326 q 663 68 777 151 q 381 -14 548 -14 q 146 75 232 -14 q 93 326 60 164 l 225 987 l 387 987 l 255 326 q 274 166 233 215 q 408 117 316 117 q 562 170 494 117 q 650 326 630 223 l 783 987 l 945 987 m 486 1178 q 545 1276 498 1239 q 650 1312 591 1312 q 736 1273 703 1312 q 758 1178 769 1234 q 700 1081 745 1116 q 597 1046 655 1046 q 509 1084 543 1046 q 486 1178 475 1121 m 558 1178 q 567 1128 552 1147 q 610 1109 582 1109 q 657 1129 635 1109 q 686 1178 680 1149 q 679 1230 693 1211 q 637 1249 665 1249 q 588 1228 612 1249 q 558 1178 564 1208 z "},"ů":{"ha":741,"x_min":48,"x_max":748,"o":"m 458 0 l 467 93 q 370 13 424 40 q 252 -14 316 -14 q 98 62 149 -14 q 80 295 48 139 l 168 734 l 329 734 l 241 294 q 240 155 220 191 q 317 120 259 120 q 409 142 367 120 q 480 205 450 164 l 586 734 l 748 734 l 602 0 l 458 0 m 363 945 q 421 1043 375 1006 q 527 1080 468 1080 q 613 1041 580 1080 q 635 945 646 1002 q 577 849 622 884 q 474 814 532 814 q 386 851 420 814 q 363 945 351 888 m 435 945 q 444 896 429 914 q 486 877 458 877 q 534 897 511 877 q 563 945 557 916 q 555 997 570 978 q 514 1016 541 1016 q 465 996 488 1016 q 435 945 441 975 z "},"Ű":{"ha":888,"x_min":60,"x_max":980,"o":"m 945 987 l 812 326 q 663 68 777 151 q 381 -14 548 -14 q 146 75 232 -14 q 93 326 60 164 l 225 987 l 387 987 l 255 326 q 274 166 233 215 q 408 117 316 117 q 562 170 494 117 q 650 326 630 223 l 783 987 l 945 987 m 811 1266 l 979 1266 l 980 1262 l 760 1086 l 627 1086 l 626 1090 l 811 1266 m 583 1266 l 743 1266 l 745 1262 l 557 1086 l 433 1086 l 432 1089 l 583 1266 z "},"ű":{"ha":741,"x_min":48,"x_max":857,"o":"m 458 0 l 467 93 q 370 13 424 40 q 252 -14 316 -14 q 98 62 149 -14 q 80 295 48 139 l 168 734 l 329 734 l 241 294 q 240 155 220 191 q 317 120 259 120 q 409 142 367 120 q 480 205 450 164 l 586 734 l 748 734 l 602 0 l 458 0 m 688 1034 l 855 1034 l 857 1029 l 636 853 l 504 853 l 503 857 l 688 1034 m 459 1034 l 620 1034 l 621 1029 l 434 853 l 310 853 l 309 857 l 459 1034 z "},"Ų":{"ha":888,"x_min":60,"x_max":945,"o":"m 945 987 l 812 326 q 663 68 777 151 q 381 -14 548 -14 q 146 75 232 -14 q 93 326 60 164 l 225 987 l 387 987 l 255 326 q 274 166 233 215 q 408 117 316 117 q 562 170 494 117 q 650 326 630 223 l 783 987 l 945 987 m 568 0 q 496 -63 522 -34 q 463 -127 470 -92 q 468 -166 458 -151 q 511 -181 477 -181 q 542 -176 526 -181 q 573 -165 557 -172 l 577 -262 q 521 -283 551 -275 q 452 -292 490 -292 q 353 -253 390 -292 q 330 -146 317 -214 q 385 -43 341 -90 q 511 41 428 3 l 568 0 z "},"ų":{"ha":741,"x_min":48,"x_max":748,"o":"m 458 0 l 467 93 q 370 13 424 40 q 252 -14 316 -14 q 98 62 149 -14 q 80 295 48 139 l 168 734 l 329 734 l 241 294 q 240 155 220 191 q 317 120 259 120 q 409 142 367 120 q 480 205 450 164 l 586 734 l 748 734 l 602 0 l 458 0 m 566 0 q 494 -63 520 -34 q 461 -127 468 -92 q 466 -166 456 -151 q 509 -181 475 -181 q 540 -176 524 -181 q 571 -165 555 -172 l 575 -262 q 519 -283 549 -275 q 450 -292 488 -292 q 351 -253 388 -292 q 328 -146 315 -214 q 382 -43 339 -90 q 509 41 426 3 l 566 0 z "},"Ŵ":{"ha":1147,"x_min":138,"x_max":1224,"o":"m 810 283 l 814 283 l 1065 987 l 1224 987 l 850 0 l 703 0 l 637 695 l 633 696 l 343 0 l 195 0 l 138 987 l 298 987 l 323 285 l 328 284 l 616 987 l 745 987 l 810 283 m 916 1099 l 913 1083 l 784 1083 l 715 1177 l 608 1083 l 480 1083 l 484 1101 l 686 1264 l 779 1264 l 916 1099 z "},"ŵ":{"ha":971,"x_min":113,"x_max":1032,"o":"m 671 227 l 675 227 l 877 734 l 1032 734 l 700 0 l 568 0 l 526 489 l 522 490 l 285 0 l 153 0 l 113 734 l 269 734 l 273 235 l 277 235 l 514 734 l 631 734 l 671 227 m 817 867 l 814 850 l 685 850 l 616 945 l 509 850 l 381 850 l 385 868 l 587 1031 l 680 1031 l 817 867 z "},"Ŷ":{"ha":819,"x_min":154,"x_max":943,"o":"m 453 524 l 457 523 l 763 987 l 943 987 l 498 345 l 429 0 l 268 0 l 339 357 l 154 987 l 335 987 l 453 524 m 790 1099 l 787 1083 l 658 1083 l 589 1177 l 482 1083 l 354 1083 l 358 1101 l 560 1264 l 653 1264 l 790 1099 z "},"ŷ":{"ha":665,"x_min":-48,"x_max":739,"o":"m 313 294 l 314 234 l 318 233 l 562 734 l 739 734 l 290 -111 q 186 -242 247 -187 q 35 -296 125 -296 q -6 -292 16 -296 q -48 -283 -28 -288 l -5 -155 q 18 -157 3 -156 q 41 -159 33 -159 q 112 -126 78 -159 q 165 -58 146 -93 l 203 8 l 101 734 l 278 734 l 313 294 m 663 867 l 660 850 l 531 850 l 462 945 l 355 850 l 227 850 l 231 868 l 433 1031 l 526 1031 l 663 867 z "},"Ÿ":{"ha":819,"x_min":154,"x_max":943,"o":"m 453 524 l 457 523 l 763 987 l 943 987 l 498 345 l 429 0 l 268 0 l 339 357 l 154 987 l 335 987 l 453 524 m 802 1086 l 644 1086 l 666 1224 l 824 1224 l 802 1086 m 496 1086 l 338 1086 l 361 1224 l 518 1224 l 496 1086 z "},"Ź":{"ha":773,"x_min":18,"x_max":795,"o":"m 219 132 l 656 132 l 629 0 l 18 0 l 20 103 l 551 855 l 165 855 l 192 987 l 772 987 l 753 888 l 219 132 m 611 1238 l 795 1238 l 589 1058 l 463 1058 l 611 1238 z "},"ź":{"ha":665,"x_min":-1,"x_max":697,"o":"m 224 135 l 226 132 l 582 132 l 555 0 l -1 0 l 21 108 l 458 597 l 456 601 l 125 601 l 152 734 l 687 734 l 667 629 l 224 135 m 513 1005 l 697 1005 l 491 825 l 365 825 l 513 1005 z "},"Ż":{"ha":773,"x_min":18,"x_max":772,"o":"m 219 132 l 656 132 l 629 0 l 18 0 l 20 103 l 551 855 l 165 855 l 192 987 l 772 987 l 753 888 l 219 132 m 629 1087 l 458 1087 l 488 1238 l 659 1238 l 629 1087 z "},"ż":{"ha":665,"x_min":-1,"x_max":687,"o":"m 224 135 l 226 132 l 582 132 l 555 0 l -1 0 l 21 108 l 458 597 l 456 601 l 125 601 l 152 734 l 687 734 l 667 629 l 224 135 m 532 854 l 360 854 l 390 1005 l 562 1005 l 532 854 z "},"Ž":{"ha":773,"x_min":18,"x_max":803,"o":"m 219 132 l 656 132 l 629 0 l 18 0 l 20 103 l 551 855 l 165 855 l 192 987 l 772 987 l 753 888 l 219 132 m 562 1177 l 661 1267 l 803 1267 l 801 1256 l 595 1086 l 492 1086 l 355 1255 l 358 1267 l 499 1267 l 562 1177 z "},"ž":{"ha":665,"x_min":-1,"x_max":705,"o":"m 224 135 l 226 132 l 582 132 l 555 0 l -1 0 l 21 108 l 458 597 l 456 601 l 125 601 l 152 734 l 687 734 l 667 629 l 224 135 m 464 943 l 563 1034 l 705 1034 l 703 1023 l 497 853 l 395 853 l 258 1021 l 260 1034 l 401 1034 l 464 943 z "},"ſ":{"ha":342,"x_min":32,"x_max":578,"o":"m 32 0 l 196 819 q 295 1010 222 948 q 484 1072 368 1072 q 528 1068 505 1072 q 578 1058 552 1064 l 536 932 q 510 938 523 936 q 481 940 497 940 q 402 908 435 940 q 357 819 368 876 l 193 0 l 32 0 z "},"ƒ":{"ha":465,"x_min":-109,"x_max":585,"o":"m 462 612 l 340 612 l 235 -43 q 145 -233 214 -169 q -31 -296 77 -296 q -71 -294 -53 -296 q -109 -285 -90 -291 l -79 -155 q -51 -161 -69 -159 q -20 -164 -33 -164 q 38 -132 14 -164 q 73 -43 63 -99 l 177 612 l 74 612 l 94 734 l 197 734 l 210 819 q 303 1009 231 945 q 489 1072 375 1072 q 534 1068 511 1072 q 585 1058 557 1065 l 547 930 q 520 935 535 933 q 488 937 505 937 q 411 907 441 937 q 373 819 382 876 l 359 734 l 481 734 l 462 612 z "},"Ơ":{"ha":899,"x_min":52,"x_max":1142,"o":"m 844 405 q 677 99 805 212 q 378 -14 550 -14 q 138 106 223 -14 q 88 405 52 227 l 124 583 q 287 888 162 774 q 580 1002 412 1002 q 715 972 654 1002 q 819 890 777 943 q 938 962 888 905 q 1006 1109 988 1019 l 1140 1109 l 1142 1105 q 1048 888 1116 970 q 876 777 981 806 q 889 684 888 733 q 880 583 890 635 l 844 405 m 718 584 q 701 790 745 715 q 553 866 656 866 q 386 785 462 866 q 286 584 310 705 l 250 405 q 264 196 223 272 q 405 121 305 121 q 579 202 500 121 q 682 405 658 283 l 718 584 z "},"ơ":{"ha":755,"x_min":39,"x_max":904,"o":"m 67 374 q 193 646 94 544 q 440 747 292 747 q 559 722 507 747 q 646 650 612 696 q 729 714 695 667 q 778 832 764 762 l 903 832 l 904 829 q 829 656 884 722 q 687 566 774 590 q 702 475 699 524 q 696 374 704 426 l 694 359 q 567 87 666 188 q 320 -14 469 -14 q 109 91 178 -14 q 65 359 39 197 l 67 374 m 227 359 q 235 182 209 248 q 341 117 262 117 q 465 185 415 117 q 532 359 515 254 l 534 374 q 524 549 551 484 q 419 615 498 615 q 295 546 345 615 q 229 374 245 477 l 227 359 z "},"Ư":{"ha":922,"x_min":60,"x_max":1200,"o":"m 945 987 l 922 871 l 926 870 q 1012 944 975 888 q 1065 1084 1048 1000 l 1199 1084 l 1200 1080 q 1096 846 1172 929 q 896 743 1020 763 l 812 326 q 663 68 777 151 q 381 -14 548 -14 q 146 75 232 -14 q 93 326 60 164 l 225 987 l 387 987 l 255 326 q 274 166 233 215 q 408 117 316 117 q 562 170 494 117 q 650 326 630 223 l 783 987 l 945 987 z "},"ư":{"ha":821,"x_min":48,"x_max":954,"o":"m 951 804 l 954 800 q 874 626 932 685 q 712 554 817 568 l 602 0 l 458 0 l 467 93 q 370 13 424 40 q 252 -14 316 -14 q 98 62 149 -14 q 80 295 48 139 l 168 734 l 329 734 l 241 294 q 240 155 220 191 q 317 120 259 120 q 409 142 367 120 q 480 205 450 164 l 586 734 l 748 734 l 732 657 l 736 656 q 802 702 776 665 q 841 804 827 740 l 951 804 z "},"ǰ":{"ha":359,"x_min":-155,"x_max":549,"o":"m 354 734 l 199 -43 q 102 -234 172 -172 q -77 -296 32 -296 q -117 -294 -97 -296 q -155 -285 -136 -291 l -119 -155 q -90 -161 -109 -159 q -60 -164 -72 -164 q -1 -131 -27 -164 q 37 -43 26 -98 l 193 734 l 354 734 m 308 935 l 407 1026 l 549 1026 l 547 1015 l 341 845 l 239 845 l 102 1013 l 104 1026 l 245 1026 l 308 935 z "},"Ǻ":{"ha":852,"x_min":-40,"x_max":886,"o":"m 591 231 l 243 231 l 123 0 l -40 0 l 494 987 l 647 987 l 782 0 l 618 0 l 591 231 m 314 368 l 576 368 l 530 777 l 526 777 l 314 368 m 734 1434 l 884 1434 l 886 1430 l 707 1299 l 610 1299 l 608 1303 l 734 1434 m 496 1146 q 548 1234 507 1201 q 642 1267 589 1267 q 716 1232 688 1267 q 736 1146 745 1197 q 685 1060 725 1091 q 594 1029 644 1029 q 516 1062 546 1029 q 496 1146 486 1095 m 562 1146 q 569 1104 555 1120 q 606 1088 582 1088 q 646 1105 627 1088 q 671 1146 665 1122 q 664 1191 676 1174 q 630 1207 652 1207 q 587 1189 608 1207 q 562 1146 566 1171 z "},"ǻ":{"ha":711,"x_min":26,"x_max":749,"o":"m 433 0 q 430 45 430 23 q 431 90 429 68 q 335 15 389 45 q 222 -14 280 -14 q 76 46 125 -14 q 47 207 26 107 q 157 376 69 320 q 389 432 244 432 l 496 432 l 509 496 q 497 588 521 557 q 417 619 474 619 q 332 592 369 619 q 286 522 294 564 l 131 522 l 130 526 q 235 683 144 618 q 452 747 325 747 q 630 681 565 747 q 671 495 695 614 l 606 169 q 594 80 596 120 q 597 0 591 40 l 433 0 m 284 118 q 376 142 329 118 q 450 201 422 167 l 475 329 l 366 329 q 263 293 307 329 q 210 210 219 257 q 219 141 200 165 q 284 118 237 118 m 597 1215 l 747 1215 l 749 1211 l 570 1081 l 473 1081 l 471 1085 l 597 1215 m 359 928 q 411 1016 370 983 q 505 1048 452 1048 q 579 1014 551 1048 q 599 928 608 979 q 548 842 588 873 q 457 810 507 810 q 379 844 409 810 q 359 928 349 877 m 425 928 q 432 885 418 901 q 469 869 445 869 q 509 886 490 869 q 534 928 528 903 q 527 972 539 956 q 493 989 515 989 q 450 971 471 989 q 425 928 429 953 z "},"Ǽ":{"ha":1226,"x_min":-64,"x_max":1295,"o":"m 1136 0 l 563 0 l 600 231 l 291 231 l 130 0 l -64 0 l 659 987 l 1295 987 l 1268 854 l 862 854 l 817 577 l 1161 577 l 1135 444 l 796 444 l 746 133 l 1162 133 l 1136 0 m 623 376 l 690 795 l 686 796 l 393 376 l 623 376 m 817 1238 l 1000 1238 l 794 1057 l 668 1057 l 817 1238 z "},"ǽ":{"ha":1097,"x_min":-1,"x_max":1112,"o":"m 733 -14 q 596 17 655 -14 q 505 104 538 47 q 382 20 458 54 q 213 -14 307 -14 q 52 47 106 -14 q 18 212 -1 109 q 127 380 41 326 q 363 435 214 435 l 490 435 l 499 484 q 491 582 512 549 q 418 615 470 615 q 326 584 366 615 q 277 510 286 553 l 125 522 l 123 526 q 229 688 141 628 q 446 747 316 747 q 555 726 507 747 q 633 664 604 705 q 739 726 681 705 q 861 747 797 747 q 1050 657 989 747 q 1081 415 1112 566 l 1062 319 l 633 319 q 650 170 618 222 q 769 117 682 117 q 872 134 827 117 q 972 180 918 151 l 998 68 q 887 12 957 37 q 733 -14 818 -14 m 270 111 q 358 136 307 111 q 441 193 409 161 l 467 322 l 342 322 q 235 289 281 322 q 181 209 190 255 q 193 137 172 162 q 270 111 214 111 m 835 615 q 730 566 777 615 q 662 439 684 517 l 664 435 l 925 435 l 929 456 q 922 573 944 532 q 835 615 901 615 m 728 1020 l 912 1020 l 706 840 l 580 840 l 728 1020 z "},"Ǿ":{"ha":894,"x_min":37,"x_max":948,"o":"m 847 405 q 681 99 808 212 q 381 -14 553 -14 q 289 -1 332 -14 q 210 38 245 12 l 134 -64 l 37 -64 l 153 92 q 89 230 106 149 q 92 405 73 311 l 127 583 q 290 888 165 774 q 583 1002 415 1002 q 690 984 640 1002 q 780 934 740 966 l 851 1029 l 948 1029 l 833 876 q 886 742 873 818 q 883 583 899 667 l 847 405 m 253 405 q 243 308 242 353 q 254 234 243 264 l 258 233 l 689 812 q 632 852 666 838 q 556 866 599 866 q 389 785 465 866 q 289 584 313 705 l 253 405 m 722 584 q 731 661 730 625 q 726 724 732 697 l 722 726 l 298 157 q 346 130 319 139 q 408 121 374 121 q 582 202 503 121 q 686 405 661 283 l 722 584 m 682 1280 l 866 1280 l 660 1099 l 534 1099 l 682 1280 z "},"ǿ":{"ha":741,"x_min":42,"x_max":738,"o":"m 68 374 q 194 646 95 544 q 441 747 293 747 q 511 739 478 747 q 573 715 544 730 l 643 822 l 738 822 l 635 665 q 694 538 678 614 q 696 374 710 463 l 694 359 q 568 87 667 188 q 321 -14 469 -14 q 259 -8 288 -14 q 204 9 229 -1 l 136 -94 l 42 -94 l 139 54 q 69 183 88 104 q 66 359 50 263 l 68 374 m 228 359 q 220 268 219 309 q 231 201 220 227 l 235 200 l 492 593 q 460 609 478 604 q 420 615 442 615 q 296 546 346 615 q 230 374 246 477 l 228 359 m 534 374 q 541 449 541 414 q 536 507 541 484 l 532 509 l 283 130 q 309 120 294 123 q 342 117 324 117 q 466 185 416 117 q 532 359 515 254 l 534 374 m 527 1017 l 711 1017 l 505 837 l 378 837 l 527 1017 z "},"Ș":{"ha":808,"x_min":41,"x_max":831,"o":"m 584 234 q 563 345 598 305 q 421 424 527 385 q 207 549 273 475 q 167 752 141 623 q 286 937 191 873 q 517 1002 381 1002 q 748 921 666 1002 q 800 699 831 840 l 798 695 l 642 695 q 616 822 658 774 q 491 869 574 869 q 386 836 433 869 q 329 753 338 802 q 348 645 314 680 q 501 564 382 610 q 709 439 647 512 q 745 235 771 366 q 625 47 720 109 q 388 -14 529 -14 q 141 60 241 -14 q 75 288 41 134 l 77 292 l 233 292 q 269 156 213 194 q 414 117 325 117 q 524 151 473 117 q 584 234 574 184 m 359 -180 l 243 -342 l 172 -342 l 245 -174 l 264 -77 l 380 -77 l 359 -180 z "},"ș":{"ha":681,"x_min":28,"x_max":667,"o":"m 448 199 q 429 263 454 238 q 326 307 404 288 q 153 386 208 334 q 112 525 98 437 q 210 684 127 621 q 414 747 293 747 q 601 681 534 747 q 648 517 667 614 l 646 513 l 490 513 q 473 592 498 560 q 394 624 448 624 q 311 597 344 624 q 271 532 277 570 q 288 470 265 492 q 389 430 311 448 q 569 350 515 401 q 608 208 623 298 q 507 46 592 106 q 294 -14 421 -14 q 97 60 165 -14 q 47 227 28 134 l 49 231 l 200 231 q 226 138 192 168 q 315 109 260 109 q 405 134 370 109 q 448 199 441 159 m 305 -180 l 189 -342 l 117 -342 l 191 -174 l 210 -77 l 326 -77 l 305 -180 z "},"Ț":{"ha":752,"x_min":135,"x_max":870,"o":"m 844 855 l 570 855 l 399 0 l 237 0 l 408 855 l 135 855 l 161 987 l 870 987 l 844 855 m 385 9 l 370 -28 q 428 -63 407 -35 q 438 -145 448 -91 q 363 -257 423 -219 q 205 -294 304 -295 l 202 -292 l 215 -203 q 275 -188 250 -203 q 308 -143 301 -173 q 296 -100 314 -111 q 227 -85 277 -89 l 267 9 l 385 9 z "},"ț":{"ha":469,"x_min":84,"x_max":496,"o":"m 410 912 l 374 734 l 496 734 l 471 612 l 350 612 l 269 206 q 273 140 259 157 q 317 122 287 122 q 352 124 333 122 q 386 131 371 127 l 378 10 q 318 -8 353 -1 q 248 -14 284 -14 q 125 40 167 -14 q 107 206 84 94 l 188 612 l 85 612 l 110 734 l 212 734 l 248 912 l 410 912 m 294 2 l 279 -35 q 337 -70 316 -42 q 347 -152 357 -98 q 273 -264 332 -226 q 115 -300 213 -302 l 111 -298 l 124 -210 q 184 -195 159 -210 q 217 -150 210 -180 q 205 -107 223 -118 q 136 -92 186 -96 l 176 2 l 294 2 z "},"ȷ":{"ha":359,"x_min":-155,"x_max":354,"o":"m 354 734 l 199 -43 q 102 -234 172 -172 q -77 -296 32 -296 q -117 -294 -97 -296 q -155 -285 -136 -291 l -119 -155 q -90 -161 -109 -159 q -60 -164 -72 -164 q -1 -131 -27 -164 q 37 -43 26 -98 l 193 734 l 354 734 z "},"ə":{"ha":693,"x_min":36,"x_max":697,"o":"m 419 749 q 627 644 556 749 q 666 384 697 540 l 661 357 q 522 86 627 185 q 286 -13 418 -14 q 95 78 155 -13 q 66 317 36 169 l 85 414 l 509 414 q 491 562 522 508 q 383 616 460 616 q 276 599 326 616 q 181 553 226 582 l 151 661 q 265 723 196 698 q 419 749 334 749 m 313 119 q 407 167 361 119 q 477 290 452 216 l 475 294 l 221 294 l 218 277 q 224 160 202 202 q 313 119 247 119 z "},"ʼ":{"ha":272,"x_min":125,"x_max":385,"o":"m 358 926 l 204 689 l 125 689 l 210 925 l 237 1058 l 385 1058 l 358 926 z "},"ˆ":{"ha":646,"x_min":213,"x_max":649,"o":"m 649 865 l 646 849 l 517 849 l 448 943 l 341 849 l 213 849 l 217 867 l 419 1030 l 512 1030 l 649 865 z "},"ˇ":{"ha":611,"x_min":225,"x_max":673,"o":"m 431 939 l 530 1030 l 673 1030 l 671 1019 l 465 849 l 362 849 l 225 1017 l 228 1030 l 369 1030 l 431 939 z "},"˘":{"ha":571,"x_min":174,"x_max":593,"o":"m 592 987 l 593 983 q 519 846 583 897 q 361 795 456 795 q 222 848 271 795 q 190 984 174 901 l 191 987 l 312 987 q 321 923 305 947 q 378 898 336 898 q 441 923 416 898 q 472 987 466 949 l 592 987 z "},"˙":{"ha":387,"x_min":211,"x_max":412,"o":"m 382 840 l 211 840 l 241 991 l 412 991 l 382 840 z "},"˚":{"ha":444,"x_min":189,"x_max":484,"o":"m 201 883 q 259 981 213 944 q 365 1017 306 1017 q 451 978 418 1017 q 473 883 484 939 q 415 786 460 821 q 312 751 370 751 q 223 789 258 751 q 201 883 189 826 m 273 883 q 281 833 267 852 q 324 814 296 814 q 372 834 349 814 q 401 883 395 854 q 393 935 408 916 q 352 954 379 954 q 302 933 326 954 q 273 883 279 913 z "},"˛":{"ha":384,"x_min":-52,"x_max":209,"o":"m 199 0 q 128 -63 154 -34 q 95 -127 102 -92 q 99 -166 90 -151 q 142 -181 109 -181 q 174 -176 158 -181 q 205 -165 189 -172 l 209 -262 q 153 -283 183 -275 q 83 -292 122 -292 q -15 -253 22 -292 q -39 -146 -52 -214 q 16 -43 -27 -90 q 143 41 60 3 l 199 0 z "},"˜":{"ha":635,"x_min":178,"x_max":659,"o":"m 659 1009 q 603 898 648 943 q 500 854 558 854 q 410 884 458 854 q 329 914 361 914 q 285 892 306 914 q 260 840 264 870 l 178 863 q 233 975 188 929 q 336 1021 277 1021 q 421 991 369 1021 q 507 961 474 961 q 551 983 530 961 q 577 1036 572 1004 l 659 1009 z "},"˝":{"ha":522,"x_min":191,"x_max":739,"o":"m 570 1029 l 738 1029 l 739 1025 l 519 849 l 387 849 l 385 853 l 570 1029 m 342 1029 l 503 1029 l 504 1025 l 317 849 l 193 849 l 191 852 l 342 1029 z "},"˳":{"ha":429,"x_min":12,"x_max":245,"o":"m 22 -157 q 68 -78 31 -107 q 152 -49 105 -49 q 219 -80 193 -49 q 236 -157 245 -111 q 190 -234 226 -205 q 109 -262 155 -262 q 39 -232 66 -262 q 22 -157 12 -201 m 87 -157 q 93 -190 83 -177 q 121 -202 102 -202 q 152 -189 136 -202 q 171 -157 167 -175 q 165 -122 174 -135 q 140 -109 157 -109 q 106 -123 122 -109 q 87 -157 91 -136 z "},"̀":{"ha":7,"x_min":-359,"x_max":-187,"o":"m -187 816 l -288 816 l -359 1040 l -221 1040 l -187 816 z "},"́":{"ha":7,"x_min":-348,"x_max":-86,"o":"m -222 1042 l -86 1042 l -252 818 l -348 818 l -222 1042 z "},"̃":{"ha":7,"x_min":-478,"x_max":3,"o":"m 3 1009 q -53 898 -7 943 q -156 854 -98 854 q -246 884 -198 854 q -327 914 -294 914 q -371 892 -350 914 q -396 840 -391 870 l -478 863 q -423 975 -468 929 q -320 1021 -378 1021 q -234 991 -287 1021 q -149 961 -182 961 q -104 983 -125 961 q -79 1036 -83 1004 l 3 1009 z "},"̉":{"ha":7,"x_min":-321,"x_max":-68,"o":"m -321 850 l -307 949 q -238 962 -258 952 q -212 996 -217 971 q -230 1033 -207 1021 q -294 1044 -253 1044 l -272 1128 q -116 1095 -164 1128 q -81 998 -68 1062 q -122 927 -90 951 q -194 897 -153 903 l -203 850 l -321 850 z "},"̏":{"ha":7,"x_min":-485,"x_max":-5,"o":"m -199 849 l -336 849 l -485 1026 l -484 1029 l -315 1029 l -199 849 m -5 849 l -134 849 l -252 1029 l -86 1029 l -5 849 z "},"̣":{"ha":7,"x_min":-569,"x_max":-361,"o":"m -391 -235 l -569 -235 l -539 -84 l -361 -84 l -391 -235 z "},"΄":{"ha":393,"x_min":255,"x_max":507,"o":"m 348 1118 l 507 1118 l 332 861 l 255 861 l 348 1118 z "},"΅":{"ha":698,"x_min":214,"x_max":724,"o":"m 696 849 l 549 849 l 577 987 l 724 987 l 696 849 m 361 849 l 214 849 l 241 987 l 389 987 l 361 849 m 505 1184 l 667 1184 l 534 999 l 437 999 l 505 1184 z "},"Ά":{"ha":852,"x_min":-40,"x_max":782,"o":"m 591 231 l 243 231 l 123 0 l -40 0 l 494 987 l 647 987 l 782 0 l 618 0 l 591 231 m 314 368 l 576 368 l 530 777 l 526 777 l 314 368 m 330 1118 l 489 1118 l 314 861 l 237 861 l 330 1118 z "},"·":{"ha":376,"x_min":127,"x_max":318,"o":"m 286 403 l 127 403 l 159 566 l 318 566 l 286 403 z "},"Έ":{"ha":824,"x_min":68,"x_max":928,"o":"m 760 444 l 363 444 l 300 132 l 762 132 l 736 0 l 112 0 l 309 987 l 928 987 l 902 855 l 445 855 l 389 576 l 787 576 l 760 444 m 161 1119 l 321 1119 l 146 863 l 68 863 l 161 1119 z "},"Ή":{"ha":994,"x_min":98,"x_max":1031,"o":"m 833 0 l 672 0 l 756 421 l 358 421 l 274 0 l 112 0 l 309 987 l 471 987 l 385 553 l 783 553 l 869 987 l 1031 987 l 833 0 m 191 1118 l 351 1118 l 176 861 l 98 861 l 191 1118 z "},"Ί":{"ha":449,"x_min":102,"x_max":479,"o":"m 281 0 l 119 0 l 317 987 l 479 987 l 281 0 m 195 1119 l 354 1119 l 179 863 l 102 863 l 195 1119 z "},"Ό":{"ha":904,"x_min":69,"x_max":929,"o":"m 859 400 q 701 96 819 205 q 412 -14 583 -14 q 162 110 256 -14 q 105 409 69 233 l 140 587 q 294 891 179 781 q 575 1002 408 1002 q 832 877 734 1002 q 894 578 929 753 l 859 400 m 733 579 q 706 787 758 708 q 548 866 653 866 q 392 789 458 866 q 302 588 326 711 l 267 409 q 289 200 240 279 q 439 121 338 121 q 602 198 532 121 q 697 400 672 275 l 733 579 m 230 1118 l 389 1118 l 214 861 l 137 861 l 230 1118 z "},"Ύ":{"ha":886,"x_min":24,"x_max":1011,"o":"m 521 524 l 525 523 l 831 987 l 1011 987 l 566 345 l 497 0 l 336 0 l 407 357 l 222 987 l 403 987 l 521 524 m 117 1118 l 277 1118 l 102 861 l 24 861 l 117 1118 z "},"Ώ":{"ha":888,"x_min":35,"x_max":898,"o":"m 448 133 l 449 136 q 584 247 526 155 q 675 505 642 339 l 690 576 q 685 798 720 728 q 559 868 650 868 q 408 792 475 868 q 313 576 341 716 l 299 505 q 285 241 263 328 q 381 136 307 155 l 365 54 l 364 54 l 354 0 l 35 0 l 62 133 l 210 133 q 127 297 151 197 q 127 505 104 397 l 141 575 q 301 889 180 776 q 585 1002 422 1002 q 817 881 735 1002 q 861 575 898 760 l 847 505 q 763 292 824 390 q 621 133 703 195 l 767 133 l 741 0 l 422 0 l 448 133 m 220 1118 l 380 1118 l 205 861 l 127 861 l 220 1118 z "},"ΐ":{"ha":439,"x_min":57,"x_max":567,"o":"m 361 733 l 254 201 q 256 137 245 153 q 294 121 267 121 q 324 124 309 121 q 355 136 339 128 l 357 16 q 293 -8 323 -1 q 229 -14 264 -14 q 109 40 147 -14 q 94 205 71 94 l 199 733 l 361 733 m 539 803 l 393 803 l 420 941 l 567 941 l 539 803 m 204 803 l 57 803 l 85 941 l 232 941 l 204 803 m 348 1138 l 511 1138 l 378 953 l 281 953 l 348 1138 z "},"Α":{"ha":852,"x_min":-40,"x_max":782,"o":"m 591 231 l 243 231 l 123 0 l -40 0 l 494 987 l 647 987 l 782 0 l 618 0 l 591 231 m 314 368 l 576 368 l 530 777 l 526 777 l 314 368 z "},"Β":{"ha":838,"x_min":44,"x_max":850,"o":"m 44 0 l 241 987 l 551 987 q 772 919 695 987 q 824 718 850 850 q 764 595 810 647 q 648 519 718 544 q 758 434 727 499 q 771 283 788 369 q 644 68 741 136 q 394 0 548 0 l 44 0 m 296 449 l 233 132 l 420 132 q 544 171 492 132 q 610 283 595 211 q 601 408 626 367 q 501 449 575 449 l 296 449 m 320 572 l 486 572 q 598 609 549 572 q 661 711 647 646 q 641 822 675 789 q 525 855 607 855 l 377 855 l 320 572 z "},"Γ":{"ha":727,"x_min":44,"x_max":825,"o":"m 798 855 l 378 855 l 207 0 l 44 0 l 241 987 l 825 987 l 798 855 z "},"Δ":{"ha":936,"x_min":-39,"x_max":852,"o":"m 536 987 l 690 987 l 852 0 l -39 0 l 536 987 m 203 132 l 665 132 l 570 773 l 566 774 l 203 132 z "},"∆":{"ha":936,"x_min":-39,"x_max":852,"o":"m 536 987 l 690 987 l 852 0 l -39 0 l 536 987 m 203 132 l 665 132 l 570 773 l 566 774 l 203 132 z "},"Ε":{"ha":756,"x_min":44,"x_max":861,"o":"m 692 444 l 295 444 l 233 132 l 694 132 l 668 0 l 44 0 l 241 987 l 861 987 l 834 855 l 377 855 l 321 576 l 719 576 l 692 444 z "},"Ζ":{"ha":773,"x_min":18,"x_max":772,"o":"m 219 132 l 656 132 l 629 0 l 18 0 l 20 103 l 551 855 l 165 855 l 192 987 l 772 987 l 753 888 l 219 132 z "},"Η":{"ha":926,"x_min":44,"x_max":963,"o":"m 766 0 l 604 0 l 688 421 l 290 421 l 206 0 l 44 0 l 241 987 l 404 987 l 317 553 l 715 553 l 802 987 l 963 987 l 766 0 z "},"Θ":{"ha":894,"x_min":55,"x_max":915,"o":"m 617 429 l 341 429 l 368 562 l 644 562 l 617 429 m 844 400 q 687 96 805 205 q 397 -14 568 -14 q 148 110 241 -14 q 91 409 55 233 l 126 587 q 279 891 165 781 q 561 1002 394 1002 q 818 877 720 1002 q 880 578 915 753 l 844 400 m 719 579 q 691 787 744 708 q 534 866 639 866 q 378 789 444 866 q 288 588 312 711 l 252 409 q 275 200 226 279 q 425 121 323 121 q 588 198 518 121 q 683 400 658 275 l 719 579 z "},"Ι":{"ha":381,"x_min":52,"x_max":411,"o":"m 214 0 l 52 0 l 249 987 l 411 987 l 214 0 z "},"Κ":{"ha":840,"x_min":33,"x_max":921,"o":"m 364 426 l 281 426 l 196 0 l 33 0 l 231 987 l 393 987 l 310 572 l 397 572 l 715 987 l 920 987 l 921 984 l 507 491 l 739 0 l 553 0 l 364 426 z "},"Λ":{"ha":851,"x_min":-35,"x_max":768,"o":"m 520 760 l 516 761 l 133 0 l -35 0 l 487 987 l 640 987 l 768 0 l 600 0 l 520 760 z "},"Μ":{"ha":1140,"x_min":44,"x_max":1177,"o":"m 452 987 l 556 229 l 560 229 l 968 987 l 1177 987 l 980 0 l 818 0 l 885 336 l 983 747 l 979 749 l 566 0 l 457 0 l 344 747 l 340 747 l 273 336 l 206 0 l 44 0 l 241 987 l 452 987 z "},"Ν":{"ha":926,"x_min":44,"x_max":963,"o":"m 766 0 l 604 0 l 351 707 l 347 707 l 206 0 l 44 0 l 241 987 l 404 987 l 656 281 l 660 281 l 801 987 l 963 987 l 766 0 z "},"Ξ":{"ha":747,"x_min":16,"x_max":805,"o":"m 43 132 l 649 132 l 623 0 l 16 0 l 43 132 m 191 572 l 673 572 l 648 443 l 165 443 l 191 572 m 220 987 l 805 987 l 779 855 l 193 855 l 220 987 z "},"Ο":{"ha":890,"x_min":56,"x_max":916,"o":"m 845 400 q 687 96 806 205 q 398 -14 569 -14 q 149 110 242 -14 q 92 409 56 233 l 127 587 q 280 891 165 781 q 562 1002 395 1002 q 818 877 721 1002 q 880 578 916 753 l 845 400 m 720 579 q 692 787 745 708 q 534 866 640 866 q 379 789 445 866 q 288 588 313 711 l 253 409 q 275 200 227 279 q 425 121 324 121 q 589 198 519 121 q 684 400 659 275 l 720 579 z "},"Π":{"ha":926,"x_min":44,"x_max":964,"o":"m 766 0 l 605 0 l 776 855 l 377 855 l 206 0 l 44 0 l 241 987 l 964 987 l 766 0 z "},"Ρ":{"ha":846,"x_min":44,"x_max":897,"o":"m 281 374 l 206 0 l 44 0 l 241 987 l 606 987 q 823 901 748 987 q 871 681 897 815 q 740 454 841 534 q 483 374 639 374 l 281 374 m 307 507 l 509 507 q 639 557 585 507 q 708 680 693 607 q 693 807 724 760 q 579 855 663 855 l 377 855 l 307 507 z "},"Σ":{"ha":747,"x_min":-9,"x_max":817,"o":"m 548 488 l 227 136 l 228 132 l 669 132 l 642 0 l -9 0 l 12 103 l 378 494 l 168 884 l 189 987 l 817 987 l 790 855 l 368 855 l 551 501 l 548 488 z "},"Τ":{"ha":752,"x_min":135,"x_max":870,"o":"m 844 855 l 570 855 l 399 0 l 237 0 l 408 855 l 135 855 l 161 987 l 870 987 l 844 855 z "},"Υ":{"ha":819,"x_min":154,"x_max":943,"o":"m 453 524 l 457 523 l 763 987 l 943 987 l 498 345 l 429 0 l 268 0 l 339 357 l 154 987 l 335 987 l 453 524 z "},"Φ":{"ha":965,"x_min":56,"x_max":990,"o":"m 680 867 q 907 758 823 864 q 958 490 990 652 q 804 215 922 313 q 530 115 686 117 l 507 0 l 346 0 l 369 115 q 140 221 224 116 q 90 488 56 326 q 243 765 124 666 q 519 867 361 865 l 543 987 l 705 987 l 680 867 m 249 488 q 263 313 224 370 q 393 258 301 255 l 397 258 l 490 722 l 487 724 q 337 662 404 726 q 249 488 271 598 m 798 490 q 784 667 821 608 q 656 724 746 726 l 652 724 l 559 260 l 562 258 q 710 318 644 255 q 798 490 776 382 z "},"Χ":{"ha":830,"x_min":-13,"x_max":904,"o":"m 467 623 l 711 987 l 904 987 l 545 498 l 756 0 l 562 0 l 430 371 l 180 0 l -13 0 l 353 498 l 151 987 l 342 987 l 467 623 z "},"Ψ":{"ha":920,"x_min":77,"x_max":1006,"o":"m 549 368 l 553 366 q 689 445 631 379 q 770 619 748 511 l 844 987 l 1006 987 l 932 619 q 787 338 895 437 q 521 224 678 239 l 476 0 l 315 0 l 359 224 q 149 347 220 243 q 111 619 77 451 l 184 987 l 346 987 l 273 619 q 279 439 249 503 q 384 365 309 376 l 388 366 l 512 987 l 673 987 l 549 368 z "},"Ω":{"ha":874,"x_min":22,"x_max":884,"o":"m 435 133 l 435 136 q 571 247 513 155 q 662 505 629 339 l 676 576 q 671 798 706 728 q 545 868 636 868 q 395 792 462 868 q 300 576 328 716 l 286 505 q 272 241 250 328 q 368 136 294 155 l 351 54 l 351 54 l 340 0 l 22 0 l 48 133 l 197 133 q 114 297 137 197 q 113 505 91 397 l 127 575 q 288 889 167 776 q 572 1002 408 1002 q 803 881 722 1002 q 848 575 884 760 l 833 505 q 750 292 810 390 q 607 133 689 195 l 753 133 l 727 0 l 408 0 l 435 133 z "},"Ω":{"ha":874,"x_min":22,"x_max":884,"o":"m 435 133 l 435 136 q 571 247 513 155 q 662 505 629 339 l 676 576 q 671 798 706 728 q 545 868 636 868 q 395 792 462 868 q 300 576 328 716 l 286 505 q 272 241 250 328 q 368 136 294 155 l 351 54 l 351 54 l 340 0 l 22 0 l 48 133 l 197 133 q 114 297 137 197 q 113 505 91 397 l 127 575 q 288 889 167 776 q 572 1002 408 1002 q 803 881 722 1002 q 848 575 884 760 l 833 505 q 750 292 810 390 q 607 133 689 195 l 753 133 l 727 0 l 408 0 l 435 133 z "},"Ϊ":{"ha":381,"x_min":52,"x_max":604,"o":"m 214 0 l 52 0 l 249 987 l 411 987 l 214 0 m 582 1086 l 424 1086 l 446 1224 l 604 1224 l 582 1086 m 276 1086 l 119 1086 l 141 1224 l 298 1224 l 276 1086 z "},"Ϋ":{"ha":819,"x_min":154,"x_max":943,"o":"m 453 524 l 457 523 l 763 987 l 943 987 l 498 345 l 429 0 l 268 0 l 339 357 l 154 987 l 335 987 l 453 524 m 802 1086 l 644 1086 l 666 1224 l 824 1224 l 802 1086 m 496 1086 l 338 1086 l 361 1224 l 518 1224 l 496 1086 z "},"ά":{"ha":736,"x_min":35,"x_max":740,"o":"m 740 733 l 637 219 q 633 144 626 163 q 662 125 640 125 q 670 126 665 125 q 677 128 675 127 l 669 6 q 627 -10 647 -5 q 583 -14 606 -14 q 505 12 535 -14 q 468 92 475 38 q 375 13 426 40 q 262 -14 323 -14 q 90 86 144 -14 q 66 342 35 186 l 69 357 q 196 645 106 543 q 416 747 286 747 q 509 720 470 747 q 570 643 547 693 l 601 733 l 740 733 m 229 342 q 230 176 208 234 q 330 117 253 117 q 408 141 372 117 q 473 209 444 165 l 475 219 l 536 526 q 499 591 525 568 q 431 615 473 615 q 307 542 360 615 q 232 357 254 468 l 229 342 m 547 1105 l 707 1105 l 532 848 l 454 848 l 547 1105 z "},"έ":{"ha":713,"x_min":26,"x_max":713,"o":"m 47 208 q 101 316 60 273 q 210 380 143 359 q 138 445 161 405 q 124 533 115 486 q 234 694 146 642 q 458 747 321 747 q 641 686 569 747 q 691 530 713 625 l 690 526 l 534 526 q 512 594 543 569 q 428 620 482 620 q 332 591 371 620 q 285 525 292 563 q 300 456 275 479 q 385 433 324 433 l 513 433 l 505 399 l 506 399 l 496 350 l 489 316 l 361 316 q 261 291 301 316 q 210 214 220 265 q 231 141 201 170 q 326 113 262 113 q 428 144 382 113 q 483 218 474 175 l 637 218 l 639 214 q 524 41 618 96 q 306 -14 429 -14 q 103 47 180 -14 q 47 208 26 107 m 513 1104 l 673 1104 l 498 848 l 420 848 l 513 1104 z "},"ή":{"ha":741,"x_min":23,"x_max":720,"o":"m 307 641 q 406 720 351 692 q 522 747 460 747 q 672 678 623 747 q 690 456 720 608 l 543 -281 l 380 -281 l 528 455 q 524 581 546 547 q 439 615 502 615 q 360 596 397 615 q 293 542 323 576 l 185 0 l 23 0 l 170 734 l 318 734 l 307 641 m 519 1105 l 679 1105 l 504 848 l 427 848 l 519 1105 z "},"ί":{"ha":439,"x_min":71,"x_max":507,"o":"m 361 733 l 254 201 q 256 137 245 153 q 294 121 267 121 q 324 124 309 121 q 355 136 339 128 l 357 16 q 293 -8 323 -1 q 229 -14 264 -14 q 109 40 147 -14 q 94 205 71 94 l 199 733 l 361 733 m 348 1090 l 507 1090 l 332 833 l 255 833 l 348 1090 z "},"ΰ":{"ha":741,"x_min":55,"x_max":751,"o":"m 332 734 l 250 319 q 254 161 227 205 q 344 117 281 117 q 466 197 412 117 q 541 384 519 277 q 555 554 557 468 q 540 734 553 641 l 700 734 q 721 575 718 663 q 703 384 724 488 q 574 91 665 196 q 324 -14 483 -14 q 122 70 189 -14 q 88 320 55 153 l 171 734 l 332 734 m 724 804 l 577 804 l 605 942 l 751 942 l 724 804 m 389 804 l 241 804 l 269 942 l 416 942 l 389 804 m 532 1139 l 695 1139 l 562 954 l 465 954 l 532 1139 z "},"α":{"ha":736,"x_min":35,"x_max":740,"o":"m 740 733 l 637 219 q 633 144 626 163 q 662 125 640 125 q 670 126 665 125 q 677 128 675 127 l 669 6 q 627 -10 647 -5 q 583 -14 606 -14 q 505 12 535 -14 q 468 92 475 38 q 375 13 426 40 q 262 -14 323 -14 q 90 86 144 -14 q 66 342 35 186 l 69 357 q 196 645 106 543 q 416 747 286 747 q 509 720 470 747 q 570 643 547 693 l 601 733 l 740 733 m 229 342 q 230 176 208 234 q 330 117 253 117 q 408 141 372 117 q 473 209 444 165 l 475 219 l 536 526 q 499 591 525 568 q 431 615 473 615 q 307 542 360 615 q 232 357 254 468 l 229 342 z "},"β":{"ha":778,"x_min":-16,"x_max":793,"o":"m 536 1002 q 726 927 659 1002 q 769 734 793 853 q 713 612 755 665 q 608 528 671 559 q 705 433 675 497 q 718 286 734 369 q 596 60 687 135 q 374 -14 506 -14 q 284 0 328 -14 q 208 41 241 14 l 146 -267 l -16 -267 l 181 715 q 308 923 207 845 q 536 1002 410 1002 m 450 584 q 552 622 511 584 q 606 728 593 661 q 594 829 618 789 q 510 869 569 869 q 406 825 455 869 q 343 715 356 781 l 233 167 q 289 130 254 142 q 372 117 324 117 q 488 165 436 117 q 555 285 541 212 q 545 411 571 363 q 456 458 519 458 l 380 458 l 406 584 l 450 584 z "},"γ":{"ha":665,"x_min":112,"x_max":735,"o":"m 568 734 l 735 734 l 365 32 l 302 -283 l 140 -283 l 203 34 l 112 734 l 279 734 l 317 248 l 316 197 l 320 197 l 340 248 l 568 734 z "},"δ":{"ha":741,"x_min":36,"x_max":751,"o":"m 751 987 l 726 857 l 463 857 q 654 639 579 763 q 701 374 729 515 l 699 359 q 562 85 663 184 q 310 -14 460 -14 q 104 89 172 -14 q 68 350 36 193 l 71 364 q 187 597 99 507 q 399 707 275 688 l 402 709 q 328 796 368 753 q 246 876 288 840 l 269 987 l 751 987 m 232 359 q 233 181 209 245 q 336 117 256 117 q 461 186 408 117 q 536 359 515 255 l 539 374 q 534 516 555 457 q 467 609 513 574 q 451 613 459 612 q 434 615 444 615 q 309 546 362 615 q 235 374 255 476 l 232 359 z "},"ε":{"ha":713,"x_min":26,"x_max":713,"o":"m 47 208 q 101 316 60 273 q 210 380 143 359 q 138 445 161 405 q 124 533 115 486 q 234 694 146 642 q 458 747 321 747 q 641 686 569 747 q 691 530 713 625 l 690 526 l 534 526 q 512 594 543 569 q 428 620 482 620 q 332 591 371 620 q 285 525 292 563 q 300 456 275 479 q 385 433 324 433 l 513 433 l 505 399 l 506 399 l 496 350 l 489 316 l 361 316 q 261 291 301 316 q 210 214 220 265 q 231 141 201 170 q 326 113 262 113 q 428 144 382 113 q 483 218 474 175 l 637 218 l 639 214 q 524 41 618 96 q 306 -14 429 -14 q 103 47 180 -14 q 47 208 26 107 z "},"ζ":{"ha":675,"x_min":73,"x_max":759,"o":"m 759 987 l 741 894 l 467 604 q 325 437 372 507 q 260 276 278 368 q 267 164 244 198 q 351 130 290 130 l 373 130 q 518 83 467 130 q 552 -52 569 36 q 468 -196 534 -134 q 314 -290 402 -259 l 277 -178 q 353 -132 321 -158 q 394 -64 385 -106 q 381 -16 400 -32 q 309 0 361 0 l 280 0 q 122 75 172 0 q 96 260 73 151 q 177 457 115 359 q 355 672 239 555 l 534 851 l 533 855 l 180 855 l 207 987 l 759 987 z "},"η":{"ha":741,"x_min":23,"x_max":720,"o":"m 307 641 q 406 720 351 692 q 522 747 460 747 q 672 678 623 747 q 690 456 720 608 l 543 -281 l 380 -281 l 528 455 q 524 581 546 547 q 439 615 502 615 q 360 596 397 615 q 293 542 323 576 l 185 0 l 23 0 l 170 734 l 318 734 l 307 641 z "},"θ":{"ha":755,"x_min":55,"x_max":781,"o":"m 699 380 q 559 80 657 175 q 318 -14 460 -14 q 121 89 187 -14 q 93 380 55 191 l 138 606 q 278 906 179 811 q 519 1002 376 1002 q 716 898 650 1002 q 744 606 781 795 l 699 380 m 546 430 l 264 430 l 250 357 q 249 172 224 227 q 345 117 274 117 q 458 177 409 117 q 532 357 507 236 l 546 430 m 290 559 l 572 559 l 587 631 q 588 815 612 760 q 493 869 564 869 q 379 810 429 869 q 305 631 329 750 l 290 559 z "},"ι":{"ha":439,"x_min":71,"x_max":361,"o":"m 361 733 l 254 201 q 256 137 245 153 q 294 121 267 121 q 324 124 309 121 q 355 136 339 128 l 357 16 q 293 -8 323 -1 q 229 -14 264 -14 q 109 40 147 -14 q 94 205 71 94 l 199 733 l 361 733 z "},"κ":{"ha":753,"x_min":34,"x_max":793,"o":"m 319 290 l 253 290 l 195 0 l 34 0 l 180 734 l 342 734 l 283 441 l 333 441 l 595 734 l 791 734 l 793 730 l 463 385 l 664 0 l 458 0 l 319 290 z "},"λ":{"ha":724,"x_min":-33,"x_max":686,"o":"m 144 0 l -33 0 l 349 707 l 332 792 q 302 867 323 838 q 247 897 281 897 q 226 895 239 897 q 204 893 213 894 l 228 1017 q 270 1026 250 1022 q 311 1029 291 1029 q 439 973 395 1029 q 494 845 482 916 l 597 221 q 616 155 601 180 q 656 127 631 130 q 670 126 665 126 q 686 128 675 126 l 652 -2 q 622 -8 638 -6 q 591 -9 605 -11 q 478 48 515 -6 q 428 193 441 102 l 383 494 l 379 494 l 354 433 l 144 0 z "},"μ":{"ha":775,"x_min":-20,"x_max":762,"o":"m 345 734 l 256 294 q 260 152 237 185 q 341 119 282 119 q 429 140 391 119 q 494 203 467 162 l 600 734 l 762 734 l 616 0 l 467 0 l 473 49 q 399 2 439 18 q 315 -14 360 -14 q 251 -5 279 -14 q 203 23 223 4 l 142 -282 l -20 -282 l 183 734 l 345 734 z "},"ν":{"ha":665,"x_min":93,"x_max":716,"o":"m 317 248 l 319 198 l 323 197 l 341 248 l 549 734 l 716 734 l 358 0 l 218 0 l 93 734 l 260 734 l 317 248 z "},"ξ":{"ha":682,"x_min":35,"x_max":745,"o":"m 745 987 l 718 852 l 528 852 q 421 811 465 847 q 368 721 378 774 q 388 631 356 661 q 503 601 419 601 l 595 601 l 576 504 l 576 504 l 568 466 l 477 466 q 310 417 377 466 q 225 278 243 369 q 242 162 210 203 q 350 120 275 120 l 409 120 q 554 74 503 120 q 587 -62 605 27 q 505 -210 568 -149 q 349 -304 441 -271 l 315 -200 q 391 -153 358 -180 q 433 -83 424 -127 q 423 -32 439 -49 q 363 -14 407 -14 l 319 -14 q 110 65 184 -14 q 63 281 35 144 q 144 445 83 382 q 305 537 205 509 q 219 606 247 563 q 203 704 191 649 q 239 792 212 755 q 307 852 265 829 l 180 852 l 207 987 l 745 987 z "},"ο":{"ha":741,"x_min":39,"x_max":722,"o":"m 68 374 q 194 646 95 544 q 441 747 293 747 q 652 642 583 747 q 696 374 722 536 l 694 359 q 568 87 667 188 q 321 -14 469 -14 q 109 91 179 -14 q 66 359 39 197 l 68 374 m 228 359 q 236 182 210 248 q 342 117 262 117 q 466 185 416 117 q 532 359 515 254 l 534 374 q 525 549 551 484 q 420 615 498 615 q 296 546 346 615 q 230 374 246 477 l 228 359 z "},"π":{"ha":811,"x_min":81,"x_max":831,"o":"m 806 606 l 722 606 l 642 201 q 643 137 632 153 q 681 121 654 121 q 711 124 696 121 q 743 136 726 128 l 744 16 q 681 -8 710 -1 q 616 -14 651 -14 q 496 40 534 -14 q 481 205 458 94 l 560 606 l 363 606 l 243 0 l 81 0 l 202 606 l 117 606 l 142 734 l 831 734 l 806 606 z "},"ρ":{"ha":741,"x_min":-32,"x_max":732,"o":"m 694 342 q 573 79 660 172 q 359 -14 487 -14 q 266 7 305 -14 q 200 68 226 28 l 130 -282 l -32 -282 l 102 390 q 237 656 137 565 q 473 747 337 747 q 670 638 609 747 q 697 357 732 529 l 694 342 m 535 357 q 539 547 559 479 q 442 615 518 615 q 331 544 381 615 q 263 382 281 473 l 225 193 q 265 137 237 157 q 339 117 293 117 q 461 180 410 117 q 532 342 512 243 l 535 357 z "},"ς":{"ha":687,"x_min":35,"x_max":697,"o":"m 453 747 q 633 672 568 747 q 672 471 697 597 l 520 471 q 511 576 533 537 q 427 615 488 615 q 304 545 356 615 q 233 378 252 474 l 229 355 q 241 200 208 256 q 368 130 273 145 q 530 71 483 111 q 560 -58 578 31 q 476 -201 543 -138 q 323 -294 410 -264 l 286 -183 q 362 -137 330 -163 q 403 -69 394 -111 q 387 -23 408 -38 q 311 1 365 -7 q 96 116 157 26 q 66 355 35 207 l 71 378 q 204 647 104 546 q 453 747 305 747 z "},"σ":{"ha":746,"x_min":37,"x_max":819,"o":"m 792 601 l 626 601 q 688 488 670 554 q 691 346 706 422 l 688 332 q 556 81 657 177 q 310 -14 454 -14 q 104 92 172 -14 q 69 359 37 198 l 72 374 q 207 638 105 542 q 458 734 308 734 l 819 734 l 792 601 m 231 359 q 232 181 208 245 q 336 117 256 117 q 458 186 406 117 q 531 359 510 255 l 534 374 q 531 540 555 479 q 431 601 508 601 q 306 535 359 601 q 234 374 253 470 l 231 359 z "},"τ":{"ha":686,"x_min":109,"x_max":730,"o":"m 705 603 l 486 603 l 366 0 l 204 0 l 324 603 l 109 603 l 134 734 l 730 734 l 705 603 z "},"υ":{"ha":741,"x_min":55,"x_max":724,"o":"m 332 734 l 250 319 q 254 161 227 205 q 344 117 281 117 q 466 197 412 117 q 541 384 519 277 q 555 554 557 468 q 540 734 553 641 l 700 734 q 721 575 718 663 q 703 384 724 488 q 574 91 665 196 q 324 -14 483 -14 q 122 70 189 -14 q 88 320 55 153 l 171 734 l 332 734 z "},"φ":{"ha":951,"x_min":33,"x_max":947,"o":"m 640 734 q 866 621 784 734 q 918 360 947 508 q 783 105 886 203 q 490 -10 680 7 l 428 -324 l 265 -324 l 328 -8 q 99 128 165 16 q 64 393 33 241 q 121 582 85 501 q 207 734 157 662 l 365 734 q 279 559 314 644 q 226 393 243 475 q 233 218 204 288 q 352 132 262 149 l 356 132 l 477 734 l 640 734 m 519 132 l 522 130 q 677 210 616 146 q 755 360 737 275 q 739 530 773 462 q 616 596 704 599 l 612 595 l 519 132 z "},"χ":{"ha":718,"x_min":-51,"x_max":771,"o":"m 220 745 q 346 688 304 745 q 399 560 389 631 l 420 450 l 423 449 l 608 734 l 771 734 l 457 248 l 516 -63 q 537 -127 524 -104 q 576 -154 551 -151 q 591 -154 586 -154 q 606 -153 596 -154 l 574 -287 q 543 -293 561 -291 q 511 -294 526 -295 q 404 -236 438 -291 q 357 -91 369 -181 l 331 45 l 327 45 l 115 -282 l -51 -282 l 292 246 l 242 507 q 211 581 234 552 q 151 609 188 609 q 131 608 144 609 q 109 606 117 606 l 132 732 q 176 741 154 737 q 220 745 199 745 z "},"ψ":{"ha":946,"x_min":37,"x_max":939,"o":"m 635 734 l 515 134 l 519 132 q 675 225 612 152 q 758 393 738 298 q 770 561 772 476 q 753 734 768 646 l 911 734 q 936 579 932 665 q 920 393 939 494 q 780 114 885 221 q 486 -10 675 7 l 424 -324 l 261 -324 l 324 -8 q 106 117 176 14 q 73 402 37 219 l 139 734 l 301 734 l 235 401 q 240 207 208 271 q 348 131 272 143 l 352 132 l 473 734 l 635 734 z "},"ω":{"ha":1109,"x_min":45,"x_max":1088,"o":"m 408 734 q 304 557 347 645 q 241 384 262 470 q 231 189 216 260 q 311 117 245 117 q 410 168 364 117 q 478 326 456 218 l 522 546 l 690 546 l 646 326 q 646 164 622 210 q 730 117 671 117 q 836 193 789 117 q 905 384 882 269 q 912 557 920 469 q 878 734 904 644 l 1039 734 q 1078 576 1069 664 q 1067 384 1088 488 q 944 91 1029 195 q 711 -14 859 -14 q 592 25 640 -14 q 528 138 544 64 q 420 23 484 60 q 277 -14 357 -14 q 93 98 140 -14 q 79 384 45 211 q 144 578 102 495 q 248 734 187 661 l 408 734 z "},"ϊ":{"ha":439,"x_min":71,"x_max":566,"o":"m 361 733 l 254 201 q 256 137 245 153 q 294 121 267 121 q 324 124 309 121 q 355 136 339 128 l 357 16 q 293 -8 323 -1 q 229 -14 264 -14 q 109 40 147 -14 q 94 205 71 94 l 199 733 l 361 733 m 544 852 l 386 852 l 408 991 l 566 991 l 544 852 m 238 852 l 81 852 l 103 991 l 260 991 l 238 852 z "},"ϋ":{"ha":741,"x_min":55,"x_max":751,"o":"m 332 734 l 250 319 q 254 161 227 205 q 344 117 281 117 q 466 197 412 117 q 541 384 519 277 q 555 554 557 468 q 540 734 553 641 l 700 734 q 721 575 718 663 q 703 384 724 488 q 574 91 665 196 q 324 -14 483 -14 q 122 70 189 -14 q 88 320 55 153 l 171 734 l 332 734 m 728 853 l 570 853 l 593 991 l 751 991 l 728 853 m 422 853 l 265 853 l 288 991 l 445 991 l 422 853 z "},"ό":{"ha":741,"x_min":39,"x_max":722,"o":"m 68 374 q 194 646 95 544 q 441 747 293 747 q 652 642 583 747 q 696 374 722 536 l 694 359 q 568 87 667 188 q 321 -14 469 -14 q 109 91 179 -14 q 66 359 39 197 l 68 374 m 228 359 q 236 182 210 248 q 342 117 262 117 q 466 185 416 117 q 532 359 515 254 l 534 374 q 525 549 551 484 q 420 615 498 615 q 296 546 346 615 q 230 374 246 477 l 228 359 m 495 1105 l 654 1105 l 479 848 l 402 848 l 495 1105 z "},"ύ":{"ha":741,"x_min":55,"x_max":724,"o":"m 332 734 l 250 319 q 254 161 227 205 q 344 117 281 117 q 466 197 412 117 q 541 384 519 277 q 555 554 557 468 q 540 734 553 641 l 700 734 q 721 575 718 663 q 703 384 724 488 q 574 91 665 196 q 324 -14 483 -14 q 122 70 189 -14 q 88 320 55 153 l 171 734 l 332 734 m 533 1090 l 692 1090 l 517 834 l 440 834 l 533 1090 z "},"ώ":{"ha":1109,"x_min":45,"x_max":1088,"o":"m 408 734 q 304 557 347 645 q 241 384 262 470 q 231 189 216 260 q 311 117 245 117 q 410 168 364 117 q 478 326 456 218 l 522 546 l 690 546 l 646 326 q 646 164 622 210 q 730 117 671 117 q 836 193 789 117 q 905 384 882 269 q 912 557 920 469 q 878 734 904 644 l 1039 734 q 1078 576 1069 664 q 1067 384 1088 488 q 944 91 1029 195 q 711 -14 859 -14 q 592 25 640 -14 q 528 138 544 64 q 420 23 484 60 q 277 -14 357 -14 q 93 98 140 -14 q 79 384 45 211 q 144 578 102 495 q 248 734 187 661 l 408 734 m 704 1090 l 863 1090 l 688 834 l 611 834 l 704 1090 z "},"ϑ":{"ha":846,"x_min":62,"x_max":911,"o":"m 403 123 q 555 193 486 123 q 650 382 624 263 q 460 474 530 391 q 416 677 391 557 l 427 734 q 530 933 452 864 q 713 1002 608 1002 q 861 929 811 1002 q 887 734 911 857 l 818 390 q 660 91 779 195 q 376 -14 541 -14 q 144 102 226 -14 q 96 390 62 219 l 188 849 l 355 850 l 263 390 q 275 194 238 265 q 403 123 312 123 m 572 676 q 584 562 557 605 q 673 515 611 519 l 677 516 l 723 745 q 724 832 734 806 q 680 859 713 859 q 623 829 649 859 q 587 745 597 800 l 572 676 z "},"ϒ":{"ha":728,"x_min":121,"x_max":872,"o":"m 584 827 q 689 961 638 922 q 807 1000 741 1000 q 842 997 825 1000 q 872 985 858 994 l 830 855 q 820 858 828 857 q 805 859 812 859 q 765 844 785 859 q 732 803 745 829 l 457 358 l 385 0 l 224 0 l 296 358 l 199 803 q 181 844 195 829 q 149 859 168 859 q 132 858 140 859 q 121 855 123 857 l 134 985 q 166 997 149 994 q 203 1000 182 1000 q 303 961 265 1000 q 357 829 340 922 l 406 563 l 407 519 l 411 519 l 429 563 l 584 827 z "},"ϖ":{"ha":1048,"x_min":56,"x_max":1116,"o":"m 1091 610 l 1011 610 q 1014 502 1017 558 q 1000 384 1012 445 q 884 91 962 195 q 674 -14 806 -14 q 560 24 606 -14 q 499 137 515 63 q 395 23 456 60 q 258 -14 334 -14 q 96 98 136 -14 q 90 384 56 211 q 123 505 103 449 q 169 610 142 560 l 100 610 l 125 734 l 1116 734 l 1091 610 m 839 384 q 849 496 848 439 q 843 610 850 553 l 338 610 q 286 495 308 551 q 252 384 264 439 q 234 190 227 260 q 290 123 241 119 l 294 121 q 386 169 342 118 q 451 326 429 219 l 481 479 l 648 479 l 618 326 q 616 164 594 210 q 692 122 638 118 l 696 121 q 777 194 739 118 q 839 384 816 270 z "},"Ѐ":{"ha":756,"x_min":44,"x_max":861,"o":"m 692 444 l 295 444 l 233 132 l 694 132 l 668 0 l 44 0 l 241 987 l 861 987 l 834 855 l 377 855 l 321 576 l 719 576 l 692 444 m 623 1058 l 493 1058 l 353 1238 l 536 1238 l 623 1058 z "},"Ё":{"ha":756,"x_min":44,"x_max":861,"o":"m 692 444 l 295 444 l 233 132 l 694 132 l 668 0 l 44 0 l 241 987 l 861 987 l 834 855 l 377 855 l 321 576 l 719 576 l 692 444 m 783 1086 l 625 1086 l 648 1224 l 806 1224 l 783 1086 m 477 1086 l 320 1086 l 342 1224 l 500 1224 l 477 1086 z "},"Ђ":{"ha":976,"x_min":138,"x_max":962,"o":"m 853 855 l 545 855 l 490 578 q 583 598 540 591 q 659 606 625 606 q 884 524 806 606 q 933 297 962 442 q 806 70 903 148 q 544 -7 709 -9 l 541 -5 l 564 116 q 703 164 653 116 q 769 292 753 212 q 750 422 785 376 q 631 469 716 469 q 551 463 594 469 q 464 448 507 457 l 374 0 l 212 0 l 383 855 l 138 855 l 164 987 l 880 987 l 853 855 z "},"Ѓ":{"ha":727,"x_min":44,"x_max":825,"o":"m 798 855 l 378 855 l 207 0 l 44 0 l 241 987 l 825 987 l 798 855 m 620 1238 l 804 1238 l 597 1057 l 471 1057 l 620 1238 z "},"Є":{"ha":854,"x_min":61,"x_max":875,"o":"m 785 319 l 787 315 q 651 73 745 159 q 401 -14 557 -14 q 154 108 248 -14 q 96 405 61 229 l 134 592 q 281 895 172 787 q 549 1002 389 1002 q 788 907 702 1002 q 856 658 875 812 l 854 654 l 696 654 q 666 813 706 756 q 532 870 627 870 q 385 792 449 870 q 296 593 320 714 l 290 564 l 608 564 l 581 431 l 264 431 l 258 405 q 276 197 233 276 q 416 118 319 118 q 548 167 499 118 q 629 319 597 216 l 785 319 z "},"Ѕ":{"ha":808,"x_min":41,"x_max":831,"o":"m 584 234 q 563 345 598 305 q 421 424 527 385 q 207 549 273 475 q 167 752 141 623 q 286 937 191 873 q 517 1002 381 1002 q 748 921 666 1002 q 800 699 831 840 l 798 695 l 642 695 q 616 822 658 774 q 491 869 574 869 q 386 836 433 869 q 329 753 338 802 q 348 645 314 680 q 501 564 382 610 q 709 439 647 512 q 745 235 771 366 q 625 47 720 109 q 388 -14 529 -14 q 141 60 241 -14 q 75 288 41 134 l 77 292 l 233 292 q 269 156 213 194 q 414 117 325 117 q 524 151 473 117 q 584 234 574 184 z "},"І":{"ha":381,"x_min":52,"x_max":411,"o":"m 214 0 l 52 0 l 249 987 l 411 987 l 214 0 z "},"Ї":{"ha":381,"x_min":52,"x_max":604,"o":"m 214 0 l 52 0 l 249 987 l 411 987 l 214 0 m 582 1086 l 424 1086 l 446 1224 l 604 1224 l 582 1086 m 276 1086 l 119 1086 l 141 1224 l 298 1224 l 276 1086 z "},"Ј":{"ha":732,"x_min":9,"x_max":776,"o":"m 614 987 l 776 987 l 635 286 q 509 62 606 138 q 281 -14 413 -14 q 80 61 151 -14 q 40 277 9 136 l 42 280 l 199 280 q 210 154 181 191 q 307 117 239 117 q 410 163 361 117 q 473 286 458 210 l 614 987 z "},"Љ":{"ha":1384,"x_min":-26,"x_max":1371,"o":"m 960 987 l 887 626 l 1079 626 q 1296 537 1221 626 q 1344 313 1371 448 q 1211 82 1314 165 q 954 0 1108 0 l 600 0 l 770 855 l 496 855 l 433 530 q 275 126 378 252 q 5 0 172 0 l -26 0 l 1 132 l 26 132 q 171 224 113 132 q 271 530 229 317 l 361 987 l 960 987 m 861 494 l 789 132 l 980 132 q 1112 185 1055 132 q 1183 314 1168 239 q 1167 443 1199 393 q 1053 494 1135 494 l 861 494 z "},"Њ":{"ha":1389,"x_min":44,"x_max":1373,"o":"m 320 567 l 718 567 l 802 987 l 964 987 l 887 603 l 1079 603 q 1298 519 1222 603 q 1348 304 1373 435 q 1216 80 1318 160 q 958 0 1114 0 l 604 0 l 691 435 l 294 435 l 207 0 l 44 0 l 241 987 l 404 987 l 320 567 m 861 471 l 794 137 l 985 137 q 1117 186 1061 137 q 1186 305 1172 235 q 1168 425 1201 380 q 1053 471 1135 471 l 861 471 z "},"Ћ":{"ha":1036,"x_min":151,"x_max":977,"o":"m 859 855 l 547 855 l 497 606 q 584 620 539 615 q 675 625 628 625 q 901 548 825 625 q 945 311 977 471 l 882 0 l 721 0 l 783 311 q 773 456 804 420 q 649 492 741 492 q 563 486 610 492 q 471 472 516 481 l 376 0 l 214 0 l 385 855 l 151 855 l 177 987 l 886 987 l 859 855 z "},"Ќ":{"ha":840,"x_min":33,"x_max":921,"o":"m 364 426 l 281 426 l 196 0 l 33 0 l 231 987 l 393 987 l 310 572 l 397 572 l 715 987 l 920 987 l 921 984 l 507 491 l 739 0 l 553 0 l 364 426 m 602 1238 l 786 1238 l 580 1057 l 454 1057 l 602 1238 z "},"Ѝ":{"ha":922,"x_min":41,"x_max":960,"o":"m 797 987 l 960 987 l 762 0 l 600 0 l 737 690 l 734 692 l 203 0 l 41 0 l 238 987 l 400 987 l 262 296 l 266 295 l 797 987 m 689 1058 l 559 1058 l 420 1238 l 602 1238 l 689 1058 z "},"Ў":{"ha":821,"x_min":115,"x_max":926,"o":"m 443 541 l 454 454 l 458 454 l 747 987 l 926 987 l 452 175 q 336 33 394 81 q 179 -14 277 -14 q 143 -13 164 -14 q 115 -10 121 -12 l 141 120 q 166 118 147 119 q 196 117 186 117 q 266 142 239 117 q 321 215 294 168 l 348 260 l 184 987 l 361 987 l 443 541 m 802 1278 l 804 1274 q 730 1137 793 1187 q 572 1086 667 1086 q 432 1139 481 1086 q 400 1274 384 1192 l 401 1278 l 522 1278 q 531 1213 515 1238 q 588 1188 547 1188 q 651 1214 627 1188 q 682 1278 676 1239 l 802 1278 z "},"Џ":{"ha":923,"x_min":40,"x_max":960,"o":"m 237 987 l 400 987 l 229 132 l 627 132 l 798 987 l 960 987 l 763 0 l 489 0 l 440 -244 l 278 -244 l 327 0 l 40 0 l 237 987 z "},"А":{"ha":852,"x_min":-40,"x_max":782,"o":"m 591 231 l 243 231 l 123 0 l -40 0 l 494 987 l 647 987 l 782 0 l 618 0 l 591 231 m 314 368 l 576 368 l 530 777 l 526 777 l 314 368 z "},"Б":{"ha":819,"x_min":37,"x_max":817,"o":"m 791 855 l 370 855 l 320 606 l 512 606 q 732 523 656 606 q 781 306 808 440 q 649 79 751 159 q 391 0 547 0 l 37 0 l 234 987 l 817 987 l 791 855 m 294 473 l 226 132 l 417 132 q 548 183 493 132 q 619 307 604 234 q 602 429 634 385 q 486 473 569 473 l 294 473 z "},"В":{"ha":838,"x_min":44,"x_max":850,"o":"m 44 0 l 241 987 l 551 987 q 772 919 695 987 q 824 718 850 850 q 764 595 810 647 q 648 519 718 544 q 758 434 727 499 q 771 283 788 369 q 644 68 741 136 q 394 0 548 0 l 44 0 m 296 449 l 233 132 l 420 132 q 544 171 492 132 q 610 283 595 211 q 601 408 626 367 q 501 449 575 449 l 296 449 m 320 572 l 486 572 q 598 609 549 572 q 661 711 647 646 q 641 822 675 789 q 525 855 607 855 l 377 855 l 320 572 z "},"Г":{"ha":727,"x_min":44,"x_max":825,"o":"m 798 855 l 378 855 l 207 0 l 44 0 l 241 987 l 825 987 l 798 855 z "},"Д":{"ha":985,"x_min":-63,"x_max":975,"o":"m 833 -243 l 687 -243 l 736 0 l 130 0 l 81 -243 l -63 -243 l -6 132 l 71 132 q 187 287 129 182 q 287 583 245 392 l 392 987 l 975 987 l 804 132 l 924 132 l 833 -243 m 450 583 q 363 317 414 429 q 250 132 312 205 l 642 132 l 786 855 l 519 855 l 450 583 z "},"Е":{"ha":756,"x_min":44,"x_max":861,"o":"m 692 444 l 295 444 l 233 132 l 694 132 l 668 0 l 44 0 l 241 987 l 861 987 l 834 855 l 377 855 l 321 576 l 719 576 l 692 444 z "},"Ж":{"ha":1244,"x_min":-39,"x_max":1349,"o":"m 838 431 l 736 431 l 650 0 l 489 0 l 575 431 l 470 431 l 163 0 l -39 0 l 360 528 l 179 987 l 374 987 l 505 572 l 603 572 l 686 987 l 848 987 l 764 572 l 859 572 l 1154 987 l 1349 987 l 986 529 l 1173 0 l 971 0 l 838 431 z "},"З":{"ha":787,"x_min":19,"x_max":827,"o":"m 342 569 l 449 569 q 575 610 525 569 q 638 720 625 650 q 617 829 652 788 q 498 869 583 869 q 379 828 435 869 q 312 725 324 787 l 157 725 l 155 729 q 282 930 178 859 q 524 1002 386 1002 q 748 927 669 1002 q 800 720 827 852 q 736 591 785 647 q 612 505 686 535 q 711 416 680 474 q 726 277 742 357 q 588 59 696 132 q 321 -14 479 -14 q 106 59 193 -14 q 50 270 19 133 l 52 274 l 208 274 q 232 160 194 203 q 348 117 271 117 q 488 162 427 117 q 563 276 549 208 q 546 401 581 364 q 422 438 511 438 l 316 438 l 323 473 l 335 533 l 342 569 z "},"И":{"ha":922,"x_min":41,"x_max":960,"o":"m 797 987 l 960 987 l 762 0 l 600 0 l 737 690 l 734 692 l 203 0 l 41 0 l 238 987 l 400 987 l 262 296 l 266 295 l 797 987 z "},"Й":{"ha":922,"x_min":41,"x_max":960,"o":"m 797 987 l 960 987 l 762 0 l 600 0 l 737 690 l 734 692 l 203 0 l 41 0 l 238 987 l 400 987 l 262 296 l 266 295 l 797 987 m 850 1278 l 852 1274 q 778 1137 841 1187 q 620 1086 715 1086 q 480 1139 529 1086 q 448 1274 432 1192 l 450 1278 l 570 1278 q 579 1213 564 1238 q 636 1188 595 1188 q 700 1214 675 1188 q 730 1278 724 1239 l 850 1278 z "},"К":{"ha":840,"x_min":33,"x_max":921,"o":"m 364 426 l 281 426 l 196 0 l 33 0 l 231 987 l 393 987 l 310 572 l 397 572 l 715 987 l 920 987 l 921 984 l 507 491 l 739 0 l 553 0 l 364 426 z "},"Л":{"ha":922,"x_min":-24,"x_max":960,"o":"m 960 987 l 762 0 l 600 0 l 770 855 l 485 855 l 421 530 q 270 126 367 252 q 16 0 172 0 l -24 0 l 2 132 l 27 132 q 165 224 114 135 q 260 530 217 313 l 349 987 l 960 987 z "},"М":{"ha":1140,"x_min":44,"x_max":1177,"o":"m 452 987 l 556 229 l 560 229 l 968 987 l 1177 987 l 980 0 l 818 0 l 885 336 l 983 747 l 979 749 l 566 0 l 457 0 l 344 747 l 340 747 l 273 336 l 206 0 l 44 0 l 241 987 l 452 987 z "},"Н":{"ha":926,"x_min":44,"x_max":963,"o":"m 766 0 l 604 0 l 688 421 l 290 421 l 206 0 l 44 0 l 241 987 l 404 987 l 317 553 l 715 553 l 802 987 l 963 987 l 766 0 z "},"О":{"ha":890,"x_min":56,"x_max":916,"o":"m 845 400 q 687 96 806 205 q 398 -14 569 -14 q 149 110 242 -14 q 92 409 56 233 l 127 587 q 280 891 165 781 q 562 1002 395 1002 q 818 877 721 1002 q 880 578 916 753 l 845 400 m 720 579 q 692 787 745 708 q 534 866 640 866 q 379 789 445 866 q 288 588 313 711 l 253 409 q 275 200 227 279 q 425 121 324 121 q 589 198 519 121 q 684 400 659 275 l 720 579 z "},"П":{"ha":926,"x_min":44,"x_max":964,"o":"m 766 0 l 605 0 l 776 855 l 377 855 l 206 0 l 44 0 l 241 987 l 964 987 l 766 0 z "},"Р":{"ha":846,"x_min":44,"x_max":897,"o":"m 281 374 l 206 0 l 44 0 l 241 987 l 606 987 q 823 901 748 987 q 871 681 897 815 q 740 454 841 534 q 483 374 639 374 l 281 374 m 307 507 l 509 507 q 639 557 585 507 q 708 680 693 607 q 693 807 724 760 q 579 855 663 855 l 377 855 l 307 507 z "},"С":{"ha":827,"x_min":56,"x_max":870,"o":"m 781 319 l 782 315 q 646 72 741 159 q 396 -14 552 -14 q 150 107 243 -14 q 92 404 56 229 l 129 591 q 276 894 168 787 q 545 1002 385 1002 q 784 906 697 1002 q 851 657 870 811 l 850 654 l 692 654 q 662 812 701 755 q 528 869 622 869 q 380 791 444 869 q 292 593 315 713 l 254 404 q 271 196 228 275 q 411 117 315 117 q 544 166 494 117 q 625 319 593 216 l 781 319 z "},"Т":{"ha":752,"x_min":135,"x_max":870,"o":"m 844 855 l 570 855 l 399 0 l 237 0 l 408 855 l 135 855 l 161 987 l 870 987 l 844 855 z "},"У":{"ha":821,"x_min":115,"x_max":926,"o":"m 443 541 l 454 454 l 458 454 l 747 987 l 926 987 l 452 175 q 336 33 394 81 q 179 -14 277 -14 q 143 -13 164 -14 q 115 -10 121 -12 l 141 120 q 166 118 147 119 q 196 117 186 117 q 266 142 239 117 q 321 215 294 168 l 348 260 l 184 987 l 361 987 l 443 541 z "},"Ф":{"ha":1044,"x_min":58,"x_max":1072,"o":"m 728 894 l 737 894 q 981 780 891 894 q 1036 490 1072 666 q 871 194 998 300 q 576 89 743 89 l 567 89 l 541 -41 l 379 -41 l 405 89 l 393 89 q 149 201 239 89 q 94 488 58 313 q 259 787 132 680 q 555 894 387 894 l 566 894 l 593 1028 l 755 1028 l 728 894 m 527 757 q 354 685 429 757 q 254 488 278 612 q 270 291 227 355 q 421 226 314 226 l 432 226 l 538 757 l 527 757 m 701 757 l 594 226 l 605 226 q 776 297 701 226 q 876 490 851 368 q 859 690 902 624 q 711 757 817 757 l 701 757 z "},"Х":{"ha":830,"x_min":-13,"x_max":904,"o":"m 467 623 l 711 987 l 904 987 l 545 498 l 756 0 l 562 0 l 430 371 l 180 0 l -13 0 l 353 498 l 151 987 l 342 987 l 467 623 z "},"Ц":{"ha":974,"x_min":41,"x_max":960,"o":"m 238 987 l 400 987 l 229 132 l 627 132 l 798 987 l 960 987 l 789 134 l 899 134 l 812 -238 l 665 -238 l 712 0 l 41 0 l 238 987 z "},"Ч":{"ha":904,"x_min":136,"x_max":942,"o":"m 942 987 l 745 0 l 583 0 l 661 391 q 554 370 610 377 q 438 362 498 362 q 212 439 288 362 q 168 676 136 516 l 231 987 l 393 987 l 331 676 q 340 531 309 566 q 465 495 372 495 q 574 503 513 495 q 688 525 634 511 l 780 987 l 942 987 z "},"Ш":{"ha":1238,"x_min":44,"x_max":1276,"o":"m 404 987 l 233 132 l 509 132 l 680 987 l 841 987 l 670 132 l 943 132 l 1114 987 l 1276 987 l 1079 0 l 44 0 l 241 987 l 404 987 z "},"Щ":{"ha":1303,"x_min":44,"x_max":1276,"o":"m 404 987 l 233 132 l 509 132 l 680 987 l 841 987 l 670 132 l 943 132 l 1114 987 l 1276 987 l 1105 132 l 1219 132 l 1132 -238 l 984 -238 l 1031 0 l 44 0 l 241 987 l 404 987 z "},"Ъ":{"ha":989,"x_min":135,"x_max":977,"o":"m 161 987 l 566 987 l 490 606 l 682 606 q 901 523 825 606 q 950 306 977 440 q 818 79 920 159 q 560 0 716 0 l 206 0 l 377 855 l 135 855 l 161 987 m 463 473 l 395 132 l 587 132 q 718 183 663 132 q 789 307 773 234 q 771 429 804 385 q 655 473 739 473 l 463 473 z "},"Ы":{"ha":1139,"x_min":44,"x_max":1176,"o":"m 328 606 l 519 606 q 739 523 663 606 q 788 306 815 440 q 656 79 758 159 q 398 0 554 0 l 44 0 l 241 987 l 404 987 l 328 606 m 979 0 l 817 0 l 1014 987 l 1176 987 l 979 0 m 301 473 l 233 132 l 425 132 q 556 183 500 132 q 627 307 611 234 q 609 429 642 385 q 493 473 576 473 l 301 473 z "},"Ь":{"ha":821,"x_min":37,"x_max":808,"o":"m 320 606 l 512 606 q 732 523 656 606 q 781 306 808 440 q 649 79 751 159 q 391 0 547 0 l 37 0 l 234 987 l 397 987 l 320 606 m 294 473 l 226 132 l 417 132 q 548 183 493 132 q 619 307 604 234 q 602 429 634 385 q 486 473 569 473 l 294 473 z "},"Э":{"ha":852,"x_min":65,"x_max":882,"o":"m 170 665 l 169 669 q 307 915 197 827 q 578 1002 416 1002 q 804 884 725 1002 q 847 588 882 766 l 810 400 q 653 97 770 207 q 374 -14 535 -14 q 144 76 223 -14 q 99 319 65 166 l 100 322 l 257 322 q 271 167 235 216 q 401 118 307 118 q 553 198 484 118 q 647 399 623 279 l 655 439 l 330 439 l 356 572 l 681 572 l 684 588 q 676 794 710 718 q 551 870 642 870 q 406 816 466 870 q 326 665 345 762 l 170 665 z "},"Ю":{"ha":1189,"x_min":50,"x_max":1230,"o":"m 1160 400 q 1002 96 1120 205 q 713 -14 884 -14 q 464 110 557 -14 q 406 409 370 233 l 406 410 l 294 410 l 212 0 l 50 0 l 247 987 l 409 987 l 320 543 l 433 543 l 441 587 q 595 891 480 781 q 876 1002 709 1002 q 1133 877 1036 1002 q 1195 578 1230 753 l 1160 400 m 1034 579 q 1007 787 1059 708 q 849 866 954 866 q 693 789 760 866 q 603 588 627 711 l 568 409 q 590 200 541 279 q 740 121 639 121 q 903 198 833 121 q 998 400 973 275 l 1034 579 z "},"Я":{"ha":814,"x_min":-28,"x_max":854,"o":"m 145 0 l -28 0 l 262 421 q 161 524 189 460 q 153 687 133 587 q 290 908 181 828 q 546 987 399 987 l 854 987 l 657 0 l 494 0 l 568 372 l 398 372 l 145 0 m 665 855 l 519 855 q 382 812 433 855 q 313 683 331 770 q 335 552 298 603 q 452 500 373 500 l 594 500 l 665 855 z "},"а":{"ha":711,"x_min":26,"x_max":695,"o":"m 433 0 q 430 45 430 23 q 431 90 429 68 q 335 15 389 45 q 222 -14 280 -14 q 76 46 125 -14 q 47 207 26 107 q 157 376 69 320 q 389 432 244 432 l 496 432 l 509 496 q 497 588 521 557 q 417 619 474 619 q 332 592 369 619 q 286 522 294 564 l 131 522 l 130 526 q 235 683 144 618 q 452 747 325 747 q 630 681 565 747 q 671 495 695 614 l 606 169 q 594 80 596 120 q 597 0 591 40 l 433 0 m 284 118 q 376 142 329 118 q 450 201 422 167 l 475 329 l 366 329 q 263 293 307 329 q 210 210 219 257 q 219 141 200 165 q 284 118 237 118 z "},"б":{"ha":732,"x_min":42,"x_max":753,"o":"m 460 693 q 656 597 591 693 q 699 355 722 502 l 696 341 q 572 82 669 178 q 326 -14 474 -14 q 113 86 184 -14 q 67 341 42 186 l 70 355 l 70 356 l 83 437 q 227 797 119 667 q 481 958 334 927 q 586 990 551 971 q 628 1055 621 1010 l 752 1055 l 753 1050 q 674 881 734 918 q 475 820 613 844 q 340 756 399 806 q 254 616 282 707 l 256 612 q 351 671 298 648 q 460 693 405 693 m 416 561 q 294 502 342 561 q 232 355 245 444 l 229 341 q 240 178 212 238 q 347 117 267 117 q 470 180 421 117 q 534 341 519 243 l 537 355 q 523 505 551 448 q 416 561 495 561 z "},"в":{"ha":745,"x_min":34,"x_max":728,"o":"m 34 0 l 180 734 l 460 734 q 659 682 589 734 q 709 530 728 630 q 661 436 698 476 q 563 376 623 397 q 657 314 629 359 q 674 210 686 269 q 572 50 652 100 q 358 0 492 0 l 34 0 m 259 313 l 222 130 l 384 130 q 471 154 437 130 q 513 221 505 178 q 500 290 522 267 q 420 313 479 313 l 259 313 m 283 431 l 408 431 q 499 453 464 431 q 543 513 535 474 q 526 582 553 562 q 435 603 499 603 l 317 603 l 283 431 z "},"г":{"ha":547,"x_min":28,"x_max":626,"o":"m 600 601 l 309 601 l 189 0 l 28 0 l 174 734 l 626 734 l 600 601 z "},"д":{"ha":815,"x_min":-58,"x_max":774,"o":"m 54 132 q 161 268 123 198 q 233 473 199 337 l 292 734 l 774 734 l 654 132 l 751 132 l 668 -218 l 520 -218 l 564 0 l 134 0 l 91 -218 l -58 -218 l -3 132 l 54 132 m 395 473 q 327 274 366 358 q 238 132 288 190 l 492 132 l 585 592 l 422 592 l 395 473 z "},"е":{"ha":693,"x_min":43,"x_max":690,"o":"m 330 -14 q 116 89 189 -14 q 68 350 43 192 l 73 377 q 200 646 99 543 q 432 747 302 748 q 628 657 567 747 q 666 416 690 566 l 650 319 l 227 319 q 250 172 217 227 q 361 117 283 117 q 467 134 418 117 q 560 180 515 151 l 594 73 q 482 11 550 36 q 330 -14 414 -14 m 411 615 q 316 567 359 615 q 253 444 273 518 l 254 440 l 509 440 l 512 457 q 499 572 523 530 q 411 615 475 615 z "},"ж":{"ha":1054,"x_min":-40,"x_max":1109,"o":"m 688 295 l 610 295 l 551 0 l 388 0 l 447 295 l 370 295 l 165 0 l -40 0 l 265 395 l 121 734 l 321 734 l 408 446 l 477 446 l 534 734 l 697 734 l 640 446 l 709 446 l 911 734 l 1107 734 l 1109 730 l 832 395 l 979 0 l 773 0 l 688 295 z "},"з":{"ha":667,"x_min":15,"x_max":669,"o":"m 650 533 q 603 439 639 480 q 513 376 568 398 q 587 310 564 353 q 597 208 609 267 q 488 42 576 98 q 271 -14 400 -14 q 89 45 162 -14 q 40 214 15 104 l 41 218 l 198 218 q 216 142 189 172 q 301 113 243 113 q 391 142 353 113 q 436 214 428 172 q 426 293 447 271 q 346 315 404 315 l 235 315 l 241 350 l 258 434 l 370 434 q 448 458 418 434 q 487 525 478 482 q 476 593 495 567 q 402 620 456 620 q 317 593 356 620 q 270 526 277 566 l 115 526 l 114 530 q 218 690 131 633 q 422 747 305 747 q 605 690 541 747 q 650 533 669 633 z "},"и":{"ha":751,"x_min":28,"x_max":754,"o":"m 592 734 l 754 734 l 608 0 l 446 0 l 539 471 l 536 473 l 190 0 l 28 0 l 175 734 l 336 734 l 242 263 l 245 261 l 592 734 z "},"й":{"ha":751,"x_min":28,"x_max":754,"o":"m 592 734 l 754 734 l 608 0 l 446 0 l 539 471 l 536 473 l 190 0 l 28 0 l 175 734 l 336 734 l 242 263 l 245 261 l 592 734 m 721 1045 l 722 1041 q 648 904 711 955 q 490 853 585 853 q 351 906 399 853 q 319 1042 302 959 l 320 1045 l 441 1045 q 450 980 434 1005 q 507 956 465 956 q 570 981 545 956 q 601 1045 595 1006 l 721 1045 z "},"к":{"ha":728,"x_min":35,"x_max":785,"o":"m 328 290 l 254 290 l 197 0 l 35 0 l 181 734 l 343 734 l 285 441 l 348 441 l 589 734 l 783 734 l 785 730 l 473 384 l 661 0 l 450 0 l 328 290 z "},"л":{"ha":752,"x_min":-35,"x_max":755,"o":"m 755 734 l 609 0 l 446 0 l 566 601 l 378 601 l 342 421 q 220 95 296 191 q -1 0 144 0 l -35 0 l -7 139 l 16 139 q 113 203 76 139 q 180 421 150 267 l 243 734 l 755 734 z "},"м":{"ha":981,"x_min":34,"x_max":974,"o":"m 471 209 l 474 208 l 770 734 l 974 734 l 827 0 l 665 0 l 756 458 l 753 460 l 486 0 l 376 0 l 292 459 l 288 459 l 197 0 l 34 0 l 180 734 l 385 734 l 471 209 z "},"н":{"ha":751,"x_min":28,"x_max":753,"o":"m 607 0 l 444 0 l 503 296 l 250 296 l 191 0 l 28 0 l 175 734 l 337 734 l 276 428 l 530 428 l 591 734 l 753 734 l 607 0 z "},"о":{"ha":741,"x_min":39,"x_max":722,"o":"m 68 374 q 194 646 95 544 q 441 747 293 747 q 652 642 583 747 q 696 374 722 536 l 694 359 q 568 87 667 188 q 321 -14 469 -14 q 109 91 179 -14 q 66 359 39 197 l 68 374 m 228 359 q 236 182 210 248 q 342 117 262 117 q 466 185 416 117 q 532 359 515 254 l 534 374 q 525 549 551 484 q 420 615 498 615 q 296 546 346 615 q 230 374 246 477 l 228 359 z "},"п":{"ha":751,"x_min":28,"x_max":754,"o":"m 608 0 l 445 0 l 565 601 l 311 601 l 191 0 l 28 0 l 175 734 l 754 734 l 608 0 z "},"р":{"ha":741,"x_min":-32,"x_max":730,"o":"m 694 329 q 579 72 659 158 q 372 -14 499 -14 q 273 7 317 -14 q 200 67 229 28 l 130 -282 l -32 -282 l 171 734 l 316 734 l 311 663 q 397 725 350 703 q 497 747 444 747 q 673 631 616 747 q 696 343 730 514 l 694 329 m 535 343 q 533 537 559 463 q 429 612 507 612 q 354 589 389 612 q 291 523 319 565 l 224 186 q 268 135 237 153 q 347 117 299 117 q 466 174 418 117 q 532 329 513 231 l 535 343 z "},"с":{"ha":686,"x_min":37,"x_max":693,"o":"m 339 117 q 434 153 391 117 q 486 242 477 189 l 632 242 l 633 238 q 527 58 619 130 q 318 -14 435 -14 q 104 91 172 -14 q 63 355 37 197 l 66 378 q 190 646 93 544 q 439 747 286 747 q 626 670 559 747 q 671 474 693 592 l 670 471 l 522 471 q 505 574 532 534 q 418 615 477 615 q 292 547 338 615 q 229 378 245 478 l 225 355 q 231 182 208 248 q 339 117 254 117 z "},"т":{"ha":648,"x_min":89,"x_max":711,"o":"m 685 603 l 466 603 l 346 0 l 184 0 l 304 603 l 89 603 l 115 734 l 711 734 l 685 603 z "},"у":{"ha":665,"x_min":-48,"x_max":739,"o":"m 313 294 l 314 234 l 318 233 l 562 734 l 739 734 l 290 -111 q 186 -242 247 -187 q 35 -296 125 -296 q -6 -292 16 -296 q -48 -283 -28 -288 l -5 -155 q 18 -157 3 -156 q 41 -159 33 -159 q 112 -126 78 -159 q 165 -58 146 -93 l 203 8 l 101 734 l 278 734 l 313 294 z "},"ф":{"ha":947,"x_min":33,"x_max":941,"o":"m 68 357 q 189 646 105 544 q 396 747 273 747 q 438 742 418 747 q 477 728 458 737 l 543 1058 l 704 1058 l 638 728 q 684 742 660 737 q 734 747 707 747 q 894 638 846 747 q 907 357 941 529 l 904 342 q 787 78 869 171 q 583 -14 705 -14 q 534 -9 557 -14 q 494 6 512 -3 l 436 -282 l 275 -282 l 331 1 q 289 -10 311 -6 q 243 -14 267 -14 q 82 85 132 -14 q 65 342 33 185 l 68 357 m 744 357 q 749 547 768 478 q 661 615 731 615 q 636 613 648 615 q 614 608 625 611 l 517 123 q 538 119 526 120 q 564 117 550 117 q 674 180 628 117 q 741 342 721 243 l 744 357 m 227 342 q 223 175 205 233 q 312 117 241 117 q 334 119 323 117 q 355 123 345 120 l 453 610 q 433 613 444 612 q 412 615 422 615 q 300 542 347 615 q 230 357 252 469 l 227 342 z "},"х":{"ha":665,"x_min":-24,"x_max":705,"o":"m 359 487 l 363 486 l 519 734 l 705 734 l 435 371 l 593 0 l 410 0 l 328 253 l 324 254 l 161 0 l -24 0 l 254 371 l 99 734 l 283 734 l 359 487 z "},"ц":{"ha":791,"x_min":28,"x_max":754,"o":"m 175 734 l 337 734 l 217 132 l 471 132 l 591 734 l 754 734 l 633 132 l 729 132 l 646 -218 l 498 -218 l 542 0 l 28 0 l 175 734 z "},"ч":{"ha":720,"x_min":79,"x_max":722,"o":"m 576 0 l 414 0 l 463 243 q 402 233 433 237 q 340 230 371 230 q 145 301 212 230 q 106 509 79 372 l 152 734 l 314 734 l 269 509 q 276 394 252 426 q 367 363 300 363 q 426 367 396 363 q 489 378 456 370 l 560 734 l 722 734 l 576 0 z "},"ш":{"ha":1069,"x_min":28,"x_max":1067,"o":"m 337 734 l 217 132 l 419 132 l 539 734 l 702 734 l 582 132 l 785 132 l 905 734 l 1067 734 l 920 0 l 28 0 l 175 734 l 337 734 z "},"щ":{"ha":1133,"x_min":23,"x_max":1062,"o":"m 332 734 l 212 132 l 414 132 l 534 734 l 696 734 l 576 132 l 780 132 l 900 734 l 1061 734 l 941 132 l 1062 132 l 979 -218 l 831 -218 l 875 0 l 23 0 l 170 734 l 332 734 z "},"ъ":{"ha":829,"x_min":85,"x_max":814,"o":"m 111 734 l 468 734 l 421 500 l 566 500 q 750 430 687 500 q 792 251 814 360 q 683 67 768 134 q 465 0 597 0 l 159 0 l 279 602 l 85 602 l 111 734 m 395 368 l 348 132 l 492 132 q 583 165 546 132 q 629 248 619 199 q 619 335 640 301 q 539 368 598 368 l 395 368 z "},"ы":{"ha":1053,"x_min":34,"x_max":1034,"o":"m 296 500 l 441 500 q 626 430 562 500 q 667 251 689 360 q 558 67 644 134 q 340 0 472 0 l 34 0 l 180 734 l 343 734 l 296 500 m 888 0 l 725 0 l 871 734 l 1034 734 l 888 0 m 270 368 l 223 132 l 367 132 q 458 165 421 132 q 505 248 494 199 q 494 335 515 301 q 414 368 473 368 l 270 368 z "},"ь":{"ha":720,"x_min":34,"x_max":689,"o":"m 296 500 l 441 500 q 626 430 562 500 q 667 251 689 360 q 558 67 644 134 q 340 0 472 0 l 34 0 l 180 734 l 343 734 l 296 500 m 270 368 l 223 132 l 367 132 q 458 165 421 132 q 505 248 494 199 q 494 335 515 301 q 414 368 473 368 l 270 368 z "},"э":{"ha":690,"x_min":23,"x_max":684,"o":"m 392 615 q 300 579 344 615 q 246 490 256 543 l 99 490 l 98 494 q 210 676 116 604 q 418 747 304 747 q 619 640 553 747 q 654 378 684 532 l 649 355 q 514 86 615 186 q 267 -14 413 -14 q 88 63 153 -14 q 50 258 23 141 l 52 262 l 200 262 q 213 157 187 197 q 294 117 238 117 q 403 174 355 117 q 473 311 451 230 l 471 315 l 273 315 l 296 429 l 499 429 q 484 564 509 513 q 392 615 459 615 z "},"ю":{"ha":1059,"x_min":35,"x_max":1042,"o":"m 285 439 l 402 439 q 534 665 440 582 q 761 747 628 747 q 972 642 903 747 q 1017 374 1042 536 l 1015 359 q 888 87 987 188 q 641 -14 789 -14 q 441 75 511 -14 q 380 307 371 164 l 258 307 l 197 0 l 35 0 l 181 734 l 344 734 l 285 439 m 548 359 q 556 182 530 248 q 662 117 583 117 q 786 185 736 117 q 852 359 836 254 l 854 374 q 845 549 871 484 q 740 615 819 615 q 616 546 666 615 q 550 374 566 477 l 548 359 z "},"я":{"ha":725,"x_min":-35,"x_max":720,"o":"m 720 734 l 574 0 l 412 0 l 466 269 l 334 269 l 134 0 l -35 0 l 189 300 q 108 381 133 329 q 97 499 83 433 q 205 671 119 609 q 423 734 292 734 l 720 734 m 258 495 q 271 421 250 450 q 348 391 293 391 l 490 391 l 533 603 l 397 603 q 305 570 344 603 q 258 495 267 537 z "},"ѐ":{"ha":693,"x_min":43,"x_max":690,"o":"m 330 -14 q 116 89 189 -14 q 68 350 43 192 l 73 377 q 200 646 99 543 q 432 747 302 748 q 628 657 567 747 q 666 416 690 566 l 650 319 l 227 319 q 250 172 217 227 q 361 117 283 117 q 467 134 418 117 q 560 180 515 151 l 594 73 q 482 11 550 36 q 330 -14 414 -14 m 411 615 q 316 567 359 615 q 253 444 273 518 l 254 440 l 509 440 l 512 457 q 499 572 523 530 q 411 615 475 615 m 513 840 l 383 840 l 243 1021 l 426 1021 l 513 840 z "},"ё":{"ha":693,"x_min":43,"x_max":696,"o":"m 330 -14 q 116 89 189 -14 q 68 350 43 192 l 73 377 q 200 646 99 543 q 432 747 302 748 q 628 657 567 747 q 666 416 690 566 l 650 319 l 227 319 q 250 172 217 227 q 361 117 283 117 q 467 134 418 117 q 560 180 515 151 l 594 73 q 482 11 550 36 q 330 -14 414 -14 m 411 615 q 316 567 359 615 q 253 444 273 518 l 254 440 l 509 440 l 512 457 q 499 572 523 530 q 411 615 475 615 m 673 868 l 515 868 l 538 1006 l 696 1006 l 673 868 m 368 868 l 210 868 l 233 1006 l 390 1006 l 368 868 z "},"ђ":{"ha":741,"x_min":22,"x_max":722,"o":"m 505 812 l 347 812 l 314 649 q 410 722 357 696 q 521 747 463 747 q 673 672 623 747 q 692 447 722 597 l 666 315 l 659 281 l 603 0 l 602 0 l 594 -43 q 498 -234 568 -172 q 319 -296 428 -296 q 279 -294 298 -296 q 241 -285 259 -291 l 277 -155 q 304 -161 286 -159 q 336 -164 323 -164 q 394 -132 368 -164 q 432 -43 420 -99 l 471 155 l 530 448 q 526 577 549 541 q 439 612 504 612 q 361 592 399 612 q 292 536 322 572 l 184 0 l 22 0 l 184 812 l 88 812 l 111 928 l 208 928 l 234 1058 l 396 1058 l 370 928 l 528 928 l 505 812 z "},"ѓ":{"ha":547,"x_min":28,"x_max":637,"o":"m 600 601 l 309 601 l 189 0 l 28 0 l 174 734 l 626 734 l 600 601 m 453 1005 l 637 1005 l 431 825 l 304 825 l 453 1005 z "},"є":{"ha":691,"x_min":41,"x_max":697,"o":"m 343 117 q 438 153 395 117 q 490 242 481 189 l 636 242 l 637 238 q 531 58 623 130 q 322 -14 439 -14 q 109 91 176 -14 q 67 355 41 197 l 71 378 q 194 646 97 544 q 444 747 290 747 q 630 670 564 747 q 675 474 697 592 l 674 471 l 526 471 q 509 574 536 534 q 422 615 481 615 q 307 560 351 615 q 244 424 262 505 l 246 420 l 452 420 l 429 306 l 222 306 q 242 168 215 219 q 343 117 269 117 z "},"ѕ":{"ha":681,"x_min":28,"x_max":667,"o":"m 448 199 q 429 263 454 238 q 326 307 404 288 q 153 386 208 334 q 112 525 98 437 q 210 684 127 621 q 414 747 293 747 q 601 681 534 747 q 648 517 667 614 l 646 513 l 490 513 q 473 592 498 560 q 394 624 448 624 q 311 597 344 624 q 271 532 277 570 q 288 470 265 492 q 389 430 311 448 q 569 350 515 401 q 608 208 623 298 q 507 46 592 106 q 294 -14 421 -14 q 97 60 165 -14 q 47 227 28 134 l 49 231 l 200 231 q 226 138 192 168 q 315 109 260 109 q 405 134 370 109 q 448 199 441 159 z "},"і":{"ha":347,"x_min":35,"x_max":408,"o":"m 197 0 l 35 0 l 181 734 l 343 734 l 197 0 m 379 913 l 217 913 l 246 1058 l 408 1058 l 379 913 z "},"ї":{"ha":353,"x_min":34,"x_max":541,"o":"m 197 0 l 34 0 l 180 734 l 343 734 l 197 0 m 519 853 l 361 853 l 383 991 l 541 991 l 519 853 m 213 853 l 56 853 l 78 991 l 235 991 l 213 853 z "},"ј":{"ha":350,"x_min":-158,"x_max":412,"o":"m 351 734 l 195 -43 q 99 -234 169 -172 q -80 -296 28 -296 q -120 -294 -101 -296 q -158 -285 -139 -291 l -123 -153 q -97 -159 -113 -157 q -70 -161 -82 -161 q -7 -132 -35 -161 q 33 -43 21 -103 l 189 734 l 351 734 m 384 916 l 221 916 l 250 1058 l 412 1058 l 384 916 z "},"љ":{"ha":1107,"x_min":-35,"x_max":1080,"o":"m 738 734 l 686 478 l 831 478 q 1016 411 952 478 q 1060 241 1080 344 q 952 64 1037 127 q 735 0 867 0 l 429 0 l 549 601 l 389 601 l 353 421 q 226 97 307 193 q -1 0 145 0 l -35 0 l -7 134 l 16 134 q 117 205 73 134 q 190 421 160 275 l 252 734 l 738 734 m 661 347 l 617 130 l 761 130 q 852 163 815 130 q 898 242 888 197 q 886 318 907 289 q 804 347 864 347 l 661 347 z "},"њ":{"ha":1120,"x_min":28,"x_max":1096,"o":"m 281 455 l 535 455 l 591 734 l 753 734 l 702 478 l 846 478 q 1032 411 968 478 q 1076 241 1096 344 q 967 64 1053 127 q 751 0 882 0 l 444 0 l 509 323 l 255 323 l 191 0 l 28 0 l 175 734 l 337 734 l 281 455 m 676 347 l 633 130 l 777 130 q 867 163 830 130 q 913 242 904 197 q 901 318 923 289 q 820 347 879 347 l 676 347 z "},"ћ":{"ha":741,"x_min":22,"x_max":722,"o":"m 519 817 l 348 817 l 314 649 q 410 722 357 696 q 521 747 463 747 q 673 672 623 747 q 692 447 722 597 l 603 0 l 441 0 l 530 448 q 526 577 549 541 q 439 612 504 612 q 361 592 399 612 q 292 536 322 572 l 184 0 l 22 0 l 186 817 l 103 817 l 126 932 l 209 932 l 234 1058 l 396 1058 l 371 932 l 543 932 l 519 817 z "},"ќ":{"ha":728,"x_min":35,"x_max":785,"o":"m 328 290 l 254 290 l 197 0 l 35 0 l 181 734 l 343 734 l 285 441 l 348 441 l 589 734 l 783 734 l 785 730 l 473 384 l 661 0 l 450 0 l 328 290 m 533 1004 l 717 1004 l 511 824 l 385 824 l 533 1004 z "},"ѝ":{"ha":751,"x_min":28,"x_max":754,"o":"m 592 734 l 754 734 l 608 0 l 446 0 l 539 471 l 536 473 l 190 0 l 28 0 l 175 734 l 336 734 l 242 263 l 245 261 l 592 734 m 559 825 l 430 825 l 290 1006 l 473 1006 l 559 825 z "},"ў":{"ha":665,"x_min":-48,"x_max":739,"o":"m 313 294 l 314 234 l 318 233 l 562 734 l 739 734 l 290 -111 q 186 -242 247 -187 q 35 -296 125 -296 q -6 -292 16 -296 q -48 -283 -28 -288 l -5 -155 q 18 -157 3 -156 q 41 -159 33 -159 q 112 -126 78 -159 q 165 -58 146 -93 l 203 8 l 101 734 l 278 734 l 313 294 m 675 1045 l 677 1041 q 603 904 666 955 q 445 853 540 853 q 306 906 354 853 q 273 1042 257 959 l 275 1045 l 395 1045 q 404 980 389 1005 q 461 956 420 956 q 525 981 500 956 q 555 1045 549 1006 l 675 1045 z "},"џ":{"ha":751,"x_min":28,"x_max":754,"o":"m 337 734 l 217 132 l 471 132 l 591 734 l 754 734 l 608 0 l 400 0 l 351 -243 l 189 -243 l 237 0 l 28 0 l 175 734 l 337 734 z "},"Ѡ":{"ha":1180,"x_min":61,"x_max":1227,"o":"m 1227 987 l 1087 286 q 964 58 1056 131 q 739 -14 871 -14 q 627 14 676 -14 q 554 95 578 41 q 446 12 509 39 q 311 -14 384 -14 q 127 64 193 -14 q 90 286 61 143 l 230 987 l 392 987 l 252 286 q 258 157 234 197 q 337 117 281 117 q 442 160 395 117 q 506 286 489 203 l 646 987 l 811 987 l 671 286 q 679 157 653 197 q 766 117 705 117 q 864 160 821 117 q 925 286 908 203 l 1065 987 l 1227 987 z "},"ѡ":{"ha":1017,"x_min":39,"x_max":1047,"o":"m 1047 734 l 954 268 q 841 54 925 123 q 638 -14 758 -14 q 541 9 583 -14 q 476 79 498 33 q 381 8 435 31 q 262 -14 327 -14 q 97 60 155 -14 q 66 268 39 134 l 159 734 l 321 734 l 229 268 q 229 152 212 187 q 289 117 245 117 q 376 156 338 117 q 430 268 415 194 l 523 734 l 686 734 l 593 268 q 595 152 576 187 q 665 117 614 117 q 742 156 707 117 q 792 268 777 194 l 885 734 l 1047 734 z "},"Ѣ":{"ha":821,"x_min":37,"x_max":808,"o":"m 479 743 l 348 743 l 320 606 l 512 606 q 732 523 656 606 q 781 306 808 440 q 649 79 751 159 q 391 0 547 0 l 37 0 l 185 743 l 63 743 l 86 858 l 208 858 l 234 987 l 397 987 l 371 858 l 503 858 l 479 743 m 294 473 l 226 132 l 417 132 q 548 183 493 132 q 619 307 604 234 q 602 429 634 385 q 486 473 569 473 l 294 473 z "},"ѣ":{"ha":720,"x_min":33,"x_max":692,"o":"m 524 733 l 342 733 l 300 523 l 444 523 q 629 450 566 523 q 669 263 692 376 q 557 70 644 139 q 340 0 471 0 l 33 0 l 180 733 l 72 733 l 95 849 l 203 849 l 245 1058 l 408 1058 l 366 849 l 547 849 l 524 733 m 274 391 l 222 132 l 366 132 q 458 169 420 132 q 507 260 495 206 q 497 354 517 317 q 418 391 477 391 l 274 391 z "},"Ѥ":{"ha":1163,"x_min":44,"x_max":1179,"o":"m 321 575 l 434 575 l 437 592 q 585 895 476 787 q 853 1002 693 1002 q 1092 907 1006 1002 q 1160 658 1179 812 l 1158 654 l 1000 654 q 970 813 1010 756 q 836 870 930 870 q 688 792 753 870 q 600 593 624 714 l 596 575 l 905 575 l 878 442 l 570 442 l 562 405 q 580 197 536 276 q 720 118 623 118 q 852 167 803 118 q 933 319 901 216 l 1089 319 l 1090 315 q 955 73 1049 159 q 705 -14 861 -14 q 458 108 551 -14 q 400 405 365 229 l 408 442 l 294 442 l 206 0 l 44 0 l 241 987 l 404 987 l 321 575 z "},"ѥ":{"ha":977,"x_min":28,"x_max":981,"o":"m 275 425 l 363 425 q 491 659 397 571 q 727 747 585 747 q 914 670 847 747 q 959 474 981 592 l 958 471 l 810 471 q 792 574 820 534 q 706 615 764 615 q 591 562 635 615 q 529 429 547 509 l 531 425 l 764 425 l 741 309 l 507 309 q 525 169 498 220 q 627 117 551 117 q 722 153 679 117 q 773 242 764 189 l 920 242 l 921 238 q 814 58 907 130 q 606 -14 722 -14 q 402 77 471 -14 q 345 309 334 168 l 252 309 l 191 0 l 28 0 l 174 734 l 337 734 l 275 425 z "},"Ѧ":{"ha":821,"x_min":-34,"x_max":767,"o":"m 569 278 l 492 278 l 437 0 l 290 0 l 345 278 l 275 278 l 133 0 l -34 0 l 490 987 l 643 987 l 767 0 l 600 0 l 569 278 m 340 405 l 555 405 l 519 745 l 515 746 l 340 405 z "},"ѧ":{"ha":715,"x_min":-50,"x_max":639,"o":"m 447 189 l 396 189 l 358 0 l 229 0 l 267 189 l 217 189 l 115 0 l -50 0 l 363 734 l 518 734 l 639 0 l 474 0 l 447 189 m 280 307 l 430 307 l 405 484 l 403 536 l 399 538 l 376 484 l 280 307 z "},"Ѩ":{"ha":1181,"x_min":57,"x_max":1106,"o":"m 300 406 l 520 406 l 829 987 l 982 987 l 1106 0 l 939 0 l 908 278 l 831 278 l 776 0 l 629 0 l 684 278 l 614 278 l 472 0 l 305 0 l 452 278 l 275 278 l 219 0 l 57 0 l 254 987 l 416 987 l 300 406 m 680 405 l 895 405 l 858 745 l 854 746 l 680 405 z "},"ѩ":{"ha":1012,"x_min":42,"x_max":935,"o":"m 266 307 l 418 307 l 659 734 l 814 734 l 935 0 l 770 0 l 743 189 l 692 189 l 654 0 l 524 0 l 562 189 l 513 189 l 411 0 l 246 0 l 353 189 l 242 189 l 205 0 l 42 0 l 189 734 l 351 734 l 266 307 m 576 307 l 726 307 l 701 484 l 699 536 l 695 538 l 671 484 l 576 307 z "},"Ѫ":{"ha":1133,"x_min":27,"x_max":1111,"o":"m 784 550 q 1000 472 929 547 q 1039 241 1070 398 l 991 0 l 829 0 l 877 241 q 867 381 898 347 q 747 416 836 416 l 684 416 l 675 405 l 595 0 l 433 0 l 517 416 l 516 416 l 438 416 q 307 377 356 416 q 237 241 257 338 l 189 0 l 27 0 l 75 241 q 204 483 110 415 q 465 550 299 550 l 470 550 l 318 987 l 1111 987 l 784 550 m 630 567 l 835 854 l 541 854 l 630 567 z "},"ѫ":{"ha":965,"x_min":26,"x_max":898,"o":"m 659 410 q 822 327 770 399 q 846 115 874 255 l 823 0 l 661 0 l 684 115 q 681 251 704 217 q 586 285 657 285 l 565 285 l 565 284 l 508 0 l 347 0 l 404 285 l 378 285 q 270 247 311 285 q 211 115 229 209 l 188 0 l 26 0 l 49 115 q 157 338 80 271 q 363 412 234 404 l 254 734 l 898 734 l 659 410 m 513 432 l 517 431 l 641 615 l 464 615 l 513 432 z "},"Ѭ":{"ha":1503,"x_min":52,"x_max":1480,"o":"m 396 0 l 444 241 q 472 340 455 296 q 512 417 489 384 l 297 417 l 214 0 l 52 0 l 249 987 l 411 987 l 323 550 l 839 550 l 687 987 l 1480 987 l 1153 550 q 1369 472 1298 547 q 1408 241 1439 398 l 1360 0 l 1198 0 l 1246 241 q 1236 381 1267 347 q 1116 416 1205 416 l 1053 416 l 1044 405 l 964 0 l 802 0 l 886 416 l 885 416 l 807 416 q 675 377 725 416 q 606 241 626 338 l 558 0 l 396 0 m 999 567 l 1204 854 l 909 854 l 999 567 z "},"ѭ":{"ha":1305,"x_min":34,"x_max":1239,"o":"m 367 0 l 390 115 q 416 211 400 168 q 455 288 433 254 l 254 288 l 197 0 l 34 0 l 180 734 l 343 734 l 279 414 l 704 414 l 595 734 l 1239 734 l 1000 410 q 1163 327 1112 399 q 1187 115 1215 255 l 1164 0 l 1002 0 l 1025 115 q 1022 251 1045 217 q 927 285 998 285 l 906 285 l 906 284 l 849 0 l 688 0 l 744 285 l 719 285 q 611 247 652 285 q 552 115 570 209 l 529 0 l 367 0 m 854 432 l 859 431 l 982 615 l 805 615 l 854 432 z "},"Ѯ":{"ha":674,"x_min":-63,"x_max":748,"o":"m 214 574 l 309 574 q 432 613 383 574 q 494 717 481 652 q 476 817 507 781 q 368 853 445 853 l 193 853 l 219 987 l 395 987 q 605 918 528 987 q 658 724 682 848 q 591 588 641 644 q 464 505 541 533 q 571 417 538 475 q 589 277 605 358 q 463 58 559 131 q 224 -14 366 -14 l 193 -14 q 130 -33 154 -14 q 100 -84 106 -52 q 111 -155 90 -131 q 171 -200 132 -178 l 96 -304 q -24 -215 16 -277 q -47 -67 -63 -153 q 40 77 -27 33 q 216 121 107 121 l 246 121 q 362 164 311 121 q 427 274 413 208 q 407 400 444 361 q 279 439 370 439 l 187 439 l 206 533 l 214 574 m 507 1204 l 606 1297 l 748 1297 l 746 1285 l 540 1114 l 437 1114 l 300 1284 l 303 1297 l 444 1297 l 507 1204 z "},"ѯ":{"ha":643,"x_min":-54,"x_max":675,"o":"m 348 734 q 547 679 473 734 q 602 527 621 624 q 551 429 590 469 q 452 365 513 388 q 541 301 513 342 q 559 206 570 260 q 450 41 536 96 q 233 -14 363 -14 l 202 -14 q 136 -33 161 -14 q 104 -84 110 -52 q 114 -155 94 -131 q 171 -200 134 -178 l 96 -299 q -14 -208 25 -268 q -39 -67 -54 -148 q 45 69 -20 27 q 213 111 109 111 l 243 111 q 345 138 302 111 q 397 208 388 165 q 374 284 408 260 q 262 308 340 308 l 165 308 l 171 336 l 182 392 l 189 422 l 288 422 q 390 449 351 422 q 439 519 429 475 q 418 585 447 562 q 323 608 389 608 l 144 608 l 170 734 l 348 734 m 434 957 l 533 1049 l 675 1049 l 673 1038 l 467 867 l 365 867 l 228 1036 l 231 1049 l 372 1049 l 434 957 z "},"Ѱ":{"ha":920,"x_min":77,"x_max":1006,"o":"m 549 368 l 553 366 q 689 445 631 379 q 770 619 748 511 l 844 987 l 1006 987 l 932 619 q 787 338 895 437 q 521 224 678 239 l 476 0 l 315 0 l 359 224 q 149 347 220 243 q 111 619 77 451 l 184 987 l 346 987 l 273 619 q 279 439 249 503 q 384 365 309 376 l 388 366 l 512 987 l 673 987 l 549 368 z "},"ѱ":{"ha":946,"x_min":37,"x_max":939,"o":"m 635 734 l 515 134 l 519 132 q 675 225 612 152 q 758 393 738 298 q 770 561 772 476 q 753 734 768 646 l 911 734 q 936 579 932 665 q 920 393 939 494 q 780 114 885 221 q 486 -10 675 7 l 424 -324 l 261 -324 l 324 -8 q 106 117 176 14 q 73 402 37 219 l 139 734 l 301 734 l 235 401 q 240 207 208 271 q 348 131 272 143 l 352 132 l 473 734 l 635 734 z "},"Ѳ":{"ha":894,"x_min":56,"x_max":918,"o":"m 847 405 q 681 99 808 212 q 381 -14 553 -14 q 141 106 227 -14 q 92 405 56 227 l 127 583 q 290 888 165 774 q 583 1002 415 1002 q 830 880 741 1002 q 883 583 918 759 l 847 405 m 282 549 l 715 549 l 722 584 q 704 790 748 715 q 556 866 660 866 q 389 785 465 866 q 289 584 313 705 l 282 549 m 691 433 l 258 433 l 253 405 q 268 196 227 272 q 408 121 309 121 q 582 202 503 121 q 686 405 661 283 l 691 433 z "},"ѳ":{"ha":739,"x_min":39,"x_max":722,"o":"m 67 374 q 193 646 94 544 q 440 747 292 747 q 652 642 582 747 q 696 374 722 536 l 694 359 q 567 87 666 188 q 320 -14 469 -14 q 109 91 178 -14 q 65 359 39 197 l 67 374 m 341 117 q 452 170 406 117 q 518 306 498 222 l 516 310 l 221 310 q 242 169 214 220 q 341 117 271 117 m 419 615 q 309 563 355 615 q 243 430 263 511 l 245 426 l 540 426 q 516 564 545 513 q 419 615 488 615 z "},"Ѵ":{"ha":833,"x_min":153,"x_max":945,"o":"m 385 268 l 387 200 l 391 199 l 420 267 l 666 785 q 778 949 721 897 q 913 1000 836 1000 l 945 1000 l 916 859 l 902 859 q 853 837 876 859 q 810 771 831 816 l 426 0 l 273 0 l 153 987 l 326 987 l 385 268 z "},"ѵ":{"ha":664,"x_min":112,"x_max":752,"o":"m 304 248 l 303 201 l 307 200 l 326 248 l 459 551 q 565 698 508 649 q 688 747 623 747 q 723 744 707 747 q 752 732 739 741 l 711 602 q 701 605 709 604 q 686 606 693 606 q 645 587 667 606 q 612 541 623 568 l 336 0 l 195 0 l 112 734 l 279 734 l 304 248 z "},"Ѷ":{"ha":833,"x_min":153,"x_max":945,"o":"m 385 268 l 387 200 l 391 199 l 420 267 l 666 785 q 778 949 721 897 q 913 1000 836 1000 l 945 1000 l 916 859 l 902 859 q 853 837 876 859 q 810 771 831 816 l 426 0 l 273 0 l 153 987 l 326 987 l 385 268 m 532 1081 l 394 1081 l 245 1258 l 247 1261 l 416 1261 l 532 1081 m 725 1081 l 596 1081 l 479 1261 l 644 1261 l 725 1081 z "},"ѷ":{"ha":664,"x_min":112,"x_max":752,"o":"m 304 248 l 303 201 l 307 200 l 326 248 l 459 551 q 565 698 508 649 q 688 747 623 747 q 723 744 707 747 q 752 732 739 741 l 711 602 q 701 605 709 604 q 686 606 693 606 q 645 587 667 606 q 612 541 623 568 l 336 0 l 195 0 l 112 734 l 279 734 l 304 248 m 431 895 l 294 895 l 145 1072 l 146 1076 l 315 1076 l 431 895 m 625 895 l 496 895 l 378 1076 l 544 1076 l 625 895 z "},"Ѹ":{"ha":1555,"x_min":56,"x_max":1630,"o":"m 845 400 q 687 96 806 205 q 398 -14 569 -14 q 149 110 242 -14 q 92 409 56 233 l 127 587 q 280 891 165 781 q 562 1002 395 1002 q 818 877 721 1002 q 880 578 916 753 l 845 400 m 720 579 q 692 787 745 708 q 534 866 640 866 q 379 789 445 866 q 288 588 313 711 l 253 409 q 275 200 227 279 q 425 121 324 121 q 589 198 519 121 q 684 400 659 275 l 720 579 m 1204 294 l 1204 234 l 1208 233 l 1452 734 l 1630 734 l 1180 -111 q 1077 -242 1137 -187 q 925 -296 1016 -296 q 884 -292 907 -296 q 842 -283 862 -288 l 886 -155 q 908 -157 894 -156 q 931 -159 923 -159 q 1002 -126 968 -159 q 1055 -58 1036 -93 l 1093 8 l 991 734 l 1168 734 l 1204 294 z "},"ѹ":{"ha":1405,"x_min":39,"x_max":1480,"o":"m 68 374 q 194 646 95 544 q 441 747 293 747 q 652 642 583 747 q 696 374 722 536 l 694 359 q 568 87 667 188 q 321 -14 469 -14 q 109 91 179 -14 q 66 359 39 197 l 68 374 m 228 359 q 236 182 210 248 q 342 117 262 117 q 466 185 416 117 q 532 359 515 254 l 534 374 q 525 549 551 484 q 420 615 498 615 q 296 546 346 615 q 230 374 246 477 l 228 359 m 1054 294 l 1055 234 l 1059 233 l 1302 734 l 1480 734 l 1030 -111 q 927 -242 987 -187 q 775 -296 866 -296 q 734 -292 757 -296 q 692 -283 712 -288 l 736 -155 q 759 -157 744 -156 q 781 -159 773 -159 q 852 -126 819 -159 q 905 -58 886 -93 l 943 8 l 842 734 l 1019 734 l 1054 294 z "},"Ѻ":{"ha":894,"x_min":57,"x_max":917,"o":"m 846 400 q 688 96 807 205 q 452 -12 589 3 l 436 -94 l 305 -94 l 323 -6 q 150 109 219 18 q 93 409 57 233 l 128 587 q 281 891 167 781 q 522 1000 382 988 l 537 1073 l 669 1073 l 652 990 q 819 877 751 964 q 882 578 917 753 l 846 400 m 721 579 q 693 787 746 708 q 624 848 666 828 l 611 784 l 479 784 l 495 862 q 380 789 431 848 q 290 588 314 711 l 254 409 q 277 199 228 279 q 351 134 305 153 l 365 202 l 496 202 l 481 127 q 590 198 541 144 q 685 400 660 275 l 721 579 z "},"ѻ":{"ha":741,"x_min":39,"x_max":722,"o":"m 361 -81 l 231 -81 l 245 -5 q 109 91 159 16 q 66 359 39 197 l 68 374 q 194 646 95 544 q 397 745 278 732 l 412 817 l 543 817 l 527 735 q 652 642 606 712 q 696 374 722 536 l 694 359 q 568 87 667 188 q 376 -10 488 5 l 361 -81 m 228 359 q 236 182 210 248 q 273 135 249 151 l 287 201 l 418 201 l 404 131 q 465 185 438 148 q 532 359 515 254 l 534 374 q 525 549 551 484 q 498 589 515 574 l 488 539 l 356 539 l 370 606 q 296 546 328 590 q 230 374 246 477 l 228 359 z "},"Ѽ":{"ha":1177,"x_min":62,"x_max":1186,"o":"m 938 982 l 942 983 q 1122 903 1057 986 q 1156 669 1186 819 l 1083 303 q 959 63 1050 140 q 739 -14 868 -14 q 626 12 675 -14 q 550 90 576 39 q 444 11 505 37 q 311 -14 382 -14 q 127 69 192 -14 q 93 303 62 153 l 166 669 q 290 909 199 832 q 506 983 380 986 l 509 981 l 484 855 q 390 807 433 855 q 328 669 347 760 l 255 303 q 258 161 235 204 q 337 117 281 117 q 442 160 395 117 q 506 286 489 203 l 559 553 l 717 553 l 663 286 q 673 157 646 197 q 766 117 701 117 q 860 164 817 117 q 921 303 903 212 l 994 669 q 991 811 1014 768 q 913 855 968 855 l 938 982 m 1044 1180 l 1025 1089 l 1002 1089 q 834 1130 928 1089 q 715 1171 741 1171 q 666 1153 688 1171 q 639 1101 645 1135 l 636 1089 l 548 1089 l 553 1114 q 613 1227 569 1193 q 730 1261 658 1261 q 860 1221 770 1261 q 1021 1180 949 1180 l 1044 1180 m 677 884 l 631 925 l 683 1001 l 702 1098 l 823 1098 l 806 1013 l 677 884 z "},"ѽ":{"ha":1014,"x_min":45,"x_max":1000,"o":"m 771 737 l 775 739 q 941 664 881 741 q 972 447 1000 587 l 939 281 q 827 57 909 128 q 631 -14 745 -14 q 534 10 576 -14 q 470 81 492 34 q 377 9 430 32 q 264 -14 325 -14 q 101 63 158 -14 q 73 281 45 140 l 106 447 q 220 670 137 599 q 420 738 304 741 l 423 736 l 398 610 q 320 569 355 610 q 269 447 284 527 l 235 281 q 233 156 218 194 q 290 117 248 117 q 372 156 334 117 q 425 268 410 194 l 452 402 l 609 402 l 582 268 q 586 153 566 188 q 657 117 607 117 q 728 159 694 117 q 777 281 761 201 l 810 447 q 810 572 827 534 q 746 610 792 610 l 771 737 m 934 941 l 916 850 l 892 850 q 724 890 818 850 q 605 931 631 931 q 557 913 578 931 q 529 862 536 896 l 527 850 l 438 850 l 443 875 q 503 988 458 954 q 620 1022 547 1022 q 749 981 659 1022 q 911 941 839 941 l 934 941 m 561 649 l 515 690 l 573 766 l 591 859 l 720 859 l 702 778 l 561 649 z "},"Ѿ":{"ha":1180,"x_min":61,"x_max":1227,"o":"m 480 1144 l 496 1220 l 1042 1220 l 1026 1144 l 808 1144 l 791 1058 l 670 1058 l 687 1144 l 480 1144 m 1227 987 l 1087 286 q 964 58 1056 131 q 739 -14 871 -14 q 627 14 676 -14 q 554 95 578 41 q 446 12 509 39 q 311 -14 384 -14 q 127 64 193 -14 q 90 286 61 143 l 230 987 l 392 987 l 252 286 q 258 157 234 197 q 337 117 281 117 q 442 160 395 117 q 506 286 489 203 l 646 987 l 811 987 l 671 286 q 679 157 653 197 q 766 117 705 117 q 864 160 821 117 q 925 286 908 203 l 1065 987 l 1227 987 z "},"ѿ":{"ha":1017,"x_min":39,"x_max":1047,"o":"m 379 912 l 394 988 l 920 988 l 908 912 l 696 912 l 680 826 l 559 826 l 576 912 l 379 912 m 1047 734 l 954 268 q 841 54 925 123 q 638 -14 758 -14 q 541 9 583 -14 q 476 79 498 33 q 381 8 435 31 q 262 -14 327 -14 q 97 60 155 -14 q 66 268 39 134 l 159 734 l 321 734 l 229 268 q 229 152 212 187 q 289 117 245 117 q 376 156 338 117 q 430 268 415 194 l 523 734 l 686 734 l 593 268 q 595 152 576 187 q 665 117 614 117 q 742 156 707 117 q 792 268 777 194 l 885 734 l 1047 734 z "}}}
